<svg width="225" height="255" viewBox="0 0 225 255" fill="none" xmlns="http://www.w3.org/2000/svg">
<path d="M183.571 0.306396H52.6358C49.3374 0.306396 46.6514 2.99245 46.6514 6.29087V161.303C46.6514 164.601 49.3374 167.287 52.6358 167.287H183.585C186.883 167.287 189.569 164.601 189.569 161.303V6.29087C189.555 2.99245 186.883 0.306396 183.571 0.306396Z" fill="white"/>
<path d="M183.57 167.593H52.6356C49.1702 167.593 46.345 164.768 46.345 161.302V6.29066C46.345 2.82523 49.1702 0 52.6356 0H183.584C187.05 0 189.875 2.82523 189.875 6.29066V161.302C189.861 164.768 187.036 167.593 183.57 167.593ZM52.6356 0.612364C49.5042 0.612364 46.9573 3.15925 46.9573 6.29066V161.302C46.9573 164.434 49.5042 166.981 52.6356 166.981H183.584C186.716 166.981 189.263 164.434 189.263 161.302V6.29066C189.263 3.15925 186.716 0.612364 183.584 0.612364H52.6356Z" fill="#1E3050"/>
<path d="M189.555 60.1515C189.388 60.1515 189.249 60.0124 189.249 59.8454V41.0151C189.249 40.8481 189.388 40.709 189.555 40.709C189.722 40.709 189.861 40.8481 189.861 41.0151V59.8454C189.861 60.0124 189.722 60.1515 189.555 60.1515Z" fill="#1E3050"/>
<path d="M127.929 8.57324H54.5842V159.006H127.929V8.57324Z" fill="white"/>
<path d="M127.929 159.327H54.5843C54.4172 159.327 54.2781 159.187 54.2781 159.02V8.57346C54.2781 8.40645 54.4172 8.26727 54.5843 8.26727H127.929C128.096 8.26727 128.235 8.40645 128.235 8.57346V159.006C128.235 159.187 128.096 159.327 127.929 159.327ZM54.8904 158.714H127.623V8.87964H54.8904V158.714Z" fill="#1E3050"/>
<path d="M181.608 8.57318H135.486V159.006H181.608V8.57318Z" fill="white"/>
<path d="M181.622 159.327H135.5C135.333 159.327 135.194 159.187 135.194 159.02V8.5734C135.194 8.40639 135.333 8.26721 135.5 8.26721H181.622C181.789 8.26721 181.928 8.40639 181.928 8.5734V159.006C181.928 159.187 181.789 159.327 181.622 159.327ZM135.806 158.714H181.316V8.87958H135.806V158.714Z" fill="#1E3050"/>
<path d="M199.199 169.138H33.2207V175.693H199.199V169.138Z" fill="white"/>
<path d="M199.2 175.999H33.221C33.054 175.999 32.9148 175.86 32.9148 175.693V169.138C32.9148 168.971 33.054 168.832 33.221 168.832H199.2C199.367 168.832 199.506 168.971 199.506 169.138V175.693C199.506 175.86 199.367 175.999 199.2 175.999ZM33.5272 175.387H198.894V169.444H33.5272V175.387Z" fill="#1E3050"/>
<path d="M180.522 152.521C180.063 152.368 179.576 152.284 179.047 152.284H177.836V148.875H156.905V161.08C156.905 165.909 160.815 169.82 165.631 169.82H169.096C173.689 169.82 177.447 166.271 177.795 161.776H179.033C181.622 161.776 183.542 159.549 183.542 156.947V156.905C183.556 154.845 182.332 153.133 180.522 152.521ZM178.866 159.062H177.836V154.998H178.866C179.98 154.998 180.87 155.917 180.87 157.03C180.884 158.144 179.98 159.062 178.866 159.062Z" fill="white"/>
<path d="M169.11 170.126H165.645C160.662 170.126 156.598 166.076 156.598 161.08V148.875C156.598 148.708 156.738 148.568 156.905 148.568H177.836C178.003 148.568 178.143 148.708 178.143 148.875V151.964H179.033C179.576 151.964 180.105 152.048 180.606 152.215C182.582 152.883 183.849 154.72 183.849 156.905V156.947C183.849 159.772 181.691 162.082 179.033 162.082H178.073C177.586 166.619 173.703 170.126 169.11 170.126ZM157.211 149.195V161.094C157.211 165.742 160.996 169.514 165.631 169.514H169.096C173.466 169.514 177.154 166.104 177.488 161.748C177.502 161.581 177.641 161.47 177.795 161.47H179.033C181.385 161.47 183.236 159.494 183.236 156.961V156.919C183.236 154.998 182.123 153.384 180.411 152.813C179.98 152.66 179.506 152.591 179.033 152.591H177.822C177.655 152.591 177.516 152.451 177.516 152.284V149.195H157.211ZM178.866 159.368H177.836C177.669 159.368 177.53 159.229 177.53 159.062V154.998C177.53 154.831 177.669 154.692 177.836 154.692H178.866C180.147 154.692 181.19 155.736 181.19 157.03C181.19 158.324 180.147 159.368 178.866 159.368ZM178.143 158.756H178.866C179.799 158.756 180.564 157.977 180.564 157.03C180.564 156.084 179.799 155.304 178.866 155.304H178.143V158.756Z" fill="#1E3050"/>
<path d="M169.11 170.126H165.645C160.662 170.126 156.598 166.076 156.598 161.08V148.875C156.598 148.708 156.738 148.568 156.905 148.568C157.072 148.568 157.211 148.708 157.211 148.875V161.08C157.211 165.729 160.996 169.5 165.631 169.5H169.096C173.466 169.5 177.154 166.09 177.488 161.734C177.502 161.567 177.641 161.456 177.795 161.456H179.033C181.385 161.456 183.236 159.48 183.236 156.947V156.905C183.236 156.014 183 155.179 182.54 154.469C182.443 154.33 182.485 154.135 182.638 154.038C182.777 153.941 182.972 153.982 183.069 154.135C183.584 154.943 183.863 155.903 183.863 156.905V156.947C183.863 159.772 181.705 162.082 179.047 162.082H178.087C177.586 166.619 173.703 170.126 169.11 170.126ZM178.783 159.368H178.115C177.795 159.368 177.53 159.104 177.53 158.784V155.277C177.53 154.956 177.795 154.692 178.115 154.692H178.866C179.52 154.692 180.147 154.97 180.578 155.471C181.023 155.972 181.232 156.64 181.163 157.295C181.051 158.478 180.021 159.368 178.783 159.368ZM178.143 158.756H178.783C179.687 158.756 180.467 158.088 180.564 157.225C180.62 156.738 180.467 156.237 180.133 155.875C179.813 155.513 179.353 155.304 178.88 155.304H178.156V158.756H178.143ZM180.522 152.827C180.495 152.827 180.453 152.827 180.425 152.813C179.994 152.66 179.52 152.591 179.047 152.591H178.129C177.808 152.591 177.544 152.326 177.544 152.006V149.195H160.551C160.384 149.195 160.245 149.056 160.245 148.888C160.245 148.721 160.384 148.582 160.551 148.582H177.572C177.892 148.582 178.156 148.847 178.156 149.167V151.978H179.047C179.59 151.978 180.119 152.062 180.62 152.229C180.787 152.284 180.87 152.451 180.815 152.618C180.773 152.744 180.648 152.827 180.522 152.827Z" fill="#1E3050"/>
<path d="M167.382 162.486C169.534 162.48 171.274 160.731 171.268 158.579C171.263 156.427 169.513 154.687 167.361 154.693C165.209 154.698 163.469 156.448 163.475 158.6C163.481 160.752 165.23 162.492 167.382 162.486Z" fill="white"/>
<path d="M167.371 162.792C165.06 162.792 163.168 160.913 163.168 158.589C163.168 156.265 165.047 154.386 167.371 154.386C169.681 154.386 171.574 156.265 171.574 158.589C171.574 160.913 169.695 162.792 167.371 162.792ZM167.371 155.012C165.394 155.012 163.78 156.626 163.78 158.603C163.78 160.579 165.394 162.193 167.371 162.193C169.347 162.193 170.961 160.579 170.961 158.603C170.961 156.626 169.347 155.012 167.371 155.012Z" fill="#1E3050"/>
<path d="M168.15 145.562C168.094 145.562 168.038 145.548 167.983 145.506C167.941 145.478 166.786 144.727 166.508 143.349C166.313 142.43 166.563 141.456 167.231 140.454C169.054 137.768 168.456 136.571 167.83 135.319L167.774 135.221C167.704 135.068 167.76 134.887 167.913 134.804C168.066 134.734 168.247 134.79 168.331 134.943L168.386 135.04C169.041 136.335 169.778 137.81 167.746 140.802C167.176 141.651 166.953 142.458 167.106 143.21C167.329 144.323 168.303 144.977 168.317 144.977C168.456 145.075 168.498 145.256 168.414 145.409C168.345 145.506 168.247 145.562 168.15 145.562Z" fill="#1E3050"/>
<path d="M203.069 44.1046H190.891C189.555 35.5593 182.165 29.0181 173.244 29.0181C170.947 29.0181 168.762 29.4496 166.744 30.2429C162.207 22.0455 153.467 16.4925 143.433 16.4925C128.722 16.4925 116.795 28.4197 116.795 43.1304C116.795 43.4505 116.809 43.7845 116.823 44.1046H115.584C105.313 44.1046 96.9902 52.4272 96.9902 62.6982C96.9902 72.9693 105.313 81.2918 115.584 81.2918H203.069C213.34 81.2918 221.662 72.9693 221.662 62.6982C221.662 52.4272 213.34 44.1046 203.069 44.1046Z" fill="white"/>
<path d="M205.059 79.3434H117.574C107.15 79.3434 98.6741 70.8677 98.6741 60.4436C98.6741 50.0195 107.15 41.5438 117.574 41.5438H118.492C118.479 41.3211 118.479 41.0984 118.479 40.8758C118.479 26.0259 130.559 13.9317 145.423 13.9317C155.123 13.9317 164.086 19.1646 168.873 27.6125C170.919 26.847 173.049 26.4573 175.234 26.4573C179.59 26.4573 183.807 28.03 187.105 30.8692C190.306 33.6248 192.435 37.4103 193.145 41.5438H205.059C215.483 41.5438 223.958 50.0195 223.958 60.4436C223.958 70.8677 215.483 79.3434 205.059 79.3434ZM117.574 42.1701C107.498 42.1701 99.2864 50.3674 99.2864 60.4575C99.2864 70.5337 107.484 78.745 117.574 78.745H205.059C215.135 78.745 223.346 70.5476 223.346 60.4575C223.346 50.3813 215.149 42.1701 205.059 42.1701H192.881C192.728 42.1701 192.603 42.0587 192.575 41.9056C191.225 33.3186 183.932 27.0836 175.234 27.0836C173.035 27.0836 170.891 27.4872 168.846 28.2944C168.706 28.3501 168.539 28.2944 168.47 28.1553C163.821 19.777 154.998 14.558 145.423 14.558C130.907 14.558 119.091 26.3738 119.091 40.8897C119.091 41.1819 119.105 41.4881 119.119 41.7804V41.85C119.119 41.9335 119.091 42.017 119.035 42.0727C118.98 42.1283 118.896 42.1701 118.813 42.1701H117.574Z" fill="#1E3050"/>
<path d="M142.096 232.462C142.096 232.462 149.236 246.867 157.252 253.797C158.602 254.966 160.718 254.326 161.219 252.601C161.511 251.612 161.79 250.29 162.026 248.523C162.903 241.94 156.988 224.821 156.988 224.821L154.358 223.972C153.439 223.68 152.451 224.237 152.256 225.183L151.978 226.464L148.805 223.68C148.081 223.04 146.981 223.137 146.383 223.889C145.172 225.434 143.293 228.301 142.096 232.462Z" fill="white"/>
<path d="M158.839 254.688C158.185 254.688 157.559 254.452 157.058 254.02C149.083 247.131 141.902 232.74 141.832 232.587C141.804 232.518 141.79 232.434 141.818 232.365C143.001 228.245 144.838 225.378 146.16 223.694C146.494 223.263 146.982 222.998 147.538 222.957C148.081 222.901 148.624 223.082 149.027 223.444L151.797 225.879L151.964 225.114C152.075 224.571 152.423 224.112 152.896 223.833C153.37 223.555 153.94 223.499 154.469 223.666L157.099 224.515C157.197 224.543 157.266 224.613 157.294 224.71C157.531 225.406 163.223 241.982 162.346 248.551C162.124 250.165 161.859 251.543 161.525 252.67C161.261 253.589 160.551 254.285 159.632 254.563C159.354 254.646 159.09 254.688 158.839 254.688ZM142.417 232.434C143.085 233.77 149.932 247.075 157.447 253.561C158.004 254.048 158.728 254.201 159.438 253.992C160.147 253.784 160.704 253.227 160.913 252.517C161.233 251.432 161.497 250.068 161.72 248.495C162.541 242.385 157.322 226.756 156.752 225.072L154.26 224.265C153.898 224.153 153.509 224.195 153.189 224.376C152.869 224.571 152.632 224.877 152.548 225.253L152.27 226.533C152.242 226.645 152.173 226.728 152.061 226.756C151.964 226.784 151.839 226.77 151.755 226.7L148.582 223.917C148.29 223.666 147.928 223.541 147.552 223.583C147.176 223.611 146.842 223.805 146.606 224.098C145.339 225.712 143.586 228.468 142.417 232.434Z" fill="#1E3050"/>
<path d="M159.479 252.364C159.396 252.364 159.326 252.336 159.257 252.267C151.101 244.083 144.281 231.265 144.212 231.126C144.128 230.973 144.184 230.792 144.337 230.708C144.49 230.625 144.671 230.681 144.755 230.834C144.824 230.959 151.602 243.693 159.702 251.821C159.827 251.946 159.827 252.141 159.702 252.253C159.632 252.336 159.563 252.364 159.479 252.364Z" fill="#1E3050"/>
<path d="M156 241.119C155.875 241.119 155.75 241.035 155.708 240.91C155.652 240.743 155.736 240.576 155.903 240.52L160.161 239.115C160.328 239.059 160.495 239.156 160.551 239.309C160.607 239.476 160.523 239.643 160.356 239.699L156.098 241.105C156.07 241.119 156.042 241.119 156 241.119Z" fill="#1E3050"/>
<path d="M153.203 236.568C153.077 236.568 152.952 236.484 152.91 236.359C152.855 236.192 152.938 236.025 153.105 235.969L158.463 234.202C158.63 234.146 158.797 234.23 158.853 234.397C158.909 234.564 158.825 234.731 158.658 234.786L153.3 236.554C153.258 236.554 153.23 236.568 153.203 236.568Z" fill="#1E3050"/>
<path d="M83.8106 124.282C84.3534 123.712 123.461 106.816 139.438 103.225C155.416 99.6347 161.372 99.593 166.814 108.737C172.256 117.867 140.621 167.719 140.621 167.719L73.3169 150.169L83.8106 124.282Z" fill="#1E3050"/>
<path d="M121.694 143.53C121.652 143.53 121.61 143.516 121.569 143.502C121.415 143.433 121.346 143.252 121.415 143.099C128.931 126.314 141.345 114.331 141.47 114.206C141.596 114.095 141.791 114.095 141.902 114.22C142.013 114.345 142.013 114.54 141.888 114.652C141.763 114.777 129.432 126.676 121.972 143.349C121.916 143.461 121.805 143.53 121.694 143.53Z" fill="white"/>
<path d="M51.8145 146.606C51.8145 146.606 53.582 164.768 57.5206 168.554C61.4453 172.325 108.597 168.554 108.597 168.554C108.597 168.554 112.341 174.691 114.791 191.1C117.24 207.508 119.968 229.581 124.018 234.981L159.312 227.355C159.312 227.355 147.608 157.086 139.466 147.525C131.338 137.963 72.1617 136.46 72.1617 136.46L51.8145 146.606Z" fill="#1E3050"/>
<path d="M143.558 156.445C143.433 156.445 143.307 156.362 143.266 156.236C141.79 151.978 140.426 149.111 139.243 147.719C136.488 144.476 124.282 141.54 103.949 139.188C103.782 139.174 103.657 139.021 103.685 138.84C103.698 138.673 103.865 138.547 104.032 138.575C124.811 140.969 136.822 143.906 139.717 147.315C140.955 148.777 142.347 151.713 143.85 156.028C143.906 156.195 143.822 156.362 143.655 156.417C143.627 156.445 143.6 156.445 143.558 156.445Z" fill="white"/>
<path d="M117.157 87.1371C115.904 86.2186 114.136 86.5387 113.288 87.833C108.89 94.5412 96.7258 113.107 96.5728 113.566L102.669 114.429L117.839 90.7835C118.618 89.5866 118.312 87.9861 117.157 87.1371Z" fill="white"/>
<path d="M102.668 114.735C102.655 114.735 102.641 114.735 102.627 114.735L96.5309 113.872C96.4474 113.858 96.3639 113.803 96.3082 113.733C96.2664 113.664 96.2525 113.566 96.2803 113.483C96.4195 113.037 105.466 99.2035 113.023 87.666C113.482 86.9701 114.192 86.4969 115.013 86.3577C115.834 86.2046 116.655 86.3995 117.337 86.8866C118.618 87.833 118.952 89.6144 118.103 90.9505L102.933 114.596C102.877 114.68 102.78 114.735 102.668 114.735ZM97.0736 113.33L102.529 114.095L117.588 90.6165C118.27 89.5448 118.005 88.1252 116.989 87.3737C116.447 86.984 115.793 86.8309 115.138 86.9423C114.484 87.0675 113.928 87.4294 113.566 87.9861C104.241 102.182 98.2427 111.409 97.0736 113.33Z" fill="#1E3050"/>
<path d="M34.2507 143.113C34.2507 143.113 27.9183 134.261 30.5069 114.429C33.0956 94.5967 39.4419 84.3118 46.0805 81.9598C52.7191 79.6077 80.025 83.9082 82.1544 117.212L34.2507 143.113Z" fill="white"/>
<path d="M34.2507 143.419C34.1533 143.419 34.0559 143.377 34.0002 143.294C33.9306 143.21 27.6261 134.108 30.2008 114.387C32.5667 96.3088 38.3146 84.3816 45.9831 81.6677C49.532 80.4151 58.5644 81.0414 66.6643 86.3996C73.2473 90.7418 81.3472 99.6211 82.4745 117.199C82.4884 117.324 82.4188 117.435 82.3075 117.491L34.3899 143.391C34.3482 143.405 34.3064 143.419 34.2507 143.419ZM50.0609 81.7233C48.4604 81.7233 47.1243 81.9182 46.1919 82.2522C42.796 83.4491 39.6368 86.7475 37.0621 91.7856C34.1394 97.4778 32.0518 105.105 30.8271 114.471C28.5029 132.243 33.4296 141.206 34.3621 142.709L81.8482 117.032C80.6931 99.8299 72.7741 91.1593 66.3303 86.9006C60.5685 83.1012 54.3474 81.7233 50.0609 81.7233Z" fill="#1E3050"/>
<path d="M53.3313 129.098C53.1643 129.098 53.039 128.973 53.0251 128.806L51.7169 110.212C51.703 110.045 51.8282 109.892 52.0091 109.878C52.1761 109.864 52.3292 109.989 52.3432 110.17L53.6514 128.764C53.6653 128.931 53.5401 129.084 53.3591 129.098C53.3452 129.098 53.3452 129.098 53.3313 129.098Z" fill="#1E3050"/>
<path d="M31.9404 138.019C31.9404 138.019 34.2368 154.679 57.5206 149.098C80.7905 143.531 92.9264 121.889 92.9264 121.889C92.9264 121.889 106.482 118.994 106.023 110.199C106.023 110.199 101.486 111.409 97.6305 110.199C93.7754 108.988 89.6002 110.226 87.9857 111.729C76.991 122.042 41.8357 125.146 31.9404 138.019Z" fill="white"/>
<path d="M48.7248 150.545C44.3965 150.545 40.7501 149.557 37.8414 147.567C32.4971 143.92 31.6621 138.298 31.6342 138.061C31.6203 137.978 31.6481 137.894 31.6899 137.825C37.1316 130.741 50.0191 126.635 62.4752 122.655C72.9271 119.314 82.8085 116.155 87.777 111.507C89.6001 109.809 93.9145 108.709 97.714 109.906C101.444 111.075 105.883 109.92 105.939 109.906C106.023 109.878 106.12 109.906 106.204 109.948C106.273 110.004 106.329 110.087 106.329 110.185C106.774 118.758 94.6382 121.82 93.1352 122.167C92.648 123.003 89.6001 128.055 84.1863 133.621C78.7307 139.216 69.6983 146.509 57.6041 149.404C54.3752 150.155 51.4248 150.545 48.7248 150.545ZM32.2744 138.089C32.4275 138.938 33.5131 143.851 38.2032 147.052C42.7681 150.169 49.2397 150.74 57.451 148.778C80.3312 143.294 92.5367 121.931 92.662 121.722C92.7037 121.639 92.7733 121.597 92.8707 121.569C92.996 121.541 105.772 118.716 105.73 110.574C104.547 110.839 100.831 111.521 97.547 110.477C93.7475 109.28 89.6836 110.56 88.2084 111.938C83.1425 116.684 73.2055 119.857 62.6839 123.225C50.367 127.164 37.6465 131.228 32.2744 138.089Z" fill="#1E3050"/>
<path d="M97.7279 114.262C97.3521 114.262 96.9625 114.248 96.5588 114.234C96.3918 114.234 96.2527 114.081 96.2666 113.914C96.2666 113.747 96.4058 113.608 96.5867 113.622C103.378 113.9 105.689 111.646 105.716 111.632C105.842 111.506 106.037 111.506 106.148 111.632C106.273 111.757 106.273 111.938 106.148 112.063C106.064 112.147 103.935 114.262 97.7279 114.262Z" fill="#1E3050"/>
<path d="M97.0318 117.477C96.8787 117.477 96.7256 117.477 96.5726 117.477C96.4055 117.477 96.2664 117.338 96.2664 117.157C96.2664 116.99 96.4195 116.85 96.5865 116.85C102.501 116.962 104.422 114.86 104.436 114.832C104.547 114.707 104.742 114.693 104.867 114.805C104.993 114.916 105.006 115.111 104.895 115.236C104.812 115.347 102.877 117.477 97.0318 117.477Z" fill="#1E3050"/>
<path d="M56.6717 66.5255C56.4907 66.8456 49.0449 79.5661 49.0449 79.5661L43.9094 83.0176C45.8022 84.4511 49.1424 86.6222 53.8325 87.8608C58.6062 89.1273 62.6561 88.8629 65.036 88.5428C64.8273 87.8887 64.4793 87.0536 63.8809 86.1629C62.9345 84.7712 61.8072 83.9501 61.0835 83.5047C62.6144 80.8743 64.1453 78.2439 65.6762 75.6135L56.6717 66.5255Z" fill="white"/>
<path d="M61.1111 89.1273C58.6338 89.1273 56.1843 88.8072 53.7627 88.167C50.1164 87.2067 46.7484 85.5505 43.7422 83.268C43.6587 83.2124 43.6169 83.1149 43.6169 83.0175C43.6169 82.9201 43.6726 82.8227 43.7561 82.767L48.836 79.3573C49.3927 78.397 56.2539 66.6785 56.4209 66.3862C56.4627 66.3027 56.5462 66.2471 56.6436 66.2332C56.741 66.2192 56.8385 66.2471 56.908 66.3167L65.9126 75.4047C66.01 75.5021 66.0239 75.6552 65.9543 75.7805L61.5008 83.4211C62.5585 84.117 63.4353 84.9799 64.1451 86.0098C64.66 86.7613 65.0636 87.5963 65.342 88.4592C65.3698 88.5427 65.3559 88.6401 65.3142 88.7237C65.2724 88.8072 65.1889 88.8489 65.0915 88.8628C63.7554 89.0298 62.4333 89.1273 61.1111 89.1273ZM44.452 83.0314C47.3051 85.133 50.4921 86.65 53.9158 87.5685C57.423 88.501 61.0276 88.7376 64.6183 88.2922C64.3678 87.5963 64.0338 86.9561 63.6162 86.3438C62.9064 85.3 62.0018 84.4371 60.9163 83.7691C60.7771 83.6856 60.7214 83.4907 60.8049 83.3515L65.2863 75.6691L56.7271 67.0404C55.5302 69.1001 49.5875 79.2598 49.3092 79.733C49.2813 79.7748 49.2535 79.8026 49.2117 79.8304L44.452 83.0314Z" fill="#1E3050"/>
<path d="M79.2178 58.3976C75.7802 55.5863 71.7441 58.5229 67.7359 55.0714C65.8988 53.4848 65.7318 51.9956 63.5329 51.1327C62.0716 50.5621 59.469 50.1585 57.7433 51.4807C55.5443 53.1647 57.1587 55.7811 55.3773 61.6543C54.1247 65.7738 52.3851 67.5692 53.3593 69.0166C54.3474 70.4779 56.6438 69.4063 57.8407 70.9233C59.3855 72.8856 56.5603 75.9614 57.451 78.7309C58.0634 80.6376 60.9582 83.3515 68.237 84.27C68.6406 83.101 69.6009 80.7907 70.2272 78.5361C72.1895 71.466 71.1179 68.7522 72.8993 67.8475C75.6132 66.4419 78.8838 70.7702 80.9018 69.4619C82.9755 68.0841 82.7389 61.2924 79.2178 58.3976Z" fill="#1E3050"/>
<path d="M64.9943 61.8631L65.6763 63.9368C65.6763 63.9368 63.0041 70.4779 62.5309 72.9413C62.0577 75.4047 69.587 77.4645 69.587 77.4645L70.77 76.5877L72.8715 77.1165C72.8715 77.1165 72.802 69.9212 74.7365 65.1197C74.7504 65.1197 71.1875 60.8054 64.9943 61.8631Z" fill="white"/>
<path d="M65.2586 62.0158C65.5369 62.642 65.7735 63.2127 65.9684 63.8389C65.9962 63.9085 65.9823 63.992 65.9545 64.0477C65.3839 65.4673 64.8272 66.9008 64.2983 68.3342C63.7834 69.7677 63.2545 71.2151 62.8926 72.6765L62.837 72.9548C62.8091 73.0522 62.8231 73.1079 62.8091 73.1775C62.8231 73.3167 62.837 73.4698 62.9205 73.6089C63.0457 73.9012 63.2823 74.1656 63.5607 74.4022C64.1035 74.8754 64.7576 75.2512 65.4256 75.5852C66.7756 76.2532 68.223 76.7682 69.6704 77.1857L69.406 77.2414L70.589 76.3646L70.6029 76.3507C70.6725 76.295 70.7699 76.295 70.8395 76.3089L72.9271 76.9213L72.6626 77.13C72.6626 76.1002 72.6905 75.0842 72.7601 74.0682C72.8297 73.0522 72.9132 72.0363 73.0523 71.0203C73.1915 70.0043 73.3585 69.0023 73.5812 67.9863C73.8178 66.9843 74.0961 65.9961 74.4719 65.0219L74.5137 65.3281C73.957 64.7018 73.2611 64.1451 72.5374 63.6719C71.8137 63.1987 71.0204 62.823 70.1993 62.5446C69.3781 62.2802 68.5153 62.0853 67.6524 62.0436C67.2209 61.9879 66.7895 62.0158 66.3442 62.0297C66.1076 62.0297 65.9684 62.0714 65.8014 62.0575C65.6344 62.0575 65.4534 62.0297 65.2586 62.0158ZM64.7297 61.6957C64.9803 61.6261 65.2447 61.5565 65.523 61.5008C65.8014 61.4451 66.1076 61.4034 66.3163 61.4034C66.7756 61.3895 67.2349 61.3616 67.6941 61.4173C68.6127 61.4591 69.5173 61.6678 70.3941 61.9462C71.2709 62.2245 72.106 62.642 72.8714 63.1291C73.6508 63.6302 74.3606 64.2008 74.9869 64.9106C75.0564 64.9941 75.0843 65.1054 75.0425 65.2028L75.0286 65.2167C74.6528 66.1492 74.3745 67.1095 74.124 68.0837C73.8874 69.058 73.7065 70.06 73.5673 71.0481C73.4281 72.0502 73.3168 73.0522 73.2333 74.0682C73.1498 75.0703 73.108 76.0862 73.0941 77.1022C73.0941 77.2275 72.9967 77.3249 72.8714 77.3249C72.8575 77.3249 72.8436 77.3249 72.8297 77.3249L70.7003 76.8934L70.9647 76.8378L69.7817 77.7146C69.6982 77.7702 69.6008 77.7842 69.5173 77.7563C68.0282 77.3249 66.5668 76.8099 65.1612 76.1141C64.4653 75.7661 63.7694 75.3764 63.1571 74.8337C62.8509 74.5692 62.5586 74.2491 62.3638 73.8316C62.2664 73.6229 62.2107 73.3863 62.2107 73.1497C62.2246 73.0383 62.2246 72.8991 62.2524 72.8017L62.322 72.5095C62.6978 70.9925 63.2267 69.5451 63.7416 68.0977C64.2705 66.6502 64.8272 65.2168 65.3978 63.7972L65.3839 64.0059C65.1333 63.2683 64.9107 62.4611 64.7297 61.6957Z" fill="#1E3050"/>
<path d="M62.4472 67.6247C62.4472 67.6247 63.1013 62.851 60.8745 63.0041C58.6338 63.1711 58.0353 68.4458 62.4472 67.6247Z" fill="white"/>
<path d="M61.5703 68.0281C60.4152 68.0281 59.7611 67.5549 59.3992 67.0956C58.6894 66.2049 58.7451 64.9384 59.1209 64.0894C59.4827 63.2822 60.1229 62.7673 60.8466 62.7116C61.3337 62.6699 61.7513 62.8369 62.0714 63.1848C63.1848 64.3817 62.7672 67.5549 62.7533 67.6801C62.7394 67.8054 62.6281 67.9167 62.5028 67.9446C62.1549 68.0002 61.8487 68.0281 61.5703 68.0281ZM60.9719 63.3101C60.9441 63.3101 60.9162 63.3101 60.8884 63.3101C60.3874 63.3518 59.942 63.7137 59.6776 64.326C59.3714 65.008 59.3157 66.01 59.8724 66.7059C60.3317 67.2904 61.125 67.5131 62.1688 67.36C62.2662 66.3858 62.3219 64.34 61.626 63.5884C61.4451 63.4075 61.2363 63.3101 60.9719 63.3101Z" fill="#1E3050"/>
<path d="M79.1622 202.679C77.6731 199.603 77.52 196.5 79.1622 193.368L77.9932 191.963L45.8301 193.02L46.9435 203.236L78.0767 203.598L79.1622 202.679Z" fill="white"/>
<path d="M78.0627 203.89L46.9295 203.528C46.7764 203.528 46.6372 203.402 46.6233 203.249L45.5099 193.034C45.496 192.951 45.5238 192.867 45.5795 192.797C45.6352 192.728 45.7187 192.7 45.8022 192.686L77.9652 191.628C78.0627 191.628 78.1462 191.67 78.2158 191.74L79.3848 193.145C79.4683 193.243 79.4822 193.382 79.4266 193.479C77.8956 196.402 77.8956 199.366 79.4266 202.512C79.4822 202.637 79.4544 202.79 79.3431 202.888L78.2436 203.792C78.2018 203.862 78.1322 203.89 78.0627 203.89ZM47.2078 202.915L77.9513 203.263L78.7725 202.581C77.3111 199.422 77.3111 196.332 78.7864 193.396L77.84 192.255L46.164 193.298L47.2078 202.915Z" fill="#1E3050"/>
<path d="M20.0693 190.821H62.4477H79.7609C80.4568 190.821 81.0274 191.392 81.0274 192.088C81.0274 192.784 80.4568 193.354 79.7609 193.354H52.3159C50.3117 193.354 48.6834 194.983 48.6834 196.987V199.033C48.6834 201.037 50.3117 202.665 52.3159 202.665H79.7609C80.4568 202.665 81.0274 203.236 81.0274 203.931C81.0274 204.627 80.4568 205.198 79.7609 205.198H20.0693C16.3672 205.198 13.3611 202.192 13.3611 198.49V197.529C13.3611 193.827 16.3672 190.821 20.0693 190.821Z" fill="white"/>
<path d="M79.7607 205.504H20.069C16.2 205.504 13.0547 202.359 13.0547 198.49V197.53C13.0547 193.661 16.2 190.515 20.069 190.515H79.7607C80.6236 190.515 81.3334 191.225 81.3334 192.088C81.3334 192.951 80.6236 193.661 79.7607 193.661H52.3156C50.4785 193.661 48.9894 195.15 48.9894 196.987V199.033C48.9894 200.87 50.4785 202.359 52.3156 202.359H79.7607C80.6236 202.359 81.3334 203.069 81.3334 203.932C81.3334 204.809 80.6236 205.504 79.7607 205.504ZM20.069 191.142C16.534 191.142 13.6671 194.009 13.6671 197.544V198.504C13.6671 202.039 16.534 204.906 20.069 204.906H79.7607C80.2896 204.906 80.721 204.475 80.721 203.946C80.721 203.417 80.2896 202.985 79.7607 202.985H52.3156C50.1445 202.985 48.3631 201.218 48.3631 199.033V196.987C48.3631 194.816 50.1306 193.034 52.3156 193.034H79.7607C80.2896 193.034 80.721 192.603 80.721 192.074C80.721 191.545 80.2896 191.114 79.7607 191.114H20.069V191.142Z" fill="#1E3050"/>
<path d="M77.9793 197.892H59.8728C59.7058 197.892 59.5667 197.752 59.5667 197.585C59.5667 197.418 59.7058 197.279 59.8728 197.279H77.9793C78.1464 197.279 78.2855 197.418 78.2855 197.585C78.2855 197.752 78.1464 197.892 77.9793 197.892Z" fill="#1E3050"/>
<path d="M78.0906 200.62H63.3799C63.2129 200.62 63.0737 200.48 63.0737 200.313C63.0737 200.146 63.2129 200.007 63.3799 200.007H78.0906C78.2576 200.007 78.3968 200.146 78.3968 200.313C78.3968 200.48 78.2715 200.62 78.0906 200.62Z" fill="#1E3050"/>
<path d="M81.4726 220.048H27.5566V206.841H81.4726C79.886 211.308 79.8442 215.706 81.4726 220.048Z" fill="white"/>
<path d="M81.4724 220.368H27.5564C27.3894 220.368 27.2502 220.229 27.2502 220.062V206.854C27.2502 206.687 27.3894 206.548 27.5564 206.548H81.4724C81.5698 206.548 81.6672 206.59 81.7229 206.673C81.7786 206.757 81.7925 206.854 81.7647 206.952C80.1781 211.377 80.1781 215.747 81.7647 219.95C81.8064 220.048 81.7925 220.145 81.7229 220.229C81.6672 220.312 81.5698 220.368 81.4724 220.368ZM27.8765 219.742H81.0409C79.6075 215.664 79.6075 211.433 81.0549 207.146H27.8904V219.742H27.8765Z" fill="#1E3050"/>
<path d="M34.0558 207.495H81.8481C82.4187 207.495 82.8919 207.035 82.8919 206.451C82.8919 205.88 82.4326 205.407 81.8481 205.407H19.8322C17.3132 205.407 15.2534 207.453 15.2534 209.986V217.181C15.2534 219.7 17.2993 221.76 19.8322 221.76H81.8481C82.4187 221.76 82.8919 221.301 82.8919 220.716C82.8919 220.146 82.4326 219.672 81.8481 219.672H34.0558C32.2744 219.672 30.827 218.225 30.827 216.444V210.737C30.827 208.942 32.2744 207.495 34.0558 207.495Z" fill="white"/>
<path d="M81.8481 222.066H19.8323C17.1462 222.066 14.9473 219.881 14.9473 217.181V209.985C14.9473 207.299 17.1323 205.1 19.8323 205.1H81.8481C82.5858 205.1 83.1981 205.699 83.1981 206.45C83.1981 207.188 82.5997 207.8 81.8481 207.8H34.0558C32.4414 207.8 31.1332 209.109 31.1332 210.723V216.429C31.1332 218.044 32.4414 219.352 34.0558 219.352H81.8481C82.5858 219.352 83.1981 219.95 83.1981 220.702C83.1981 221.453 82.5858 222.066 81.8481 222.066ZM19.8323 205.727C17.4802 205.727 15.5735 207.633 15.5735 209.985V217.181C15.5735 219.533 17.4802 221.439 19.8323 221.439H81.8481C82.2517 221.439 82.5858 221.105 82.5858 220.702C82.5858 220.298 82.2517 219.964 81.8481 219.964H34.0558C32.1074 219.964 30.5208 218.378 30.5208 216.429V210.723C30.5208 208.775 32.1074 207.188 34.0558 207.188H81.8481C82.2517 207.188 82.5858 206.854 82.5858 206.45C82.5858 206.047 82.2517 205.713 81.8481 205.713H19.8323V205.727Z" fill="#1E3050"/>
<path d="M80.526 210.292H72.5652C72.3982 210.292 72.259 210.153 72.259 209.986C72.259 209.819 72.3982 209.679 72.5652 209.679H80.526C80.693 209.679 80.8321 209.819 80.8321 209.986C80.8321 210.153 80.693 210.292 80.526 210.292Z" fill="#1E3050"/>
<path d="M80.345 212.059H55.8364C55.6694 212.059 55.5303 211.92 55.5303 211.753C55.5303 211.586 55.6694 211.447 55.8364 211.447H80.3589C80.5259 211.447 80.6651 211.586 80.6651 211.753C80.6651 211.92 80.5259 212.059 80.345 212.059Z" fill="#1E3050"/>
<path d="M80.3451 215.734H59.2603C59.0933 215.734 58.9541 215.594 58.9541 215.427C58.9541 215.26 59.0933 215.121 59.2603 215.121H80.359C80.5261 215.121 80.6652 215.26 80.6652 215.427C80.6652 215.594 80.5261 215.734 80.3451 215.734Z" fill="#1E3050"/>
<path d="M15.4624 235.232C17.1464 231.753 17.3134 228.245 15.4624 224.71L16.7846 223.124L53.1229 224.321L51.8703 235.858L16.701 236.262L15.4624 235.232Z" fill="white"/>
<path d="M16.701 236.568C16.6314 236.568 16.5619 236.54 16.5062 236.499L15.2675 235.469C15.1562 235.371 15.1284 235.218 15.184 235.093C16.9237 231.516 16.9237 228.162 15.184 224.85C15.1284 224.738 15.1423 224.599 15.2258 224.516L16.5479 222.929C16.6036 222.859 16.701 222.818 16.7985 222.818L53.1367 224.015C53.2202 224.015 53.3038 224.056 53.3594 224.126C53.4151 224.196 53.4429 224.279 53.429 224.363L52.1764 235.9C52.1625 236.053 52.0233 236.178 51.8703 236.178L16.701 236.568ZM15.8521 235.149L16.8263 235.956L51.6197 235.552L52.8027 224.613L16.9515 223.43L15.8521 224.752C17.5082 228.078 17.5222 231.572 15.8521 235.149Z" fill="#1E3050"/>
<path d="M82.2382 221.843H34.3485H14.7946C14.0013 221.843 13.3611 222.483 13.3611 223.277C13.3611 224.07 14.0013 224.71 14.7946 224.71H45.8025C48.071 224.71 49.9081 226.547 49.9081 228.816V231.126C49.9081 233.395 48.071 235.232 45.8025 235.232H14.7946C14.0013 235.232 13.3611 235.872 13.3611 236.665C13.3611 237.459 14.0013 238.099 14.7946 238.099H82.2382C86.4274 238.099 89.8232 234.703 89.8232 230.514V229.428C89.8093 225.239 86.4274 221.843 82.2382 221.843Z" fill="white"/>
<path d="M82.2383 238.391H14.7946C13.8343 238.391 13.0549 237.612 13.0549 236.651C13.0549 235.691 13.8343 234.912 14.7946 234.912H45.8025C47.9041 234.912 49.602 233.2 49.602 231.112V228.802C49.602 226.701 47.8901 225.003 45.8025 225.003H14.7946C13.8343 225.003 13.0549 224.223 13.0549 223.263C13.0549 222.303 13.8343 221.523 14.7946 221.523H82.2383C86.5944 221.523 90.1294 225.058 90.1294 229.414V230.5C90.1294 234.856 86.5805 238.391 82.2383 238.391ZM14.7946 235.538C14.1822 235.538 13.6812 236.039 13.6812 236.651C13.6812 237.264 14.1822 237.765 14.7946 237.765H82.2383C86.2465 237.765 89.5171 234.508 89.5171 230.486V229.401C89.5171 225.392 86.2604 222.122 82.2383 222.122H14.7946C14.1822 222.122 13.6812 222.623 13.6812 223.235C13.6812 223.847 14.1822 224.348 14.7946 224.348H45.8025C48.2381 224.348 50.2283 226.325 50.2283 228.774V231.085C50.2283 233.52 48.252 235.51 45.8025 235.51H14.7946V235.538Z" fill="#1E3050"/>
<path d="M33.4299 229.79H16.7986C16.6316 229.79 16.4924 229.651 16.4924 229.484C16.4924 229.317 16.6316 229.178 16.7986 229.178H33.4299C33.5969 229.178 33.7361 229.317 33.7361 229.484C33.7361 229.651 33.5969 229.79 33.4299 229.79Z" fill="#1E3050"/>
<path d="M36.9928 232.866H16.6734C16.5064 232.866 16.3672 232.727 16.3672 232.56C16.3672 232.393 16.5064 232.254 16.6734 232.254H37.0067C37.1737 232.254 37.3129 232.393 37.3129 232.56C37.3129 232.727 37.1737 232.866 36.9928 232.866Z" fill="#1E3050"/>
<path d="M9.49175 47.8617L21.753 59.7054C22.8803 60.7909 24.6895 60.7492 25.7612 59.6079C29.4632 55.6136 38.2451 47.0266 49.2537 42.1834C50.8403 41.4875 51.4387 39.5391 50.4924 38.0777L39.5951 21.3212C38.7739 20.0686 37.1178 19.665 35.8234 20.4305C31.6761 22.8521 22.3653 29.3098 9.33866 43.9787C8.33661 45.106 8.4062 46.8179 9.49175 47.8617Z" fill="white"/>
<path d="M23.6875 60.8048C22.8803 60.8048 22.1149 60.4986 21.5164 59.928L9.25519 48.0843C8.04438 46.9152 7.97479 45.0224 9.08818 43.7699C22.0174 29.2262 31.2725 22.7407 35.6426 20.166C37.076 19.317 38.9131 19.7485 39.8317 21.1541L50.729 37.9107C51.23 38.6761 51.3692 39.6225 51.1048 40.4993C50.8403 41.3761 50.2141 42.0998 49.3651 42.4616C38.2451 47.3466 29.2962 56.2259 25.97 59.8166C25.3994 60.429 24.62 60.7908 23.771 60.8048C23.7571 60.8048 23.7154 60.8048 23.6875 60.8048ZM9.70055 47.6389L21.9618 59.4826C22.4489 59.9558 23.0891 60.2063 23.771 60.1785C24.4391 60.1646 25.0653 59.8723 25.5246 59.3852C28.8787 55.7667 37.8972 46.8178 49.1285 41.891C49.8105 41.5988 50.3115 41.0142 50.5202 40.3044C50.729 39.6086 50.6177 38.8431 50.2141 38.2308L39.3167 21.4742C38.5791 20.3469 37.1039 19.999 35.9627 20.6809C31.6204 23.2417 22.421 29.6994 9.57529 44.1735C8.67066 45.1894 8.72633 46.7064 9.70055 47.6389Z" fill="#1E3050"/>
<path d="M1.26674 63.3103L13.528 75.154C14.6553 76.2395 16.4645 76.1978 17.5362 75.0565C21.2382 71.0623 30.0201 62.4752 41.0287 57.632C42.6153 56.9361 43.2137 54.9877 42.2674 53.5263L31.37 36.7698C30.5489 35.5173 28.8928 35.1136 27.5984 35.8791C23.4789 38.3146 14.1542 44.7584 1.12757 59.4273C0.125516 60.5546 0.181186 62.2665 1.26674 63.3103Z" fill="white"/>
<path d="M15.4763 76.2533C14.6691 76.2533 13.9037 75.9471 13.3052 75.3765L1.04401 63.5328C-0.166806 62.3637 -0.236391 60.471 0.877 59.2184C13.8063 44.6747 23.0613 38.1892 27.4314 35.6145C28.8649 34.7656 30.702 35.197 31.6205 36.6027L42.5178 53.3592C43.0189 54.1247 43.158 55.071 42.8936 55.9478C42.6292 56.8246 42.0029 57.5483 41.1539 57.9102C30.0339 62.7952 21.085 71.6745 17.7588 75.2652C17.1882 75.8775 16.4088 76.2394 15.5598 76.2533C15.532 76.2533 15.5042 76.2533 15.4763 76.2533ZM1.48936 63.0874L13.7506 74.9311C14.2377 75.4043 14.8779 75.6549 15.5598 75.627C16.2279 75.6131 16.8542 75.3208 17.3134 74.8337C20.6675 71.2152 29.686 62.2663 40.9173 57.3396C41.5993 57.0473 42.1003 56.4628 42.3091 55.753C42.5178 55.0571 42.4065 54.2917 42.0029 53.6793L31.1056 36.9228C30.3679 35.7955 28.8927 35.4475 27.7515 36.1295C23.4092 38.6903 14.2099 45.134 1.36411 59.622C0.459479 60.638 0.515147 62.155 1.48936 63.0874Z" fill="#1E3050"/>
<path d="M3.85511 62.2666C3.70202 62.2666 3.57676 62.1553 3.54893 62.0022C3.52109 61.8352 3.63243 61.6821 3.81335 61.6542L18.8859 59.3857C21.5441 58.9821 23.7291 57.1589 24.5642 54.6259L29.5744 39.5952C29.6301 39.4282 29.7971 39.3447 29.9641 39.4003C30.1311 39.456 30.2146 39.623 30.159 39.79L25.1487 54.8208C24.2302 57.5764 21.8642 59.5527 18.9694 59.9981L3.89686 62.2666C3.88294 62.2666 3.86903 62.2666 3.85511 62.2666Z" fill="#1E3050"/>
<path d="M191.99 83.0036C191.949 83.0036 191.907 82.9896 191.879 82.9757C190.696 82.5025 189.416 81.7371 189.36 81.6953C189.221 81.6118 189.165 81.417 189.249 81.2778C189.332 81.1386 189.527 81.083 189.666 81.1665C189.68 81.1804 190.961 81.9458 192.102 82.4051C192.255 82.4747 192.338 82.6417 192.269 82.8087C192.227 82.934 192.116 83.0036 191.99 83.0036Z" fill="#1E3050"/>
<path d="M203.765 100.943L208.455 103.629C208.844 103.852 209.332 103.713 209.554 103.323L224.028 77.8127C224.279 77.3812 224.126 76.8245 223.694 76.574L211.809 69.7823L203.765 100.943Z" fill="white"/>
<path d="M203.765 100.943L208.455 103.629C208.677 103.755 208.942 103.769 209.165 103.671C209.165 103.671 209.54 103.504 209.958 102.767C210.32 102.14 223.931 77.9936 223.931 77.9936C224.237 77.4647 224.084 76.908 223.653 76.6575L211.767 69.8658L203.765 100.943Z" fill="white"/>
<path d="M208.844 104.047C208.649 104.047 208.469 103.991 208.288 103.894L203.597 101.208C203.444 101.124 203.403 100.929 203.486 100.79C203.57 100.637 203.764 100.595 203.904 100.679L208.594 103.365C208.733 103.448 208.886 103.448 209.039 103.393C209.039 103.393 209.345 103.226 209.679 102.627C210.027 102.001 223.513 78.0909 223.652 77.8543C223.861 77.4924 223.792 77.1166 223.485 76.9496L211.6 70.1579C211.447 70.0744 211.405 69.8796 211.489 69.7404C211.572 69.5873 211.767 69.5456 211.906 69.6291L223.792 76.4208C224.39 76.7687 224.557 77.5202 224.195 78.1744C224.056 78.4109 210.584 102.335 210.222 102.947C209.763 103.741 209.331 103.949 209.29 103.977C209.15 104.005 208.997 104.047 208.844 104.047Z" fill="#1E3050"/>
<path d="M216.819 85.9677L202.93 102.07C202.735 102.293 202.415 102.348 202.15 102.209L174.761 86.5383C174.413 86.3434 174.343 85.8842 174.594 85.578L195.665 61.1669C195.86 60.9442 196.18 60.8885 196.444 61.0277L223.834 76.6987C224.182 76.8935 224.251 77.3528 224.001 77.659L218.225 84.3533L216.819 85.9677Z" fill="white"/>
<path d="M202.443 102.599C202.289 102.599 202.122 102.558 201.983 102.474L174.594 86.8031C174.357 86.664 174.19 86.4274 174.135 86.149C174.093 85.8707 174.162 85.5923 174.343 85.3836L195.414 60.9725C195.706 60.6385 196.194 60.555 196.583 60.7776L223.973 76.4486C224.209 76.5878 224.376 76.8244 224.432 77.1027C224.474 77.3811 224.404 77.6594 224.223 77.8682L218.448 84.5624C218.336 84.6877 218.141 84.7016 218.016 84.5903C217.891 84.4789 217.877 84.2841 217.988 84.1588L223.764 77.4646C223.82 77.395 223.847 77.2976 223.834 77.2001C223.82 77.1445 223.792 77.0471 223.68 76.9775L196.291 61.3065C196.166 61.2369 195.999 61.2647 195.901 61.3761L174.817 85.7872C174.761 85.8568 174.733 85.9542 174.747 86.0516C174.761 86.1073 174.789 86.2047 174.9 86.2743L202.289 101.945C202.415 102.015 202.582 101.987 202.679 101.876L216.569 85.7733C216.68 85.648 216.875 85.6341 217 85.7454C217.125 85.8568 217.139 86.0516 217.028 86.1769L203.138 102.279C202.971 102.488 202.707 102.599 202.443 102.599Z" fill="#1E3050"/>
<path d="M197.792 100.247C197.765 100.247 197.738 100.261 197.71 100.261L197.792 100.247Z" fill="#1E3050"/>
<path d="M191.197 69.8934L196.416 72.8717L192.658 77.2417L187.425 74.2634L191.197 69.8934Z" fill="white"/>
<path d="M192.659 77.5477C192.603 77.5477 192.547 77.5338 192.506 77.506L187.287 74.5137C187.203 74.472 187.147 74.3885 187.133 74.305C187.12 74.2076 187.147 74.124 187.203 74.0545L190.975 69.6844C191.072 69.5731 191.239 69.5452 191.364 69.6148L196.583 72.6071C196.667 72.6488 196.723 72.7323 196.736 72.8158C196.75 72.9132 196.723 72.9967 196.667 73.0663L192.895 77.4364C192.826 77.5199 192.742 77.5477 192.659 77.5477ZM187.913 74.1797L192.589 76.8519L195.943 72.955L191.267 70.2828L187.913 74.1797Z" fill="#1E3050"/>
<path d="M186.604 75.2097L191.823 78.188L188.052 82.5581L182.833 79.5658L186.604 75.2097Z" fill="white"/>
<path d="M188.052 82.8644C187.996 82.8644 187.941 82.8505 187.899 82.8227L182.68 79.8304C182.596 79.7887 182.541 79.7052 182.527 79.6217C182.513 79.5243 182.541 79.4408 182.596 79.3712L186.368 75.0011C186.465 74.8898 186.632 74.8619 186.758 74.9315L191.977 77.9238C192.06 77.9655 192.116 78.049 192.13 78.1325C192.144 78.2299 192.116 78.3134 192.06 78.383L188.289 82.7531C188.233 82.8227 188.135 82.8644 188.052 82.8644ZM183.306 79.4825L187.982 82.1546L191.336 78.2578L186.66 75.5856L183.306 79.4825Z" fill="#1E3050"/>
<path d="M197.488 73.484L202.707 76.4762L198.935 80.8324L193.716 77.8541L197.488 73.484Z" fill="white"/>
<path d="M198.935 81.1385C198.88 81.1385 198.824 81.1245 198.782 81.0967L193.563 78.1045C193.48 78.0627 193.424 77.9792 193.41 77.8957C193.396 77.7983 193.424 77.7148 193.48 77.6452L197.251 73.2751C197.349 73.1638 197.516 73.136 197.641 73.2055L202.86 76.1978C202.943 76.2395 202.999 76.323 203.013 76.4065C203.027 76.504 202.999 76.5875 202.943 76.6571L199.172 81.0271C199.102 81.1106 199.019 81.1385 198.935 81.1385ZM194.189 77.7704L198.866 80.4426L202.22 76.5457L197.544 73.8736L194.189 77.7704Z" fill="#1E3050"/>
<path d="M192.881 78.7999L198.1 81.7782L194.329 86.1483L189.11 83.1561L192.881 78.7999Z" fill="white"/>
<path d="M194.329 86.4552C194.273 86.4552 194.217 86.4412 194.176 86.4134L188.957 83.4212C188.873 83.3794 188.818 83.2959 188.804 83.2124C188.79 83.115 188.818 83.0315 188.873 82.9619L192.645 78.5918C192.742 78.4805 192.909 78.4527 193.034 78.5223L198.254 81.5145C198.337 81.5562 198.393 81.6397 198.407 81.7233C198.421 81.8207 198.393 81.9042 198.337 81.9738L194.565 86.3438C194.51 86.4134 194.426 86.4552 194.329 86.4552ZM189.597 83.0732L194.273 85.7454L197.627 81.8485L192.951 79.1764L189.597 83.0732Z" fill="#1E3050"/>
<path d="M203.765 77.0746L208.984 80.0668L205.212 84.4229L199.993 81.4446L203.765 77.0746Z" fill="white"/>
<path d="M205.212 84.7288C205.156 84.7288 205.101 84.7149 205.059 84.687L199.84 81.6948C199.756 81.653 199.701 81.5695 199.687 81.486C199.673 81.3886 199.701 81.3051 199.756 81.2355L203.528 76.8655C203.625 76.7541 203.792 76.7263 203.918 76.7959L209.137 79.7881C209.22 79.8299 209.276 79.9134 209.29 79.9969C209.304 80.0943 209.276 80.1778 209.22 80.2474L205.448 84.6174C205.379 84.7009 205.295 84.7288 205.212 84.7288ZM200.466 81.3608L205.142 84.0329L208.496 80.136L203.82 77.4639L200.466 81.3608Z" fill="#1E3050"/>
<path d="M199.158 82.3908L204.377 85.3692L200.619 89.7392L195.386 86.747L199.158 82.3908Z" fill="white"/>
<path d="M200.619 90.0457C200.564 90.0457 200.508 90.0318 200.466 90.0039L195.247 87.0117C195.164 86.9699 195.108 86.8864 195.094 86.8029C195.08 86.7055 195.108 86.622 195.164 86.5524L198.935 82.1824C199.033 82.071 199.2 82.0432 199.325 82.1128L204.544 85.105C204.628 85.1468 204.683 85.2303 204.697 85.3138C204.711 85.4112 204.683 85.4947 204.628 85.5643L200.856 89.9343C200.786 90.0039 200.703 90.0457 200.619 90.0457ZM195.874 86.6777L200.55 89.3498L203.904 85.4529L199.228 82.7808L195.874 86.6777Z" fill="#1E3050"/>
<path d="M210.041 80.665L215.26 83.6572L211.489 88.0134L206.27 85.035L210.041 80.665Z" fill="white"/>
<path d="M211.489 88.3339C211.433 88.3339 211.377 88.32 211.336 88.2921L206.117 85.2999C206.033 85.2581 205.977 85.1746 205.964 85.0911C205.95 84.9937 205.977 84.9102 206.033 84.8406L209.805 80.4706C209.902 80.3592 210.069 80.3314 210.194 80.401L215.413 83.3932C215.497 83.435 215.553 83.5185 215.567 83.602C215.58 83.6994 215.553 83.7829 215.497 83.8525L211.725 88.2225C211.67 88.2921 211.572 88.3339 211.489 88.3339ZM206.743 84.952L211.419 87.6241L214.773 83.7272L210.097 81.0551L206.743 84.952Z" fill="#1E3050"/>
<path d="M205.449 85.9817L210.668 88.96L206.896 93.3301L201.677 90.3379L205.449 85.9817Z" fill="white"/>
<path d="M206.896 93.6362C206.841 93.6362 206.785 93.6223 206.743 93.5944L201.524 90.6022C201.441 90.5605 201.385 90.4769 201.371 90.3934C201.357 90.296 201.385 90.2125 201.441 90.1429L205.212 85.7729C205.31 85.6615 205.477 85.6337 205.602 85.7033L210.821 88.6955C210.904 88.7373 210.96 88.8208 210.974 88.9043C210.988 89.0017 210.96 89.0852 210.904 89.1548L207.133 93.5249C207.063 93.5944 206.98 93.6362 206.896 93.6362ZM202.15 90.2682L206.827 92.9403L210.181 89.0435L205.504 86.3713L202.15 90.2682Z" fill="#1E3050"/>
<path d="M198.685 65.5925C198.629 65.5925 198.573 65.5785 198.532 65.5507C197.098 64.7296 196.611 62.9064 197.418 61.459C197.808 60.7631 198.462 60.2621 199.227 60.0533C199.993 59.8446 200.8 59.942 201.482 60.3456C201.538 60.3734 201.593 60.4013 201.635 60.443C201.774 60.5405 201.816 60.7214 201.719 60.8745C201.621 61.0137 201.44 61.0554 201.287 60.958C201.245 60.9301 201.204 60.9023 201.162 60.8884C200.619 60.5822 199.979 60.4987 199.367 60.6657C198.754 60.8327 198.239 61.2363 197.933 61.793C197.279 62.9342 197.683 64.3956 198.81 65.0358C198.963 65.1193 199.005 65.3141 198.921 65.4533C198.893 65.5368 198.796 65.5925 198.685 65.5925Z" fill="#1E3050"/>
<path d="M202.206 67.597C202.15 67.597 202.094 67.583 202.053 67.5552C200.619 66.7341 200.132 64.9109 200.939 63.4635C201.329 62.7676 201.983 62.2666 202.748 62.0578C203.514 61.8491 204.321 61.9465 205.003 62.3501C205.059 62.3779 205.114 62.4058 205.156 62.4475C205.295 62.5449 205.337 62.7259 205.24 62.879C205.142 63.0181 204.961 63.0599 204.808 62.9625C204.766 62.9346 204.725 62.9068 204.683 62.8929C204.14 62.5867 203.5 62.5032 202.888 62.6702C202.275 62.8372 201.76 63.2408 201.454 63.7975C200.8 64.9387 201.204 66.4001 202.331 67.0403C202.484 67.1238 202.526 67.3186 202.442 67.4578C202.414 67.5413 202.303 67.597 202.206 67.597Z" fill="#1E3050"/>
<path d="M205.713 69.6147C205.658 69.6147 205.602 69.6008 205.56 69.573C204.127 68.7519 203.639 66.9287 204.447 65.4813C204.836 64.7854 205.491 64.2844 206.256 64.0756C207.021 63.8669 207.829 63.9643 208.511 64.3679C208.566 64.3957 208.622 64.4236 208.664 64.4653C208.803 64.5627 208.845 64.7437 208.747 64.8967C208.65 65.0359 208.469 65.0777 208.316 64.9803C208.274 64.9524 208.232 64.9246 208.19 64.9107C207.648 64.6045 207.008 64.521 206.395 64.688C205.783 64.855 205.268 65.2586 204.962 65.8153C204.308 66.9565 204.711 68.4178 205.838 69.058C205.992 69.1416 206.033 69.3364 205.95 69.4756C205.936 69.5591 205.825 69.6147 205.713 69.6147Z" fill="#1E3050"/>
<path d="M209.234 71.619C209.179 71.619 209.123 71.605 209.081 71.5772C207.648 70.7561 207.16 68.9329 207.968 67.4855C208.357 66.7896 209.012 66.2886 209.777 66.0798C210.542 65.8711 211.35 65.9685 212.032 66.3721C212.087 66.3999 212.143 66.4278 212.185 66.4695C212.324 66.5669 212.366 66.7479 212.268 66.901C212.171 67.0401 211.99 67.0819 211.837 66.9845C211.795 66.9566 211.753 66.9288 211.711 66.9149C211.169 66.6087 210.528 66.5252 209.916 66.6922C209.304 66.8592 208.789 67.2628 208.483 67.8195C207.829 68.9607 208.232 70.4221 209.359 71.0623C209.513 71.1458 209.554 71.3406 209.471 71.4798C209.443 71.5633 209.346 71.619 209.234 71.619Z" fill="#1E3050"/>
<path d="M212.755 73.637C212.699 73.637 212.644 73.623 212.602 73.5952C211.168 72.7741 210.681 70.9509 211.488 69.5035C211.878 68.8076 212.532 68.3066 213.298 68.0978C214.063 67.8891 214.87 67.9865 215.552 68.3901C215.608 68.4179 215.664 68.4458 215.705 68.4875C215.845 68.5849 215.886 68.7659 215.789 68.919C215.692 69.0581 215.511 69.0999 215.357 69.0025C215.316 68.9746 215.274 68.9468 215.232 68.9329C214.689 68.6267 214.049 68.5432 213.437 68.7102C212.825 68.8772 212.31 69.2808 212.003 69.8375C211.349 70.9787 211.753 72.4401 212.88 73.0803C213.033 73.1638 213.075 73.3586 212.992 73.4978C212.964 73.5813 212.852 73.637 212.755 73.637Z" fill="#1E3050"/>
<path d="M216.262 75.6408C216.207 75.6408 216.151 75.6269 216.109 75.599C214.676 74.7779 214.189 72.9547 214.996 71.5073C215.385 70.8114 216.04 70.3104 216.805 70.1017C217.57 69.8929 218.378 69.9903 219.06 70.3939C219.115 70.4218 219.171 70.4496 219.213 70.4913C219.352 70.5888 219.394 70.7697 219.296 70.9228C219.199 71.062 219.018 71.1037 218.865 71.0063C218.823 70.9785 218.781 70.9506 218.74 70.9367C218.197 70.6305 217.557 70.547 216.944 70.714C216.332 70.881 215.817 71.2846 215.511 71.8413C214.857 72.9826 215.26 74.4439 216.388 75.0841C216.541 75.1676 216.582 75.3624 216.499 75.5016C216.471 75.5851 216.374 75.6408 216.262 75.6408Z" fill="#1E3050"/>
<path d="M219.588 77.5341C219.533 77.5341 219.477 77.5202 219.435 77.4924C218.002 76.6712 217.515 74.8481 218.322 73.4007C218.712 72.7048 219.366 72.2038 220.131 71.995C220.897 71.7862 221.704 71.8837 222.386 72.2873C223.29 72.8022 223.847 73.7347 223.889 74.7785C223.889 74.9455 223.764 75.0847 223.597 75.0986C223.416 75.1125 223.29 74.9733 223.277 74.8063C223.249 73.9713 222.803 73.2336 222.08 72.83C221.537 72.5239 220.897 72.4404 220.284 72.6074C219.672 72.7744 219.157 73.178 218.851 73.7347C218.197 74.8759 218.6 76.3372 219.728 76.9774C219.881 77.0609 219.922 77.2558 219.839 77.3949C219.797 77.4784 219.686 77.5341 219.588 77.5341Z" fill="#1E3050"/>
<path d="M81.3608 230.528C81.3608 230.528 70.7001 207.161 76.8098 176.877C76.8098 176.877 93.3298 190.724 87.3731 230.528H81.3608Z" fill="white"/>
<path d="M87.3872 230.848H81.361C81.2357 230.848 81.1244 230.778 81.0827 230.667C80.9713 230.43 70.4498 206.868 76.5178 176.834C76.5456 176.723 76.6152 176.639 76.7126 176.598C76.81 176.556 76.9353 176.584 77.0188 176.653C77.1858 176.793 81.2497 180.258 84.6177 188.678C87.7212 196.416 90.7692 209.958 87.6795 230.597C87.6656 230.736 87.5403 230.848 87.3872 230.848ZM81.5698 230.221H87.1228C90.115 209.902 87.1228 196.569 84.0749 188.942C81.361 182.151 78.1322 178.574 77.0188 177.488C71.4936 205.685 80.6095 228.009 81.5698 230.221Z" fill="#1E3050"/>
<path d="M83.9774 228.412H83.9635C83.7965 228.398 83.6573 228.259 83.6713 228.092C84.4924 213.159 77.7564 181.274 77.6868 180.954C77.645 180.787 77.7564 180.62 77.9234 180.592C78.0904 180.55 78.2574 180.662 78.2852 180.829C78.3548 181.149 85.1048 213.117 84.2836 228.134C84.2697 228.273 84.1305 228.412 83.9774 228.412Z" fill="#1E3050"/>
<path d="M93.7195 192.659C93.7195 192.659 79.983 217.473 88.2499 228.204H92.6617C92.6617 228.204 101.485 208.817 93.7195 192.659Z" fill="white"/>
<path d="M92.662 228.51H88.2502C88.1527 228.51 88.0692 228.468 87.9997 228.385C84.5064 223.848 84.3672 216.416 87.5821 206.298C89.962 198.81 93.3996 192.561 93.4414 192.492C93.497 192.394 93.6084 192.325 93.7197 192.339C93.831 192.339 93.9424 192.408 93.9841 192.52C101.736 208.622 93.0238 228.134 92.9403 228.329C92.8846 228.44 92.7872 228.51 92.662 228.51ZM88.3893 227.898H92.4532C93.3022 225.921 100.484 208.246 93.6919 193.341C91.7852 197.001 81.1941 218.253 88.3893 227.898Z" fill="#1E3050"/>
<path d="M90.3097 229.178C90.1427 229.178 90.0035 229.052 90.0035 228.885C89.5999 218.642 93.0514 196.361 93.0793 196.138C93.1071 195.971 93.2602 195.86 93.4272 195.887C93.5942 195.915 93.7056 196.068 93.6777 196.235C93.6499 196.458 90.2123 218.684 90.602 228.872C90.6159 229.025 90.4906 229.164 90.3097 229.178Z" fill="#1E3050"/>
<path d="M65.8708 201.802C65.8708 201.802 77.5754 205.797 81.8063 229.428H77.1996C77.1996 229.414 67.5966 216.443 65.8708 201.802Z" fill="white"/>
<path d="M81.8062 229.734H77.1996C77.1022 229.734 77.0047 229.693 76.9491 229.609C76.8516 229.484 67.2765 216.401 65.5507 201.844C65.5368 201.733 65.5786 201.635 65.6621 201.566C65.7456 201.496 65.8569 201.482 65.9543 201.51C66.0796 201.552 69.0022 202.582 72.4677 206.548C75.6408 210.18 79.8996 217.097 82.0985 229.372C82.1124 229.456 82.0846 229.553 82.0289 229.623C81.9872 229.693 81.8897 229.734 81.8062 229.734ZM77.3666 229.108H81.4305C77.7145 208.956 68.4455 203.361 66.2327 202.289C68.0141 215.72 76.3924 227.758 77.3666 229.108Z" fill="#1E3050"/>
<path d="M79.2871 229.067C79.134 229.067 79.0088 228.956 78.981 228.803C77.2413 218.281 69.6981 207.676 69.6285 207.579C69.5311 207.439 69.5589 207.245 69.6981 207.147C69.8372 207.05 70.0321 207.078 70.1295 207.217C70.213 207.328 77.8258 218.044 79.5933 228.705C79.6212 228.872 79.5098 229.025 79.3428 229.053C79.3289 229.067 79.3011 229.067 79.2871 229.067Z" fill="#1E3050"/>
<path d="M70.3802 227.55H99.2448L99.8989 241.203C100.052 244.543 97.3799 247.354 94.0397 247.354H77.5476C73.5812 247.354 70.3663 244.139 70.3802 240.173V227.55Z" fill="#1E3050"/>
<path d="M135.486 12.1503H127.929V97.2273H135.486V12.1503Z" fill="white"/>
<path d="M127.929 97.5332C127.762 97.5332 127.623 97.394 127.623 97.227V12.15C127.623 11.983 127.762 11.8438 127.929 11.8438C128.096 11.8438 128.235 11.983 128.235 12.15V97.227C128.235 97.4079 128.096 97.5332 127.929 97.5332Z" fill="#1E3050"/>
<path d="M135.486 97.5332C135.319 97.5332 135.179 97.394 135.179 97.227V12.15C135.179 11.983 135.319 11.8438 135.486 11.8438C135.653 11.8438 135.792 11.983 135.792 12.15V97.227C135.806 97.4079 135.667 97.5332 135.486 97.5332Z" fill="#1E3050"/>
<path d="M158.964 35.9344L189.151 44.7024L210.57 20.8758L158.964 35.9344Z" fill="white"/>
<path d="M189.151 45.0227C189.123 45.0227 189.096 45.0227 189.068 45.0088L158.881 36.2269C158.756 36.1852 158.658 36.0739 158.658 35.9347C158.658 35.7955 158.742 35.6703 158.881 35.6424L210.487 20.5977C210.612 20.556 210.765 20.6116 210.834 20.723C210.904 20.8343 210.89 20.9874 210.807 21.0988L189.388 44.9253C189.318 44.981 189.235 45.0227 189.151 45.0227ZM160.064 35.9347L189.04 44.3686L209.61 21.4884L160.064 35.9347Z" fill="#1E3050"/>
<path d="M174.009 50.0891L169.792 39.0804L203.152 25.0099L175.095 40.6253L181.413 42.4623L174.009 50.0891Z" fill="white"/>
<path d="M174.009 50.4088C173.995 50.4088 173.967 50.4088 173.954 50.4088C173.856 50.381 173.759 50.3114 173.731 50.214L169.514 39.1914C169.458 39.0383 169.528 38.8574 169.681 38.8017L203.041 24.7452C203.194 24.6756 203.361 24.7452 203.444 24.8983C203.514 25.0514 203.458 25.2184 203.319 25.3019L175.916 40.5553L181.511 42.1837C181.608 42.2115 181.692 42.295 181.719 42.4063C181.747 42.5177 181.719 42.629 181.636 42.6986L174.232 50.3393C174.162 50.3671 174.093 50.4088 174.009 50.4088ZM170.182 39.2471L174.121 49.532L180.829 42.6151L175.011 40.9172C174.886 40.8893 174.803 40.778 174.789 40.6527C174.775 40.5275 174.83 40.4162 174.942 40.3466L198.045 27.5008L170.182 39.2471Z" fill="#1E3050"/>
<path d="M174.385 47.0825C174.371 47.0825 174.357 47.0825 174.343 47.0825C174.176 47.0685 174.051 46.9154 174.079 46.7345L174.788 40.583C174.802 40.416 174.955 40.2908 175.136 40.3186C175.303 40.3325 175.429 40.4856 175.401 40.6665L174.691 46.818C174.677 46.9572 174.538 47.0825 174.385 47.0825Z" fill="#1E3050"/>
<path d="M112.23 248.704C110.17 248.704 108.068 248.648 106.022 248.537C105.855 248.523 105.716 248.384 105.73 248.217C105.744 248.05 105.883 247.911 106.05 247.925C108.096 248.036 110.17 248.092 112.23 248.092C122.863 248.092 133.37 246.603 143.474 243.652C143.641 243.61 143.808 243.694 143.85 243.861C143.892 244.028 143.808 244.195 143.641 244.237C133.481 247.201 122.918 248.704 112.23 248.704Z" fill="#1E3050"/>
<path d="M176.361 228.523C176.264 228.523 176.166 228.481 176.111 228.398C176.013 228.259 176.041 228.064 176.18 227.967C179.214 225.851 182.165 223.541 184.976 221.133C185.101 221.022 185.296 221.036 185.407 221.161C185.519 221.286 185.505 221.481 185.38 221.592C182.554 224.014 179.59 226.324 176.542 228.468C176.486 228.495 176.417 228.523 176.361 228.523Z" fill="#1E3050"/>
<path d="M76.5455 30.6599C76.4203 30.6599 76.295 30.5764 76.2533 30.4512C76.1976 30.2842 76.2811 30.1172 76.4481 30.0615C87.9439 26.1925 99.9824 24.2301 112.23 24.2301C114.248 24.2301 116.28 24.2858 118.284 24.3971C118.451 24.411 118.59 24.5502 118.576 24.7172C118.562 24.8842 118.423 25.0234 118.256 25.0095C116.266 24.8981 114.234 24.8564 112.23 24.8564C100.052 24.8564 88.0691 26.8048 76.6429 30.646C76.6012 30.646 76.5734 30.6599 76.5455 30.6599Z" fill="#1E3050"/>
<path d="M67.2629 34.2369C67.1376 34.2369 67.0263 34.1674 66.9846 34.056C66.915 33.9029 66.9846 33.722 67.1376 33.6524C68.432 33.0818 69.7541 32.5251 71.0763 32.0102C71.2294 31.9545 71.4103 32.0241 71.4799 32.1772C71.5355 32.3303 71.466 32.5112 71.3129 32.5808C70.0046 33.0957 68.6825 33.6524 67.3882 34.2091C67.3464 34.2369 67.3047 34.2369 67.2629 34.2369Z" fill="#1E3050"/>
<path d="M3.85489 108.695C3.82706 108.695 3.79922 108.695 3.77138 108.681C3.60438 108.639 3.50695 108.472 3.54871 108.305C5.78941 99.6349 9.08783 91.2288 13.3326 83.3376C13.4161 83.1845 13.5971 83.1289 13.7502 83.2124C13.9032 83.2959 13.9589 83.4768 13.8754 83.6299C9.64452 91.4793 6.37394 99.8437 4.14716 108.459C4.11932 108.598 3.99406 108.695 3.85489 108.695Z" fill="#1E3050"/>
<path d="M12.0664 186.772C11.955 186.772 11.8437 186.716 11.788 186.605C3.96646 170.961 0 154.094 0 136.46C0 128.416 0.848963 120.4 2.54688 112.606C2.58864 112.439 2.74172 112.327 2.90873 112.369C3.07574 112.411 3.18708 112.564 3.14533 112.731C1.47524 120.483 0.612364 128.458 0.612364 136.46C0.612364 153.982 4.5649 170.767 12.3447 186.326C12.4143 186.479 12.3586 186.66 12.2055 186.744C12.1499 186.758 12.1081 186.772 12.0664 186.772Z" fill="#1E3050"/>
<path d="M22.9775 87.8887C22.9218 87.8887 22.8662 87.8748 22.8244 87.8469C22.6852 87.7634 22.6296 87.5686 22.7131 87.4294C26.5543 81.0553 31.1053 75.0847 36.2547 69.6848C36.366 69.5595 36.5609 69.5595 36.6861 69.6708C36.8114 69.7822 36.8114 69.977 36.7 70.1023C31.5784 75.4605 27.0553 81.4032 23.2419 87.7356C23.1723 87.833 23.0749 87.8887 22.9775 87.8887Z" fill="#1E3050"/>
<path d="M17.5358 181.19C17.4245 181.19 17.3131 181.121 17.2575 181.01C11.3287 167.899 8.32251 153.912 8.32251 139.41C8.32251 123.127 12.0802 107.567 19.4982 93.1908C19.5817 93.0377 19.7626 92.982 19.9157 93.0516C20.0688 93.1351 20.1245 93.3161 20.0549 93.4691C12.6926 107.762 8.94879 123.211 8.94879 139.397C8.94879 153.815 11.941 167.718 17.842 180.745C17.9116 180.898 17.842 181.079 17.6889 181.149C17.6332 181.177 17.5776 181.19 17.5358 181.19Z" fill="#1E3050"/>
<path d="M170.182 229.359C170.098 229.359 170.029 229.331 169.973 229.275C169.848 229.164 169.848 228.969 169.959 228.844L171.087 227.661C171.198 227.535 171.393 227.535 171.518 227.647C171.643 227.758 171.643 227.953 171.532 228.078L170.405 229.261C170.335 229.331 170.265 229.359 170.182 229.359Z" fill="#1E3050"/>
<path d="M166.215 233.506C166.132 233.506 166.062 233.478 166.007 233.423C165.881 233.311 165.881 233.116 165.993 232.991L167.12 231.808C167.231 231.683 167.44 231.683 167.551 231.794C167.677 231.906 167.677 232.1 167.565 232.226L166.438 233.409C166.369 233.478 166.285 233.506 166.215 233.506Z" fill="#1E3050"/>
<path d="M167.329 229.428C167.245 229.428 167.176 229.4 167.106 229.345L165.951 228.217C165.826 228.092 165.826 227.897 165.951 227.786C166.076 227.661 166.271 227.661 166.382 227.786L167.537 228.913C167.663 229.038 167.663 229.233 167.537 229.345C167.482 229.4 167.398 229.428 167.329 229.428Z" fill="#1E3050"/>
<path d="M171.351 233.394C171.267 233.394 171.198 233.367 171.128 233.311L169.973 232.184C169.848 232.058 169.848 231.864 169.973 231.752C170.098 231.627 170.293 231.627 170.405 231.752L171.56 232.88C171.685 233.005 171.685 233.2 171.56 233.311C171.518 233.367 171.434 233.394 171.351 233.394Z" fill="#1E3050"/>
<path d="M217.988 115.375C217.904 115.375 217.835 115.348 217.779 115.292C217.654 115.181 217.654 114.986 217.765 114.861L218.892 113.678C219.004 113.552 219.199 113.552 219.324 113.664C219.449 113.775 219.449 113.97 219.338 114.095L218.211 115.278C218.141 115.348 218.071 115.375 217.988 115.375Z" fill="#1E3050"/>
<path d="M214.022 119.523C213.938 119.523 213.868 119.495 213.813 119.439C213.688 119.328 213.688 119.133 213.799 119.008L214.926 117.825C215.038 117.7 215.232 117.7 215.358 117.811C215.483 117.922 215.483 118.117 215.372 118.242L214.244 119.425C214.175 119.495 214.091 119.523 214.022 119.523Z" fill="#1E3050"/>
<path d="M215.135 115.445C215.051 115.445 214.982 115.417 214.912 115.362L213.757 114.234C213.632 114.109 213.632 113.914 213.757 113.803C213.882 113.678 214.077 113.678 214.188 113.803L215.344 114.93C215.469 115.056 215.469 115.25 215.344 115.362C215.288 115.417 215.204 115.445 215.135 115.445Z" fill="#1E3050"/>
<path d="M219.157 119.411C219.073 119.411 219.004 119.384 218.934 119.328L217.779 118.201C217.654 118.075 217.654 117.88 217.779 117.769C217.904 117.644 218.099 117.644 218.21 117.769L219.366 118.896C219.491 119.022 219.491 119.217 219.366 119.328C219.324 119.384 219.24 119.411 219.157 119.411Z" fill="#1E3050"/>
<path d="M93.6499 102.154C93.5664 102.154 93.4829 102.112 93.4133 102.056C92.5782 101.124 91.9937 99.9827 91.6597 98.6744C91.6179 98.5074 91.7154 98.3404 91.8824 98.2987C92.0494 98.2569 92.2164 98.3544 92.2581 98.5214C92.5643 99.7322 93.1071 100.776 93.8726 101.639C93.9839 101.764 93.97 101.959 93.8447 102.07C93.803 102.126 93.7195 102.154 93.6499 102.154ZM91.6736 95.2369H91.6597C91.4927 95.2229 91.3674 95.0838 91.3674 94.9028C91.437 93.7477 91.6458 92.4951 91.9798 91.2008C92.0216 91.0338 92.1886 90.9364 92.3556 90.9781C92.5226 91.0199 92.62 91.1869 92.5782 91.3539C92.2581 92.6204 92.0494 93.8173 91.9798 94.9446C91.9659 95.1116 91.8406 95.2369 91.6736 95.2369ZM93.455 88.0833C93.4133 88.0833 93.3715 88.0694 93.3437 88.0555C93.1906 87.9859 93.1071 87.8189 93.1767 87.6519C93.622 86.5246 94.1509 85.3833 94.7493 84.27C94.8329 84.1169 95.0138 84.0612 95.1669 84.1447C95.32 84.2282 95.3756 84.4091 95.2921 84.5622C94.7076 85.6617 94.1927 86.789 93.7473 87.8885C93.6916 88.0137 93.5664 88.0833 93.455 88.0833ZM96.8926 81.5421C96.837 81.5421 96.7674 81.5282 96.7256 81.4865C96.5865 81.3891 96.5447 81.1942 96.6421 81.055C97.2127 80.2061 97.7833 79.4406 98.3261 78.7865C98.521 78.5499 98.7297 78.3133 98.9246 78.0906C99.0359 77.9654 99.2308 77.9515 99.356 78.0628C99.4813 78.1741 99.4952 78.369 99.3838 78.4942C99.189 78.7169 98.9942 78.9396 98.7993 79.1762C98.2705 79.8164 97.7138 80.554 97.1571 81.389C97.0875 81.5004 96.99 81.5421 96.8926 81.5421ZM101.805 76.0448C101.722 76.0448 101.625 76.003 101.569 75.9334C101.458 75.8082 101.471 75.6133 101.611 75.502C102.557 74.7087 103.559 73.9572 104.617 73.2891C104.756 73.1917 104.951 73.2335 105.048 73.3866C105.146 73.5257 105.104 73.7206 104.951 73.818C103.921 74.486 102.933 75.2097 102.014 75.9891C101.945 76.0309 101.875 76.0448 101.805 76.0448ZM108.013 72.0644C107.901 72.0644 107.79 71.9948 107.734 71.8835C107.665 71.7304 107.72 71.5495 107.873 71.466C108.959 70.951 110.114 70.4639 111.325 70.0464C111.492 69.9907 111.659 70.0742 111.715 70.2412C111.77 70.4082 111.687 70.5752 111.52 70.6309C110.337 71.0484 109.21 71.5216 108.138 72.0227C108.096 72.0505 108.054 72.0644 108.013 72.0644ZM114.957 69.5871C114.818 69.5871 114.693 69.4897 114.665 69.3505C114.623 69.1835 114.721 69.0165 114.888 68.9747C116.043 68.6825 117.268 68.418 118.52 68.1954C118.687 68.1675 118.854 68.2789 118.882 68.4459C118.91 68.6129 118.799 68.7799 118.632 68.8077C117.393 69.0304 116.182 69.2809 115.041 69.5732C115.013 69.5732 114.985 69.5871 114.957 69.5871ZM122.236 68.2789C122.083 68.2789 121.944 68.1675 121.93 68.0005C121.916 67.8335 122.027 67.6804 122.194 67.6526C123.364 67.5134 124.602 67.4021 125.896 67.3186C126.063 67.3047 126.217 67.4299 126.23 67.6108C126.244 67.7918 126.119 67.9309 125.938 67.9449C124.658 68.0284 123.433 68.1536 122.264 68.2789C122.264 68.2789 122.25 68.2789 122.236 68.2789ZM148.109 67.8614C146.717 67.8474 145.395 67.8196 144.407 67.7778C144.24 67.7778 144.1 67.6248 144.114 67.4578C144.114 67.2907 144.253 67.1516 144.434 67.1655C145.423 67.1933 146.745 67.2351 148.123 67.249C148.29 67.249 148.429 67.3882 148.429 67.5552C148.415 67.7222 148.276 67.8614 148.109 67.8614ZM151.811 67.8335C151.644 67.8335 151.504 67.7083 151.504 67.5413C151.504 67.3742 151.63 67.2351 151.797 67.2212C153.119 67.1794 154.316 67.1098 155.471 67.0124C155.638 66.9985 155.791 67.1237 155.805 67.2907C155.819 67.4577 155.694 67.6108 155.527 67.6248C154.358 67.7222 153.147 67.7918 151.811 67.8335ZM129.612 67.75C129.445 67.75 129.306 67.6248 129.306 67.4578C129.306 67.2907 129.431 67.1516 129.598 67.1377C130.74 67.0959 131.951 67.0681 133.301 67.0541C133.468 67.0541 133.607 67.1933 133.607 67.3603C133.607 67.5273 133.468 67.6665 133.301 67.6665C131.978 67.6804 130.768 67.7083 129.612 67.75C129.626 67.75 129.626 67.75 129.612 67.75ZM140.718 67.6665C139.744 67.6387 138.993 67.6248 138.325 67.6248L138.269 67.3186V67.6248H137.016C136.849 67.6248 136.71 67.4856 136.71 67.3186C136.71 67.1516 136.849 67.0124 137.016 67.0124H138.269H138.325C138.993 67.0124 139.758 67.0263 140.718 67.0541C140.885 67.0541 141.025 67.1933 141.025 67.3742C141.025 67.5413 140.885 67.6665 140.718 67.6665ZM159.173 67.1516C159.02 67.1516 158.895 67.0402 158.867 66.9011C158.839 66.734 158.95 66.567 159.117 66.5392C160.398 66.3165 161.595 66.0243 162.68 65.6902C162.847 65.6346 163.014 65.732 163.07 65.899C163.125 66.066 163.028 66.233 162.861 66.2887C161.748 66.6366 160.523 66.915 159.229 67.1516C159.215 67.1516 159.187 67.1516 159.173 67.1516ZM166.187 64.8969C166.076 64.8969 165.965 64.8413 165.909 64.7299C165.825 64.5768 165.881 64.3959 166.034 64.3124C167.162 63.714 168.15 63.0181 168.971 62.2387C169.096 62.1274 169.291 62.1274 169.402 62.2526C169.514 62.3779 169.514 62.5727 169.388 62.6841C168.525 63.5052 167.482 64.2428 166.313 64.8552C166.285 64.883 166.243 64.8969 166.187 64.8969ZM171.42 59.8449C171.378 59.8449 171.323 59.831 171.281 59.8032C171.128 59.7197 171.072 59.5388 171.156 59.3857C171.699 58.3697 172.088 57.2285 172.325 55.9898C172.353 55.8228 172.52 55.7115 172.687 55.7393C172.854 55.7671 172.965 55.9341 172.937 56.1012C172.687 57.3955 172.283 58.5924 171.712 59.664C171.643 59.7893 171.532 59.8449 171.42 59.8449Z" fill="#1E3050"/>
</svg>
