<svg width="195" height="515" viewBox="0 0 195 515" fill="none" xmlns="http://www.w3.org/2000/svg">
<g opacity="0.2">
<path d="M49.4289 459.596C50.3068 460.105 51.1584 460.658 51.9784 461.257C52.1768 461.401 52.3735 461.548 52.5682 461.698C52.4483 461.606 52.687 461.792 52.7339 461.829C52.8541 461.924 52.9735 462.021 53.0922 462.118C53.472 462.429 53.844 462.749 54.2082 463.079C54.9706 463.768 55.6981 464.497 56.3881 465.259C56.7282 465.635 57.0591 466.019 57.3808 466.41C57.5368 466.6 57.6906 466.792 57.8422 466.986C57.8802 467.034 57.9179 467.082 57.9554 467.131C57.9303 467.098 57.8568 467 57.9715 467.153C58.0546 467.264 58.1384 467.374 58.2206 467.485C59.4291 469.118 60.4834 470.864 61.3695 472.692C61.5912 473.15 61.7998 473.613 62.0025 474.079C62.0797 474.256 62.0286 474.139 62.0124 474.101C62.0363 474.158 62.0598 474.215 62.0834 474.271C62.1303 474.385 62.1767 474.499 62.2224 474.614C62.3195 474.857 62.4136 475.101 62.5049 475.346C62.8589 476.298 63.1692 477.266 63.4331 478.247C63.7008 479.241 63.9209 480.249 64.0915 481.264C64.1298 481.491 64.1653 481.719 64.1984 481.947C64.2072 482.008 64.2158 482.069 64.2243 482.13C64.2467 482.288 64.2059 481.986 64.2265 482.144C64.2441 482.282 64.2613 482.419 64.2773 482.556C64.3377 483.075 64.3852 483.594 64.4193 484.115C64.4856 485.126 64.5011 486.141 64.4645 487.153C64.4462 487.66 64.4147 488.167 64.3699 488.672C64.3495 488.902 64.3264 489.131 64.3005 489.361C64.2867 489.483 64.2715 489.605 64.2566 489.727C64.2328 489.923 64.25 489.784 64.2554 489.743C64.243 489.835 64.23 489.926 64.2167 490.018C64.0058 491.464 63.6817 492.895 63.2383 494.288C63.0288 494.946 62.7928 495.596 62.5306 496.234C62.4895 496.334 62.4338 496.487 62.5092 496.288C62.4802 496.365 62.4442 496.44 62.4113 496.515C62.3415 496.675 62.2698 496.834 62.1965 496.993C62.0552 497.298 61.9076 497.601 61.7539 497.901C61.1491 499.081 60.4491 500.212 59.6646 501.281C59.5705 501.409 59.4741 501.536 59.3786 501.663C59.2804 501.794 59.4114 501.622 59.4219 501.607C59.3987 501.639 59.3731 501.67 59.3486 501.701C59.2873 501.779 59.2258 501.857 59.1639 501.935C58.9655 502.182 58.7626 502.426 58.5552 502.666C58.1218 503.167 57.669 503.652 57.1989 504.119C56.736 504.579 56.256 505.022 55.7611 505.447C55.5133 505.661 55.2617 505.869 55.0066 506.073C54.9447 506.123 54.8826 506.172 54.8203 506.221C54.7638 506.265 54.5685 506.436 54.7827 506.251C54.6558 506.361 54.5135 506.457 54.379 506.556C53.3219 507.341 52.2115 508.053 51.0614 508.694C50.4727 509.022 49.8736 509.33 49.2656 509.621C48.974 509.76 48.6802 509.895 48.3845 510.026C48.2373 510.091 48.09 510.165 47.9387 510.219C48.207 510.123 47.9582 510.211 47.891 510.239C47.7973 510.278 47.7034 510.316 47.6094 510.355C46.3599 510.86 45.081 511.293 43.7827 511.655C42.4708 512.021 41.139 512.316 39.7957 512.54C39.4582 512.596 39.1197 512.648 38.7808 512.696C38.7398 512.702 38.6986 512.707 38.6574 512.713C38.5263 512.732 38.8626 512.687 38.7311 512.703C38.6487 512.713 38.5663 512.725 38.4839 512.735C38.3086 512.757 38.1332 512.778 37.9577 512.798C37.2751 512.875 36.5905 512.934 35.905 512.976C34.5311 513.059 33.1531 513.073 31.778 513.017C31.0906 512.988 30.4038 512.942 29.7187 512.879C29.3662 512.846 29.0139 512.809 28.6623 512.767C28.4974 512.747 28.3307 512.731 28.1667 512.704C28.3817 512.74 28.2314 512.713 28.1165 512.697C28.0239 512.684 27.9312 512.671 27.8386 512.657C25.1428 512.259 22.4853 511.581 19.9397 510.605C19.6245 510.484 19.3121 510.357 18.9998 510.229C18.8457 510.166 19.0454 510.249 19.063 510.256C19.0252 510.241 18.9877 510.224 18.9503 510.208C18.8753 510.176 18.8003 510.143 18.7255 510.111C18.5666 510.041 18.4083 509.971 18.2506 509.899C17.6306 509.617 17.0193 509.316 16.418 508.995C15.2403 508.368 14.1014 507.667 13.015 506.892C12.7443 506.699 12.4774 506.5 12.2129 506.299C12.0228 506.154 12.3586 506.414 12.1711 506.266C12.1158 506.223 12.0601 506.179 12.005 506.135C11.8631 506.023 11.7222 505.908 11.5825 505.793C11.0699 505.369 10.5723 504.928 10.0912 504.469C9.13537 503.557 8.17892 502.573 7.40663 501.497C7.56958 501.724 7.41515 501.507 7.37302 501.451C7.32376 501.386 7.27482 501.321 7.22618 501.255C7.12256 501.116 7.02049 500.975 6.91965 500.833C6.72325 500.557 6.53228 500.277 6.34672 499.994C5.97204 499.421 5.62013 498.834 5.29161 498.233C4.95766 497.623 4.6482 496.999 4.36367 496.364C4.29381 496.208 4.2269 496.051 4.15875 495.894C4.26919 496.148 4.15921 495.894 4.13288 495.83C4.09199 495.731 4.05172 495.631 4.01206 495.531C3.79243 494.977 3.59201 494.416 3.41094 493.849C3.06058 492.751 2.78348 491.63 2.57283 490.497C2.49291 490.067 2.42445 489.636 2.36265 489.203C2.35599 489.156 2.33973 489.011 2.36591 489.228C2.35955 489.176 2.35258 489.124 2.34607 489.072C2.33322 488.968 2.32082 488.865 2.30905 488.761C2.28427 488.541 2.26197 488.322 2.24246 488.102C2.09469 486.441 2.09826 484.768 2.25934 483.108C2.27839 482.912 2.29961 482.715 2.32316 482.519C2.33493 482.421 2.34793 482.324 2.35985 482.226C2.37705 482.085 2.33307 482.406 2.35475 482.266C2.36404 482.205 2.37194 482.144 2.38077 482.083C2.43931 481.684 2.50684 481.286 2.58336 480.89C2.73763 480.092 2.92831 479.301 3.15429 478.52C3.37532 477.757 3.62979 477.003 3.91618 476.261C3.98542 476.082 4.05653 475.903 4.12948 475.726C4.14388 475.69 4.24548 475.448 4.19112 475.576C4.13768 475.702 4.19918 475.558 4.2125 475.527C4.23636 475.472 4.26004 475.417 4.28405 475.362C4.44746 474.988 4.61893 474.618 4.79829 474.252C5.49483 472.828 6.30878 471.463 7.22155 470.168C7.45048 469.844 7.68622 469.524 7.92661 469.208C8.0736 469.014 7.84514 469.31 7.99522 469.119C8.05486 469.043 8.11433 468.967 8.17443 468.892C8.30221 468.731 8.4314 468.572 8.56228 468.414C9.07125 467.799 9.60297 467.203 10.1552 466.626C11.2663 465.466 12.4604 464.386 13.7212 463.391C13.7979 463.33 13.875 463.27 13.9521 463.21C13.7647 463.357 13.996 463.177 14.0458 463.14C14.2212 463.006 14.3977 462.875 14.5754 462.745C14.8917 462.513 15.2119 462.287 15.5356 462.066C16.2045 461.61 16.8887 461.175 17.5862 460.764C18.2959 460.345 19.0195 459.951 19.7554 459.58C20.1182 459.398 20.484 459.221 20.8526 459.051C21.0314 458.968 21.2109 458.887 21.3909 458.807C21.4809 458.767 21.5712 458.727 21.6615 458.688C21.7067 458.668 21.7519 458.649 21.7971 458.629C21.8236 458.618 22.0182 458.535 21.8848 458.592C21.7652 458.642 22.0425 458.526 22.0753 458.513C22.1664 458.475 22.2576 458.438 22.349 458.402C22.5433 458.323 22.7381 458.247 22.9336 458.172C23.3131 458.027 23.695 457.888 24.079 457.755C24.8468 457.49 25.6234 457.251 26.4071 457.038C27.1901 456.825 27.9802 456.639 28.7759 456.48C29.1733 456.401 29.572 456.328 29.9719 456.263C30.1657 456.231 30.3598 456.201 30.554 456.173C30.6511 456.159 30.7484 456.146 30.8455 456.132C30.5847 456.169 30.9147 456.123 30.9879 456.114C32.6044 455.911 34.2357 455.824 35.8647 455.863C36.6725 455.882 37.4798 455.931 38.2836 456.012C38.4786 456.032 38.6735 456.053 38.868 456.077C38.9653 456.089 39.0626 456.101 39.1598 456.113C39.2102 456.12 39.3504 456.141 39.1196 456.108C39.1803 456.117 39.241 456.125 39.3017 456.134C39.7026 456.191 40.1022 456.257 40.5003 456.33C42.1032 456.627 43.6817 457.056 45.2128 457.616C45.5878 457.753 45.96 457.898 46.3288 458.051C46.3751 458.07 46.4212 458.089 46.4674 458.109C46.4383 458.096 46.2777 458.027 46.4423 458.099C46.5343 458.139 46.6265 458.178 46.7183 458.219C46.9023 458.3 47.0856 458.384 47.2677 458.469C48.0042 458.813 48.7244 459.19 49.4289 459.596C49.8849 459.859 50.4948 459.703 50.7616 459.246C51.0267 458.792 50.8695 458.175 50.4121 457.912C47.4429 456.202 44.1743 455.008 40.8011 454.409C37.4881 453.821 34.1044 453.753 30.7691 454.191C27.3527 454.639 24.0503 455.563 20.8819 456.915C17.7849 458.238 14.8939 459.985 12.2575 462.079C9.65734 464.144 7.35816 466.577 5.45658 469.301C3.56862 472.006 2.10846 475.031 1.21614 478.21C0.299814 481.475 -0.0121287 484.919 0.312366 488.295C0.681468 492.135 1.77793 495.888 3.63955 499.272C4.99189 501.73 6.74416 503.981 8.77911 505.91C10.7938 507.82 13.0889 509.441 15.5419 510.736C18.0326 512.051 20.6922 513.058 23.4193 513.754C26.1894 514.462 29.0466 514.862 31.9028 514.971C34.7783 515.081 37.6616 514.877 40.4972 514.389C43.2158 513.921 45.8886 513.168 48.4368 512.107C50.9885 511.046 53.4203 509.719 55.624 508.043C57.856 506.347 59.8271 504.373 61.4697 502.096C63.1151 499.815 64.3665 497.251 65.1928 494.563C66.2715 491.055 66.6279 487.31 66.334 483.656C65.9939 479.427 64.8265 475.302 62.9502 471.5C61.0946 467.74 58.5157 464.3 55.3799 461.515C53.8485 460.155 52.1836 458.939 50.4121 457.912C49.9569 457.648 49.3456 457.806 49.0795 458.261C48.8137 458.717 48.9723 459.331 49.4289 459.596Z" fill="#1E3050"/>
<path d="M31.2786 454.084C27.5456 456.663 24.489 460.099 22.1643 463.986C19.8127 467.919 18.1844 472.292 17.2247 476.767C16.2566 481.282 15.9248 485.952 16.3071 490.555C16.6768 495.008 17.6864 499.401 19.525 503.481C21.1888 507.174 23.6111 510.608 26.7964 513.139C27.2194 513.475 27.6508 513.801 28.0947 514.109C28.5146 514.4 29.1946 514.2 29.4274 513.759C29.6899 513.262 29.526 512.736 29.0779 512.425C28.8818 512.289 28.6879 512.15 28.4965 512.007C28.4356 511.962 28.1291 511.706 28.3614 511.907C28.2567 511.816 28.1423 511.735 28.0344 511.648C27.6635 511.348 27.3027 511.036 26.9527 510.712C26.2487 510.06 25.588 509.363 24.9716 508.628C24.8164 508.442 24.6641 508.255 24.5144 508.065C24.4785 508.02 24.4441 507.963 24.4024 507.922C24.5871 508.101 24.4515 507.986 24.4069 507.927C24.3211 507.815 24.2362 507.701 24.1523 507.587C23.863 507.193 23.5852 506.791 23.3187 506.381C22.7776 505.55 22.2832 504.688 21.8331 503.804C21.5949 503.336 21.3691 502.861 21.1552 502.381C21.1121 502.285 21.0695 502.188 21.0274 502.091C21.0021 502.033 20.9772 501.974 20.952 501.916C20.8624 501.708 21.0375 502.123 20.9512 501.914C20.8454 501.658 20.7411 501.401 20.6409 501.143C20.2659 500.176 19.9362 499.192 19.6486 498.196C19.3488 497.157 19.095 496.106 18.884 495.046C18.7792 494.52 18.685 493.992 18.6009 493.462C18.5586 493.195 18.5189 492.928 18.4818 492.661C18.4735 492.602 18.4235 492.378 18.4802 492.652C18.4666 492.586 18.4626 492.516 18.454 492.45C18.4368 492.316 18.4204 492.181 18.4045 492.046C18.1446 489.839 18.0547 487.612 18.1229 485.391C18.1577 484.255 18.2343 483.12 18.3515 481.989C18.3778 481.735 18.4063 481.481 18.437 481.227C18.4537 481.088 18.4709 480.95 18.4889 480.811C18.4957 480.758 18.5217 480.516 18.4908 480.793C18.5011 480.701 18.516 480.609 18.529 480.517C18.6072 479.963 18.6955 479.412 18.7936 478.862C19.1888 476.645 19.7446 474.457 20.4675 472.325C20.6525 471.779 20.8485 471.237 21.0557 470.699C21.1466 470.463 21.2397 470.228 21.3348 469.994C21.3867 469.866 21.4395 469.739 21.4924 469.612C21.584 469.391 21.4067 469.811 21.5012 469.591C21.5374 469.507 21.5734 469.423 21.6099 469.339C22.0458 468.335 22.5227 467.35 23.0419 466.387C23.5665 465.414 24.1343 464.464 24.7466 463.543C25.0443 463.096 25.3524 462.656 25.671 462.223C25.7504 462.115 25.8305 462.008 25.9112 461.901C25.9515 461.848 25.9922 461.794 26.0326 461.741C26.1736 461.556 25.8997 461.91 26.0438 461.727C26.2088 461.517 26.3745 461.307 26.5439 461.101C27.9039 459.442 29.4346 457.921 31.1237 456.598C31.1668 456.564 31.3305 456.412 31.136 456.588C31.1845 456.544 31.2421 456.507 31.2941 456.467C31.3997 456.387 31.5062 456.308 31.613 456.23C31.8269 456.073 32.0435 455.919 32.2617 455.769C32.6802 455.479 32.911 454.9 32.6111 454.434C32.343 454.018 31.7272 453.775 31.2786 454.084Z" fill="#1E3050"/>
<path d="M36.567 456.059C37.0101 456.36 37.446 456.672 37.8727 456.996C37.9209 457.032 37.9686 457.07 38.0169 457.106C38.1377 457.196 37.8335 456.961 38.0203 457.109C38.115 457.184 38.2099 457.258 38.3041 457.334C38.5104 457.499 38.7147 457.667 38.9165 457.839C39.6989 458.501 40.4468 459.204 41.1571 459.944C41.8692 460.685 42.5434 461.463 43.1777 462.272C43.2141 462.318 43.2502 462.364 43.2864 462.411C43.1295 462.209 43.2785 462.401 43.3062 462.438C43.3775 462.532 43.4483 462.626 43.5186 462.72C43.6732 462.928 43.8251 463.138 43.9745 463.35C44.2664 463.763 44.5485 464.184 44.8208 464.61C45.3658 465.465 45.8712 466.345 46.3371 467.245C46.5707 467.697 46.7944 468.153 47.0081 468.614C47.1077 468.829 47.2051 469.045 47.3006 469.262C47.3531 469.381 47.4045 469.501 47.4561 469.621C47.4793 469.674 47.5448 469.833 47.455 469.617C47.4869 469.694 47.5189 469.771 47.5505 469.847C48.3318 471.748 48.9537 473.714 49.4261 475.714C49.6676 476.737 49.87 477.768 50.0348 478.805C50.0729 479.045 50.109 479.285 50.1429 479.525C50.1508 479.58 50.2132 479.98 50.1674 479.698C50.1908 479.841 50.2049 479.987 50.2224 480.132C50.2871 480.663 50.3423 481.196 50.388 481.729C50.5676 483.825 50.6022 485.933 50.4987 488.034C50.4468 489.087 50.3602 490.139 50.2393 491.187C50.2111 491.431 50.1804 491.674 50.1494 491.918C50.1174 492.169 50.1803 491.699 50.1451 491.95C50.1383 491.999 50.1318 492.047 50.125 492.096C50.1045 492.242 50.0834 492.387 50.0618 492.533C49.9822 493.066 49.8936 493.598 49.7961 494.128C49.417 496.192 48.9034 498.23 48.2541 500.225C47.9324 501.214 47.5772 502.191 47.1881 503.155C47.143 503.267 47.0976 503.378 47.0516 503.489C47.0287 503.545 47.0049 503.6 46.9824 503.656C46.9259 503.796 47.0761 503.437 46.9826 503.655C46.8788 503.898 46.7739 504.141 46.6663 504.382C46.4517 504.862 46.2286 505.339 45.9965 505.811C45.1006 507.634 44.0725 509.393 42.9082 511.057C42.6275 511.459 42.3385 511.854 42.0424 512.244C41.7327 512.652 41.9651 513.353 42.3918 513.578C42.9059 513.85 43.3939 513.664 43.7245 513.228C46.2764 509.868 48.2296 506.082 49.6609 502.118C51.1254 498.062 52.0084 493.8 52.3521 489.502C52.6972 485.187 52.4581 480.819 51.6054 476.573C50.7786 472.457 49.3305 468.437 47.2195 464.803C45.0673 461.098 42.216 457.848 38.798 455.268C38.3899 454.959 37.9734 454.662 37.5502 454.375C37.1275 454.088 36.4521 454.28 36.2176 454.725C35.957 455.218 36.1158 455.753 36.567 456.059Z" fill="#1E3050"/>
<path d="M33.68 455.029C33.4075 462.628 33.1351 470.227 32.8626 477.826C32.5916 485.386 32.3205 492.946 32.0495 500.506C31.8966 504.77 31.7437 509.035 31.5908 513.299C31.5726 513.81 32.0519 514.298 32.5649 514.275C33.1083 514.25 33.5194 513.846 33.539 513.299C33.8115 505.701 34.0839 498.102 34.3564 490.503C34.6275 482.943 34.8985 475.383 35.1696 467.823C35.3224 463.559 35.4753 459.294 35.6282 455.029C35.6465 454.519 35.1671 454.031 34.6541 454.054C34.1107 454.079 33.6997 454.483 33.68 455.029Z" fill="#1E3050"/>
<path d="M10.3753 465.039C13.4604 466.522 16.7425 467.56 20.077 468.309C23.6438 469.11 27.2843 469.597 30.9289 469.859C34.4693 470.114 38.0275 470.15 41.5723 469.966C44.7722 469.799 47.9753 469.46 51.1228 468.851C53.5107 468.389 55.9086 467.776 58.1142 466.729C58.3196 466.632 58.5224 466.529 58.7225 466.421C59.1713 466.178 59.3502 465.519 59.0719 465.087C58.7781 464.631 58.2194 464.477 57.7392 464.737C57.5393 464.845 57.3364 464.948 57.1311 465.045C57.023 465.096 56.9143 465.146 56.8051 465.195C56.7492 465.22 56.6929 465.245 56.6367 465.269C56.6139 465.279 56.5912 465.288 56.5684 465.298C56.4217 465.362 56.8034 465.201 56.6628 465.258C56.1676 465.46 55.6676 465.647 55.1599 465.815C53.9811 466.206 52.7759 466.514 51.5625 466.775C50.8801 466.922 50.1942 467.053 49.5062 467.171C49.1453 467.233 48.7839 467.291 48.422 467.346C48.237 467.374 48.0521 467.401 47.8668 467.428C47.7827 467.44 47.6985 467.452 47.6144 467.463C47.5674 467.47 47.5204 467.476 47.4734 467.483C47.2637 467.511 47.7163 467.451 47.5058 467.478C45.92 467.685 44.3282 467.841 42.7326 467.947C39.2528 468.178 35.7571 468.189 32.2753 467.995C30.4778 467.894 28.6834 467.737 26.8966 467.517C26.696 467.493 26.4956 467.467 26.2952 467.441C26.2286 467.432 26.1613 467.425 26.0951 467.414C26.1184 467.418 26.3285 467.446 26.1541 467.422C26.032 467.405 25.91 467.389 25.7879 467.371C25.3456 467.308 24.9037 467.242 24.4625 467.17C23.588 467.029 22.7161 466.872 21.848 466.696C20.1581 466.354 18.4813 465.942 16.8306 465.443C16.0453 465.206 15.2659 464.948 14.4949 464.668C14.1132 464.529 13.7334 464.385 13.3561 464.234C13.1698 464.16 12.9841 464.084 12.7988 464.007C12.7621 463.992 12.7254 463.975 12.6884 463.961C12.9565 464.064 12.7569 463.989 12.7013 463.965C12.6102 463.926 12.5191 463.887 12.4283 463.847C12.0692 463.689 11.7128 463.525 11.3591 463.355C10.9005 463.135 10.2858 463.214 10.0265 463.705C9.79584 464.141 9.8849 464.803 10.3753 465.039Z" fill="#1E3050"/>
<path d="M0.974931 486.433C9.3568 486.433 17.7388 486.433 26.1207 486.433C34.4598 486.433 42.7989 486.433 51.1382 486.433C55.8424 486.433 60.5465 486.433 65.2507 486.433C65.7601 486.433 66.2483 485.985 66.2248 485.458C66.2011 484.93 65.7968 484.483 65.2507 484.483C56.8688 484.483 48.4868 484.483 40.1049 484.483C31.7658 484.483 23.4267 484.483 15.0874 484.483C10.3832 484.483 5.67909 484.483 0.974931 484.483C0.465498 484.483 -0.0227249 484.931 0.000818384 485.458C0.0245165 485.986 0.428944 486.433 0.974931 486.433Z" fill="#1E3050"/>
<path d="M11.3585 507.393C12.6363 506.639 13.9633 505.971 15.3254 505.383C15.3554 505.37 15.6262 505.255 15.4863 505.314C15.3464 505.372 15.6183 505.259 15.6486 505.247C15.8249 505.174 16.0016 505.102 16.1788 505.032C16.5352 504.891 16.8936 504.755 17.2541 504.624C17.9715 504.363 18.6961 504.122 19.4264 503.9C20.9259 503.444 22.4491 503.067 23.986 502.761C24.761 502.607 25.5396 502.471 26.3208 502.352C26.5084 502.324 26.6961 502.296 26.8839 502.27C26.9178 502.265 27.2217 502.222 27.0721 502.243C26.928 502.263 27.0835 502.242 27.1193 502.237C27.1783 502.229 27.2372 502.222 27.2962 502.214C27.698 502.163 28.1002 502.115 28.5031 502.073C31.7167 501.733 34.9594 501.668 38.1848 501.861C38.9876 501.909 39.7896 501.973 40.5899 502.053C40.9947 502.094 41.3991 502.139 41.8029 502.188C41.9925 502.21 42.182 502.234 42.3715 502.259C42.4185 502.265 42.4661 502.273 42.5133 502.278C42.4859 502.275 42.2886 502.247 42.467 502.272C42.5851 502.288 42.7029 502.305 42.821 502.322C44.3864 502.546 45.9429 502.833 47.4842 503.187C48.9894 503.532 50.4806 503.941 51.9491 504.42C52.6771 504.657 53.3995 504.911 54.1151 505.183C54.4577 505.313 54.7986 505.448 55.138 505.587C55.2197 505.62 55.3014 505.654 55.383 505.688C55.4237 505.704 55.4643 505.722 55.5051 505.739C55.6279 505.79 55.3326 505.665 55.4549 505.717C55.6364 505.795 55.8178 505.873 55.9984 505.953C56.3269 506.098 56.6536 506.247 56.9782 506.4C57.4382 506.618 58.0504 506.544 58.3109 506.051C58.5395 505.618 58.4534 504.949 57.9615 504.716C55.1387 503.384 52.1814 502.349 49.1566 501.584C45.9736 500.78 42.7147 500.264 39.4431 500C36.1844 499.736 32.9027 499.735 29.6449 500.014C26.3915 500.292 23.1509 500.83 20.0023 501.702C17.0042 502.532 14.0708 503.666 11.3388 505.161C11.0146 505.339 10.6935 505.521 10.3754 505.709C9.93643 505.968 9.74019 506.6 10.026 507.044C10.3108 507.486 10.8887 507.67 11.3585 507.393Z" fill="#1E3050"/>
<path d="M85.4696 168.082C85.1418 165.679 84.7629 163.282 84.349 160.892C83.9609 158.651 83.5434 156.414 83.0713 154.189C82.7483 152.666 82.4283 151.126 81.9486 149.643C81.7995 149.182 81.6388 148.737 81.3381 148.354C80.2179 146.929 78.6106 146.199 76.8289 146.055C75.2761 145.931 73.7272 146.222 72.1829 146.335C70.5693 146.451 68.9587 146.614 67.3503 146.786C65.0644 147.03 62.7817 147.304 60.5019 147.6C57.8213 147.948 55.1443 148.326 52.4733 148.742C49.8067 149.157 47.1453 149.609 44.4957 150.122C42.1167 150.582 39.7439 151.088 37.4 151.705C35.5697 152.187 33.741 152.728 32.0088 153.499C31.4418 153.751 30.8778 154.033 30.3753 154.401C29.7786 154.837 29.3937 155.311 29.093 155.993C27.4847 159.641 28.2799 163.75 28.9375 167.524C29.3287 169.769 29.7578 172.008 30.2325 174.237C30.6815 176.345 31.2073 178.433 31.6975 180.531C32.0351 181.976 32.3281 183.443 32.9835 184.786C33.6713 186.196 34.837 187.269 36.3496 187.722C38.4807 188.36 40.7345 187.681 42.8795 187.469C45.1205 187.247 47.3574 186.983 49.5894 186.684C54.0886 186.08 58.5672 185.332 63.0234 184.466C67.453 183.606 71.8602 182.632 76.2487 181.582C77.3529 181.318 78.4558 181.048 79.5578 180.776C80.4114 180.564 81.2716 180.375 82.1123 180.115C82.9682 179.85 83.8262 179.514 84.5779 179.02C84.9749 178.759 85.3595 178.458 85.6848 178.11C85.7772 178.011 85.8682 177.908 85.9292 177.787C86.1562 177.336 86.1823 176.801 86.1995 176.306C86.2235 175.62 86.1892 174.932 86.1446 174.248C86.0101 172.185 85.7488 170.13 85.4696 168.082ZM79.1947 149.068C79.1752 149.116 79.1819 149.099 79.1947 149.068V149.068ZM79.2253 148.994C79.2276 148.989 79.2295 148.985 79.2306 148.983C79.2287 148.986 79.2272 148.991 79.2253 148.994ZM77.1493 147.577C77.1533 147.577 77.1574 147.577 77.1613 147.578C77.2464 147.589 77.1687 147.579 77.1493 147.577ZM60.4014 168.746C60.3687 168.754 60.3335 168.762 60.3055 168.758C60.3011 168.758 60.3758 168.749 60.4014 168.746ZM35.7097 185.324C35.7327 185.325 35.7551 185.328 35.7772 185.332C35.7551 185.328 35.7326 185.325 35.7097 185.324ZM35.8035 185.336C35.8116 185.338 35.8198 185.339 35.8278 185.341C35.8198 185.339 35.8118 185.338 35.8035 185.336ZM36.2585 185.841C36.254 185.858 36.2484 185.878 36.2406 185.901C36.2479 185.879 36.2523 185.855 36.2575 185.832C36.2574 185.831 36.2574 185.83 36.2573 185.829C36.2508 185.839 36.245 185.849 36.2366 185.861C36.2441 185.85 36.2504 185.839 36.2573 185.828C36.2568 185.822 36.2564 185.816 36.2563 185.809C36.2563 185.803 36.2568 185.799 36.2573 185.793C36.2587 185.801 36.2604 185.809 36.2615 185.816C36.2624 185.813 36.2628 185.809 36.2638 185.806C36.2653 185.801 36.2669 185.798 36.2685 185.794C36.2675 185.8 36.266 185.808 36.2642 185.816C36.2696 185.808 36.2753 185.799 36.2806 185.79C36.276 185.799 36.2706 185.808 36.2635 185.819C36.2633 185.82 36.263 185.822 36.2628 185.823C36.2716 185.879 36.2629 185.873 36.2585 185.841Z" fill="white"/>
<path d="M84.6326 177.034C84.6147 177.056 84.6032 177.079 84.5991 177.093C84.6008 177.091 84.6026 177.09 84.6042 177.088C84.6107 177.081 84.6174 177.073 84.6243 177.064C84.6258 177.059 84.6275 177.055 84.6287 177.05C84.6303 177.045 84.6311 177.04 84.6326 177.034Z" fill="white"/>
<path d="M56.5693 168.664C56.5743 168.665 56.5793 168.665 56.5844 168.666C56.5793 168.665 56.5738 168.665 56.5679 168.664C56.5683 168.664 56.5687 168.664 56.5693 168.664Z" fill="white"/>
<path d="M60.086 162.85C60.0819 162.848 60.0801 162.827 60.0792 162.801C60.0836 162.826 60.0877 162.85 60.086 162.85ZM58.6478 161.379C58.6464 161.369 58.6455 161.362 58.6462 161.362C58.6465 161.361 58.6471 161.368 58.6478 161.379ZM58.5622 161.069C58.5484 161.037 58.5206 160.977 58.5244 160.983C58.5393 161.009 58.5512 161.038 58.5622 161.069ZM56.1031 161.154C56.102 161.146 56.1039 161.134 56.1065 161.121C56.105 161.143 56.1039 161.16 56.1031 161.154ZM56.1077 161.267C56.111 161.256 56.1154 161.33 56.1186 161.37C56.1076 161.33 56.1006 161.291 56.1077 161.267ZM56.1663 161.545C56.1653 161.541 56.17 161.553 56.1764 161.57C56.1723 161.562 56.1681 161.553 56.1663 161.545ZM57.1601 162.235C57.1611 162.235 57.1629 162.235 57.1653 162.234C57.1637 162.235 57.1617 162.235 57.1601 162.235ZM57.5677 162.133C57.5772 162.128 57.5933 162.121 57.6088 162.114C57.5947 162.12 57.5805 162.126 57.5677 162.133ZM61.4968 158.436C61.494 158.418 61.4918 158.402 61.4927 158.402C61.4934 158.402 61.495 158.416 61.4968 158.436Z" fill="white"/>
<path d="M72.1829 147.823C73.7393 147.709 75.3012 147.414 76.8659 147.547C76.9645 147.555 77.0631 147.565 77.1613 147.578C77.2497 147.589 77.162 147.579 77.1469 147.576C77.1955 147.584 77.2441 147.591 77.2925 147.6C77.4859 147.633 77.6778 147.675 77.8671 147.727C78.2908 147.844 78.4625 147.911 78.8251 148.113C79.2097 148.327 79.4279 148.492 79.7267 148.781C79.8733 148.922 80.0119 149.072 80.1429 149.229C80.1821 149.275 80.2197 149.323 80.2582 149.37C80.2665 149.381 80.1859 149.267 80.2098 149.308C80.2165 149.319 80.2263 149.329 80.2322 149.341C80.2611 149.399 80.2966 149.453 80.3246 149.512C80.341 149.546 80.3531 149.586 80.3723 149.618C80.3552 149.589 80.2859 149.403 80.3303 149.52C80.339 149.543 80.3485 149.566 80.3573 149.589C80.4422 149.808 80.5146 150.032 80.5834 150.257C80.7826 150.907 80.9489 151.567 81.108 152.228C81.5724 154.158 81.962 156.105 82.3305 158.055C82.7722 160.391 83.1745 162.736 83.5395 165.085C83.7191 166.242 83.8895 167.4 84.047 168.56C84.0528 168.602 84.0854 168.845 84.0572 168.634C84.0656 168.698 84.0741 168.761 84.0825 168.824C84.1014 168.967 84.1202 169.11 84.1388 169.253C84.174 169.525 84.2084 169.796 84.2419 170.068C84.3047 170.577 84.3642 171.086 84.4196 171.596C84.5886 173.152 84.7675 174.737 84.7128 176.305C84.7086 176.426 84.7024 176.546 84.6926 176.667C84.6882 176.72 84.6823 176.773 84.6774 176.827C84.6592 177.022 84.7156 176.615 84.6809 176.802C84.6653 176.885 84.6521 176.969 84.6289 177.05C84.6199 177.082 84.6048 177.115 84.5981 177.147C84.5768 177.25 84.705 176.93 84.631 177.065C84.5665 177.181 84.5984 177.019 84.7023 176.983C84.6663 176.995 84.633 177.058 84.6045 177.088C84.5177 177.178 84.4275 177.265 84.3341 177.348C84.0558 177.597 83.7689 177.788 83.402 177.991C82.6765 178.391 81.91 178.639 81.0661 178.867C79.115 179.396 77.137 179.843 75.1705 180.309C73.0177 180.82 70.8605 181.312 68.6982 181.781C64.3806 182.718 60.0427 183.562 55.6834 184.28C51.3451 184.994 46.9861 185.58 42.6101 186.007C40.6066 186.202 38.4284 186.91 36.4586 186.192C36.424 186.179 36.3898 186.165 36.3554 186.152C36.2398 186.109 36.4436 186.193 36.3327 186.144C36.2574 186.11 36.1829 186.075 36.1095 186.037C35.9475 185.954 35.7904 185.861 35.6401 185.758C35.6143 185.74 35.4114 185.584 35.5245 185.676C35.4654 185.628 35.407 185.579 35.3501 185.528C35.2215 185.412 35.0998 185.29 34.9853 185.16C34.9354 185.104 34.8875 185.046 34.8396 184.987C34.9313 185.099 34.7885 184.918 34.7619 184.88C34.6622 184.738 34.5694 184.592 34.4829 184.441C34.4008 184.299 34.3246 184.153 34.2531 184.005C34.2195 183.935 34.1868 183.865 34.1552 183.794C34.137 183.753 34.1191 183.713 34.1018 183.672C34.1436 183.771 34.1076 183.684 34.0875 183.632C33.5752 182.311 33.3302 180.912 32.988 179.542C32.4446 177.366 31.9422 175.181 31.4863 172.985C31.0397 170.834 30.6405 168.675 30.2635 166.511C29.9439 164.677 29.6527 162.915 29.6397 161.042C29.6333 160.108 29.6939 159.225 29.8821 158.349C30.0474 157.579 30.2713 156.817 30.6636 156.161C30.6862 156.123 30.7129 156.088 30.7358 156.05C30.8014 155.942 30.5878 156.217 30.7232 156.068C30.7946 155.989 30.8659 155.912 30.9441 155.84C30.9851 155.802 31.0272 155.766 31.07 155.73C31.0908 155.713 31.1122 155.697 31.1329 155.679C31.2495 155.581 30.9824 155.788 31.0865 155.715C31.1952 155.639 31.3018 155.561 31.4137 155.489C31.6664 155.328 31.9299 155.183 32.1979 155.049C32.3518 154.972 32.5074 154.898 32.6641 154.827C32.7387 154.793 32.8137 154.76 32.8889 154.727C32.9327 154.708 32.9764 154.686 33.0213 154.67C32.8933 154.717 32.9126 154.716 33.0131 154.674C33.8114 154.346 34.6279 154.066 35.4517 153.809C37.5333 153.16 39.6587 152.653 41.7887 152.191C44.2993 151.648 46.8258 151.178 49.3581 150.748C51.9819 150.302 54.6131 149.9 57.2484 149.529C57.5721 149.483 57.8957 149.438 58.2196 149.394C58.3749 149.372 58.5303 149.351 58.6856 149.33C58.7578 149.32 58.8299 149.31 58.9022 149.301C58.9487 149.294 59.2179 149.258 59.0435 149.282C59.669 149.197 60.2947 149.115 60.9207 149.035C62.0812 148.885 63.2425 148.742 64.4046 148.605C66.3355 148.378 68.2685 148.167 70.2046 147.988C70.8634 147.928 71.5228 147.871 72.1829 147.823C72.5835 147.795 72.9264 147.502 72.9264 147.079C72.9264 146.699 72.5856 146.306 72.1829 146.335C70.5693 146.451 68.9587 146.613 67.3503 146.785C65.0644 147.03 62.7817 147.304 60.5019 147.6C57.8213 147.948 55.1443 148.326 52.4733 148.742C49.8067 149.157 47.1453 149.608 44.4957 150.121C42.1167 150.582 39.7439 151.088 37.4 151.705C35.5697 152.187 33.741 152.727 32.0088 153.499C31.4418 153.751 30.8778 154.033 30.3753 154.401C29.7786 154.837 29.3937 155.31 29.093 155.992C27.4847 159.641 28.2799 163.75 28.9375 167.524C29.3287 169.769 29.7578 172.007 30.2325 174.236C30.6815 176.345 31.2073 178.432 31.6975 180.531C32.0351 181.976 32.3281 183.443 32.9835 184.786C33.6713 186.195 34.837 187.269 36.3496 187.722C38.4807 188.36 40.7345 187.681 42.8795 187.468C45.1205 187.247 47.3574 186.983 49.5894 186.684C54.0886 186.08 58.5672 185.332 63.0234 184.466C67.453 183.605 71.8602 182.632 76.2487 181.582C77.3529 181.318 78.4558 181.048 79.5578 180.775C80.4114 180.564 81.2716 180.375 82.1123 180.115C82.9682 179.85 83.8262 179.514 84.5779 179.02C84.9749 178.759 85.3595 178.458 85.6848 178.11C85.7772 178.011 85.8682 177.908 85.9292 177.786C86.1562 177.336 86.1823 176.801 86.1994 176.305C86.2234 175.62 86.189 174.932 86.1444 174.248C86.01 172.185 85.7486 170.13 85.4694 168.082C85.1416 165.678 84.7627 163.282 84.3488 160.891C83.9606 158.65 83.5431 156.413 83.0711 154.188C82.7481 152.666 82.4281 151.125 81.9483 149.643C81.7993 149.182 81.6385 148.737 81.3379 148.354C80.2176 146.929 78.6103 146.198 76.8287 146.055C75.2759 145.93 73.727 146.221 72.1827 146.335C71.7822 146.364 71.4392 146.656 71.4392 147.079C71.4394 147.459 71.7803 147.853 72.1829 147.823Z" fill="#1E3050"/>
<path d="M29.7365 157.168C31.2686 158.282 32.8299 159.357 34.4163 160.393C36.4347 161.711 38.4947 162.967 40.6021 164.137C42.9116 165.42 45.2795 166.595 47.7179 167.613C49.9907 168.561 52.3381 169.371 54.7557 169.857C56.8478 170.278 59.0975 170.537 61.21 170.106C63.0712 169.726 64.8097 168.793 66.353 167.71C68.1494 166.449 69.7706 164.949 71.2659 163.346C72.8139 161.686 74.2357 159.908 75.5631 158.068C76.7259 156.456 77.8157 154.788 78.8083 153.066C79.5331 151.808 80.2266 150.515 80.7508 149.159C80.829 148.956 80.9019 148.751 80.9628 148.543C81.0757 148.157 80.8261 147.733 80.4436 147.627C80.0499 147.519 79.6424 147.76 79.5291 148.147C79.4681 148.356 79.3953 148.56 79.317 148.763C79.2947 148.821 79.2718 148.879 79.2485 148.936C79.2373 148.964 79.226 148.991 79.2147 149.019C79.209 149.033 79.2031 149.047 79.1974 149.061C79.152 149.172 79.2208 149.002 79.2304 148.983C79.1677 149.109 79.1176 149.244 79.0593 149.373C78.7706 150.011 78.4515 150.635 78.1186 151.251C77.2345 152.886 76.2487 154.467 75.2014 156.002C74.6011 156.882 73.9783 157.746 73.3325 158.593C73.295 158.642 73.2575 158.691 73.2199 158.74C73.1094 158.884 73.2456 158.708 73.1659 158.81C73.0768 158.925 72.9878 159.039 72.8981 159.153C72.7308 159.365 72.5618 159.576 72.3915 159.786C72.0424 160.216 71.6867 160.641 71.3238 161.059C69.9 162.701 68.3669 164.261 66.6707 165.623C66.5797 165.696 66.4879 165.768 66.3961 165.84C66.2937 165.921 66.4756 165.781 66.3401 165.884C66.2865 165.924 66.233 165.965 66.1792 166.005C65.9741 166.159 65.7665 166.31 65.5561 166.457C65.1555 166.736 64.7454 167.002 64.3245 167.25C63.9217 167.487 63.5092 167.708 63.0863 167.908C62.9855 167.955 62.8842 168.001 62.7823 168.046C62.7357 168.067 62.6887 168.087 62.6419 168.107C62.7963 168.04 62.653 168.102 62.5857 168.129C62.3854 168.21 62.1829 168.285 61.9783 168.354C61.5748 168.49 61.1629 168.602 60.7449 168.684C60.6449 168.704 60.5445 168.721 60.4439 168.737C60.4031 168.744 60.3462 168.763 60.3053 168.758C60.2987 168.757 60.4723 168.739 60.3875 168.747C60.349 168.751 60.3106 168.756 60.2722 168.761C60.051 168.786 59.8288 168.8 59.6066 168.81C59.0875 168.833 58.5672 168.828 58.0483 168.801C57.7754 168.787 57.5028 168.766 57.2307 168.739C57.0976 168.726 56.9647 168.712 56.8319 168.696C56.7701 168.689 56.7085 168.682 56.6467 168.674C56.6158 168.67 56.5849 168.666 56.5539 168.662C56.6193 168.67 56.6477 168.675 56.5654 168.663C54.2016 168.323 51.9011 167.642 49.6708 166.798C49.3826 166.689 49.0953 166.577 48.8091 166.462C48.6653 166.404 48.5216 166.346 48.3783 166.287C48.312 166.26 48.2456 166.232 48.1795 166.205C48.1525 166.194 47.9129 166.093 48.0258 166.141C47.4378 165.892 46.8545 165.633 46.2752 165.365C45.1126 164.827 43.9664 164.255 42.8346 163.656C40.6639 162.506 38.5451 161.26 36.4701 159.946C34.7645 158.866 33.0877 157.739 31.4423 156.569C31.1226 156.342 30.8044 156.113 30.4872 155.882C30.1622 155.646 29.6585 155.827 29.4701 156.149C29.2499 156.526 29.4107 156.931 29.7365 157.168Z" fill="#1E3050"/>
<path d="M50.4996 167.859C48.1317 170.071 45.8425 172.366 43.6381 174.741C41.4338 177.116 39.3143 179.569 37.285 182.095C36.684 182.844 36.0917 183.599 35.5057 184.359C35.2464 184.695 34.9328 185.021 34.8211 185.442C34.7599 185.673 34.7487 185.922 34.82 186.152C34.948 186.565 35.2966 186.778 35.7099 186.812C36.0985 186.844 36.4703 186.447 36.4533 186.068C36.434 185.637 36.1262 185.357 35.7099 185.323C35.8609 185.336 35.9895 185.377 36.1002 185.486C36.1299 185.524 36.1596 185.562 36.1893 185.6C36.2423 185.743 36.2587 185.779 36.2386 185.708C36.2887 185.912 36.2568 185.885 36.2564 185.809C36.2561 185.729 36.2983 185.728 36.2407 185.901C36.2509 185.87 36.2545 185.837 36.264 185.806C36.2893 185.723 36.3389 185.712 36.2368 185.861C36.2762 185.803 36.3063 185.741 36.3491 185.685C36.4634 185.533 36.5795 185.383 36.6951 185.233C36.7266 185.192 36.758 185.151 36.7897 185.11C36.7775 185.126 36.6882 185.241 36.7682 185.138C36.8421 185.043 36.9159 184.947 36.99 184.852C37.466 184.239 37.9473 183.631 38.4337 183.027C39.4066 181.819 40.4 180.627 41.4136 179.453C43.452 177.091 45.5715 174.8 47.7673 172.585C49.0047 171.336 50.2664 170.112 51.551 168.912C51.8361 168.646 51.8399 168.125 51.551 167.859C51.2456 167.579 50.8036 167.575 50.4996 167.859Z" fill="#1E3050"/>
<path d="M67.7724 166.551C70.02 167.652 72.2192 168.85 74.3842 170.105C76.6236 171.403 78.8272 172.764 80.9942 174.18C82.1547 174.939 83.3045 175.713 84.4416 176.507C84.7616 176.73 85.2814 176.576 85.4587 176.24C85.6595 175.859 85.5336 175.46 85.1921 175.222C83.1386 173.789 81.044 172.415 78.9176 171.093C76.7197 169.727 74.4871 168.415 72.2138 167.178C70.9966 166.515 69.7673 165.875 68.5228 165.266C68.1741 165.095 67.7027 165.159 67.5057 165.533C67.329 165.867 67.3994 166.368 67.7724 166.551Z" fill="#1E3050"/>
<path d="M59.7482 160.231C59.7161 160.277 59.6837 160.322 59.6507 160.367C59.6345 160.39 59.5377 160.516 59.6083 160.426C59.6826 160.332 59.566 160.479 59.548 160.501C59.5078 160.55 59.4671 160.6 59.4256 160.648C59.2857 160.812 59.1386 160.969 58.9849 161.12C58.8255 161.276 58.6591 161.425 58.4861 161.566C58.4676 161.581 58.4489 161.596 58.4304 161.611C58.3321 161.692 58.4545 161.593 58.4678 161.584C58.429 161.611 58.3919 161.641 58.3534 161.67C58.2566 161.741 58.1575 161.808 58.0557 161.872C57.9672 161.928 57.8767 161.981 57.784 162.029C57.7343 162.055 57.6839 162.08 57.633 162.103C57.6117 162.113 57.588 162.121 57.5675 162.133C57.5995 162.115 57.7057 162.079 57.6127 162.112C57.5086 162.148 57.405 162.183 57.2974 162.208C57.254 162.218 57.2012 162.219 57.1601 162.235C57.1742 162.23 57.3474 162.218 57.2193 162.226C57.1884 162.229 57.1576 162.231 57.1267 162.233C57.0723 162.235 57.018 162.235 56.9638 162.232C56.9345 162.231 56.7748 162.217 56.8993 162.229C57.0232 162.241 56.8739 162.22 56.8441 162.212C56.797 162.2 56.7518 162.184 56.7055 162.169C56.5893 162.133 56.8573 162.246 56.7502 162.188C56.7132 162.169 56.6754 162.151 56.639 162.129C56.6027 162.108 56.5685 162.084 56.5327 162.062C56.4384 162.003 56.6674 162.179 56.5543 162.079C56.4908 162.023 56.4295 161.965 56.3729 161.902C56.3524 161.878 56.269 161.774 56.3499 161.878C56.4321 161.985 56.3335 161.851 56.3129 161.819C56.27 161.753 56.2311 161.683 56.1967 161.611C56.1871 161.592 56.1709 161.565 56.1662 161.545C56.1627 161.53 56.2275 161.714 56.2066 161.637C56.194 161.591 56.1736 161.545 56.1599 161.498C56.1439 161.444 56.0918 161.32 56.1075 161.267C56.1129 161.248 56.1211 161.456 56.1221 161.374C56.1224 161.356 56.1184 161.337 56.1172 161.319C56.1136 161.271 56.112 161.222 56.1125 161.174C56.113 161.132 56.1225 161.087 56.119 161.046C56.1119 160.965 56.1054 161.172 56.1029 161.153C56.1006 161.136 56.1123 161.096 56.1153 161.081C56.1319 160.996 56.1577 160.914 56.1858 160.832C56.2261 160.714 56.1106 160.982 56.1693 160.872C56.1899 160.834 56.2084 160.795 56.2302 160.757C56.2518 160.719 56.2748 160.683 56.2992 160.647C56.3094 160.631 56.3218 160.617 56.3312 160.601C56.3719 160.534 56.2042 160.748 56.295 160.649C56.3498 160.589 56.4026 160.529 56.4623 160.474C56.4899 160.448 56.5188 160.425 56.5468 160.4C56.6141 160.341 56.4112 160.499 56.4849 160.447C56.5055 160.433 56.5254 160.418 56.5461 160.404C56.6134 160.358 56.6834 160.316 56.7557 160.278C56.7947 160.258 56.8348 160.24 56.8743 160.221C56.9372 160.19 56.7827 160.259 56.7835 160.259C56.789 160.263 56.86 160.231 56.8719 160.227C56.9492 160.2 57.0279 160.178 57.1076 160.161C57.1404 160.153 57.3019 160.129 57.1569 160.148C57.0163 160.166 57.1731 160.148 57.2076 160.145C57.295 160.14 57.3828 160.14 57.4702 160.147C57.489 160.148 57.5076 160.151 57.5263 160.152C57.5994 160.157 57.4178 160.134 57.4219 160.138C57.4469 160.158 57.5377 160.16 57.5715 160.168C57.655 160.189 57.7353 160.218 57.8159 160.247C57.9024 160.279 57.6651 160.177 57.7467 160.219C57.7641 160.228 57.7823 160.236 57.7999 160.245C57.8468 160.269 57.8927 160.294 57.9375 160.322C57.9712 160.342 58.0044 160.363 58.0368 160.386C58.0554 160.399 58.0798 160.421 58.101 160.432C58.108 160.435 57.9707 160.325 58.0284 160.376C58.0979 160.437 58.1676 160.497 58.2319 160.564C58.2639 160.597 58.2951 160.631 58.325 160.667C58.3379 160.682 58.3501 160.697 58.363 160.713C58.4223 160.782 58.2678 160.581 58.3193 160.657C58.3717 160.734 58.4239 160.81 58.4695 160.891C58.4922 160.932 58.5139 160.973 58.5342 161.015C58.5429 161.033 58.5506 161.051 58.5595 161.069C58.5962 161.141 58.518 160.972 58.524 160.983C58.5708 161.063 58.5943 161.176 58.6174 161.266C58.6274 161.305 58.6363 161.343 58.6442 161.382C58.6494 161.408 58.6531 161.435 58.6585 161.461C58.6734 161.532 58.6427 161.362 58.6459 161.361C58.6482 161.361 58.66 161.638 58.6596 161.663C58.65 162.197 58.5322 162.706 58.6546 163.239C58.7771 163.773 59.1707 164.242 59.6712 164.453C59.9533 164.573 60.2897 164.602 60.5821 164.496C60.9149 164.376 61.1507 164.167 61.3591 163.888C61.6262 163.529 61.8061 163.086 61.9841 162.679C62.1927 162.201 62.3835 161.717 62.5428 161.221C62.8475 160.271 63.0943 159.254 62.96 158.254C62.8338 157.313 62.345 156.481 61.6231 155.87C60.228 154.69 58.2706 154.12 56.458 154.254C55.0109 154.362 53.641 154.882 52.5806 155.884C51.7831 156.637 51.1874 157.616 50.8681 158.666C50.5328 159.767 50.5251 160.989 50.8879 162.085C51.3485 163.477 52.3043 164.584 53.4632 165.451C53.7791 165.688 54.1111 165.901 54.453 166.098C54.7903 166.292 55.2816 166.188 55.4701 165.831C55.6572 165.476 55.5637 165.02 55.2034 164.812C54.8556 164.612 54.518 164.395 54.1971 164.153C54.1806 164.141 54.1646 164.128 54.1478 164.116C54.1401 164.111 54.2797 164.22 54.2173 164.17C54.1804 164.14 54.1433 164.111 54.1066 164.082C54.0348 164.023 53.9639 163.964 53.8942 163.903C53.7601 163.786 53.63 163.664 53.5048 163.538C53.3899 163.422 53.279 163.302 53.173 163.177C53.1236 163.119 53.076 163.06 53.028 163.001C52.9533 162.909 53.1453 163.158 53.0494 163.028C53.0259 162.996 53.002 162.964 52.9788 162.932C52.8041 162.689 52.6482 162.433 52.5154 162.164C52.4854 162.104 52.4565 162.042 52.4288 161.981C52.415 161.95 52.3594 161.819 52.4173 161.956C52.4739 162.089 52.4213 161.963 52.4087 161.931C52.3577 161.8 52.3122 161.667 52.2725 161.532C52.2352 161.405 52.203 161.276 52.1761 161.146C52.1634 161.085 52.1519 161.023 52.1415 160.961C52.1359 160.928 52.1315 160.894 52.1259 160.861C52.1129 160.784 52.1443 161.013 52.1426 160.988C52.1414 160.969 52.1377 160.95 52.1355 160.931C52.1051 160.673 52.0955 160.413 52.1064 160.154C52.1115 160.029 52.1226 159.904 52.136 159.779C52.1367 159.773 52.146 159.733 52.1428 159.724C52.1386 159.712 52.1148 159.917 52.1255 159.853C52.131 159.822 52.1349 159.789 52.1401 159.757C52.1504 159.694 52.1618 159.63 52.1744 159.567C52.2229 159.325 52.2885 159.086 52.3698 158.853C52.3908 158.793 52.4128 158.733 52.4358 158.674C52.4456 158.648 52.4559 158.623 52.466 158.598C52.5244 158.45 52.4059 158.734 52.4436 158.65C52.494 158.539 52.5443 158.428 52.6001 158.319C52.7127 158.1 52.8394 157.888 52.9792 157.685C53.012 157.637 53.0455 157.59 53.0797 157.543C53.0981 157.518 53.117 157.494 53.1354 157.469C53.1954 157.388 53.0079 157.629 53.0924 157.525C53.1698 157.429 53.2483 157.335 53.331 157.243C53.4879 157.07 53.6555 156.907 53.8332 156.755C53.8755 156.719 53.9184 156.684 53.9614 156.649C53.9721 156.64 53.9917 156.629 54.0013 156.617C54.0157 156.601 53.8453 156.736 53.9012 156.695C53.9285 156.675 53.9552 156.654 53.9824 156.634C54.0736 156.568 54.167 156.504 54.2626 156.444C54.3568 156.384 54.4532 156.328 54.5514 156.276C54.5982 156.251 54.6455 156.227 54.6931 156.203C54.7221 156.189 54.7514 156.175 54.7806 156.162C54.8022 156.152 54.8239 156.142 54.8454 156.132C54.993 156.064 54.7316 156.177 54.8205 156.142C55.2182 155.986 55.6238 155.864 56.0453 155.791C56.099 155.782 56.1556 155.778 56.2086 155.765C56.2135 155.764 56.0438 155.785 56.1281 155.776C56.1595 155.772 56.1908 155.768 56.2221 155.765C56.3319 155.752 56.442 155.743 56.5523 155.736C56.7655 155.724 56.9793 155.722 57.1927 155.73C57.2957 155.733 57.3985 155.74 57.5013 155.748C57.5566 155.753 57.6119 155.758 57.6671 155.764C57.7239 155.77 57.9275 155.81 57.7059 155.767C57.9169 155.808 58.1286 155.837 58.338 155.887C58.5469 155.936 58.7534 155.995 58.9569 156.064C59.0548 156.096 59.152 156.131 59.2484 156.169C59.2996 156.188 59.3509 156.214 59.4033 156.23C59.4061 156.231 59.2599 156.168 59.3353 156.201C59.3714 156.218 59.408 156.233 59.444 156.249C59.7977 156.409 60.1384 156.6 60.4529 156.828C60.4757 156.845 60.4982 156.864 60.5218 156.879C60.5277 156.883 60.3939 156.777 60.456 156.828C60.4891 156.855 60.5226 156.881 60.5552 156.909C60.6366 156.977 60.7155 157.048 60.7914 157.122C60.8567 157.186 60.9198 157.252 60.9802 157.321C61.008 157.352 61.0352 157.384 61.0618 157.416C61.1699 157.548 60.9761 157.297 61.073 157.432C61.1832 157.585 61.2753 157.747 61.3573 157.917C61.4132 158.033 61.2977 157.762 61.3553 157.914C61.3737 157.963 61.3907 158.012 61.4063 158.061C61.4412 158.173 61.469 158.287 61.4897 158.402C61.4941 158.427 61.4974 158.451 61.502 158.476C61.5178 158.559 61.4892 158.402 61.4923 158.402C61.4946 158.402 61.5063 158.555 61.5077 158.576C61.515 158.693 61.5164 158.81 61.5129 158.927C61.5096 159.037 61.5019 159.146 61.4909 159.255C61.4876 159.288 61.4791 159.324 61.4795 159.356C61.4795 159.357 61.5029 159.2 61.4891 159.284C61.4795 159.343 61.471 159.402 61.4607 159.461C61.3794 159.923 61.2524 160.378 61.109 160.825C61.0379 161.046 60.9612 161.266 60.8788 161.483C60.8361 161.596 60.7919 161.708 60.7461 161.819C60.7363 161.843 60.7263 161.867 60.7166 161.891C60.6847 161.969 60.7412 161.833 60.7413 161.832C60.7227 161.897 60.686 161.96 60.6585 162.022C60.5638 162.234 60.4637 162.444 60.3581 162.651C60.3116 162.742 60.2651 162.834 60.2144 162.923C60.1897 162.966 60.164 163.009 60.1365 163.05C60.0477 163.184 60.2188 162.968 60.138 163.05C60.1183 163.07 59.991 163.184 60.0929 163.103C60.1799 163.034 60.1239 163.079 60.1015 163.092C59.9993 163.151 60.1551 163.068 60.1675 163.068C60.1542 163.068 60.1231 163.079 60.1106 163.085C60.0332 163.116 60.2257 163.056 60.2138 163.072C60.2051 163.084 60.1466 163.063 60.1391 163.071C60.1494 163.06 60.3291 163.11 60.2267 163.079C60.1097 163.044 60.371 163.161 60.2636 163.099C60.2389 163.084 60.1035 162.992 60.2083 163.071C60.3128 163.15 60.186 163.041 60.165 163.02C60.0837 162.94 60.2541 163.157 60.1677 163.024C60.1466 162.992 60.1251 162.918 60.0959 162.898C60.0955 162.897 60.1518 163.051 60.13 162.98C60.124 162.961 60.1158 162.942 60.1097 162.922C60.0948 162.875 60.0864 162.827 60.0759 162.779C60.0574 162.694 60.0901 162.85 60.0858 162.849C60.0759 162.846 60.0787 162.732 60.0783 162.721C60.0714 162.488 60.1007 162.257 60.1227 162.025C60.1656 161.574 60.1459 161.111 59.993 160.68C59.8378 160.243 59.6052 159.847 59.2831 159.511C58.6252 158.825 57.6948 158.539 56.7676 158.714C55.9699 158.864 55.1837 159.438 54.8545 160.189C54.6465 160.663 54.5908 161.133 54.6709 161.644C54.73 162.022 54.8935 162.4 55.1236 162.705C55.4229 163.102 55.7807 163.391 56.2429 163.578C56.7036 163.765 57.2387 163.754 57.7151 163.638C58.184 163.524 58.6336 163.288 59.026 163.01C59.4153 162.735 59.7854 162.427 60.1207 162.088C60.4563 161.748 60.7572 161.373 61.0318 160.982C61.2562 160.663 61.0997 160.141 60.7651 159.964C60.384 159.763 59.9878 159.89 59.7482 160.231Z" fill="#1E3050"/>
<path d="M167.122 39.4081C167.134 39.4096 167.145 39.4111 167.156 39.4125C167.151 39.4119 167.139 39.4103 167.117 39.4073C167.119 39.4076 167.121 39.4078 167.122 39.4081Z" fill="white"/>
<path d="M192.541 12.5715C191.745 10.8195 190.686 9.19749 189.422 7.74791C188.191 6.33638 186.753 5.10772 185.194 4.07311C183.627 3.03324 181.924 2.20452 180.158 1.56327C178.365 0.912157 176.506 0.48524 174.616 0.234399C172.773 -0.0103033 170.905 -0.0641352 169.051 0.0763053C167.147 0.220583 165.252 0.553541 163.421 1.09952C161.609 1.6399 159.847 2.3841 158.209 3.33144C156.575 4.27692 155.05 5.4353 153.717 6.77437C152.309 8.18864 151.115 9.81308 150.168 11.5694C149.357 13.0735 148.7 14.6705 148.261 16.3244C148.109 16.2424 147.932 16.2141 147.757 16.2765C145.773 16.9851 143.94 18.0265 142.343 19.4046C140.875 20.6722 139.638 22.2252 138.709 23.9275C137.759 25.666 137.096 27.5687 136.812 29.5309C136.491 31.7494 136.549 33.9852 136.893 36.1976C137.222 38.3162 137.836 40.3962 138.764 42.3306C138.8 42.4046 138.837 42.478 138.873 42.5515C138.399 43.143 137.925 43.7346 137.451 44.326C137.057 44.8171 136.556 45.2589 136.395 45.8905C136.189 46.6937 136.687 47.4814 137.508 47.6216C137.912 47.6907 138.319 47.632 138.72 47.5608C139.104 47.4925 139.482 47.3911 139.856 47.28C140.611 47.0558 141.349 46.7803 142.1 46.5459C142.241 46.5018 142.383 46.4594 142.526 46.4222C142.587 46.4063 142.649 46.3912 142.711 46.3779C142.728 46.3741 142.746 46.3707 142.764 46.3672C142.754 46.3671 142.743 46.3669 142.731 46.3666C142.746 46.367 142.762 46.3657 142.777 46.3645C142.783 46.3634 142.789 46.362 142.795 46.3609C142.801 46.3599 142.807 46.3591 142.812 46.3583C142.801 46.3534 142.788 46.3475 142.772 46.34C142.775 46.341 142.779 46.3422 142.784 46.3434C142.795 46.3481 142.805 46.3532 142.816 46.358C142.819 46.3577 142.821 46.3574 142.824 46.3572C142.826 46.3583 142.829 46.3593 142.831 46.3604C142.841 46.3594 142.851 46.3583 142.861 46.3577C142.864 46.3574 142.865 46.3572 142.868 46.357C142.889 46.359 142.89 46.3641 142.844 46.3663C142.859 46.3742 142.867 46.3798 142.854 46.3755C143.544 46.6985 144.225 47.0585 144.867 47.4687C145.272 47.7275 145.656 48.0176 146.061 48.2778C146.51 48.5661 146.969 48.8379 147.437 49.0927C148.407 49.6205 149.419 50.075 150.453 50.4623C152.468 51.2172 154.585 51.6758 156.727 51.8667C158.843 52.0553 161.007 51.9742 163.091 51.5555C165.058 51.1606 166.97 50.443 168.727 49.4779C171.918 47.7258 174.932 44.9423 175.974 41.3466C176.065 41.0308 176.137 40.7099 176.191 40.3857C176.652 40.28 177.11 40.162 177.565 40.0314C178.872 39.656 180.146 39.1683 181.418 38.6914C182.464 38.2996 183.507 37.8888 184.505 37.386C184.96 37.1564 185.406 36.9068 185.841 36.64C186.073 36.4976 186.303 36.3504 186.53 36.1998C186.624 36.1375 186.717 36.0742 186.811 36.0107C186.846 36.0292 186.881 36.0476 186.916 36.067C187.219 36.2361 187.516 36.4148 187.817 36.5873C188.618 37.0457 189.443 37.4814 190.318 37.7782C191.17 38.0671 192.151 38.2096 192.98 37.776C193.463 37.5236 193.859 37.0391 193.97 36.5013C194.091 35.9172 193.961 35.3302 193.737 34.7878C193.267 33.6503 192.551 32.64 191.953 31.5684C193.056 29.3685 193.837 27.0038 194.192 24.5657C194.569 21.9764 194.508 19.3504 193.953 16.79C193.637 15.3349 193.153 13.9275 192.541 12.5715ZM137.7 46.1643C137.701 46.1651 137.701 46.166 137.702 46.167C137.696 46.1639 137.69 46.1597 137.685 46.1575C137.691 46.1599 137.695 46.162 137.7 46.1643ZM137.713 46.183C137.714 46.1834 137.714 46.184 137.714 46.1844C137.708 46.1829 137.7 46.1803 137.694 46.1793C137.701 46.1805 137.706 46.1818 137.713 46.183ZM137.781 46.2576C137.781 46.2575 137.781 46.2573 137.781 46.2572C137.781 46.2571 137.781 46.257 137.781 46.2569C137.781 46.2571 137.781 46.2573 137.781 46.2576C137.781 46.2576 137.781 46.2576 137.781 46.2576ZM137.781 46.2319C137.779 46.2306 137.777 46.2286 137.775 46.227C137.776 46.2272 137.778 46.2273 137.779 46.2275C137.78 46.2291 137.78 46.2302 137.781 46.2319ZM137.787 46.277C137.788 46.2733 137.788 46.27 137.788 46.2662C137.789 46.2653 137.789 46.2645 137.789 46.2636C137.792 46.2781 137.795 46.2942 137.796 46.3127C137.795 46.3033 137.792 46.2901 137.787 46.277ZM137.798 46.2389C137.797 46.24 137.796 46.2411 137.795 46.2422C137.795 46.2411 137.795 46.2399 137.795 46.2388C137.795 46.2387 137.795 46.239 137.794 46.2387C137.795 46.237 137.796 46.2358 137.797 46.2339C137.798 46.2323 137.798 46.2312 137.799 46.2298C137.799 46.2298 137.799 46.2298 137.799 46.2298C137.8 46.2285 137.8 46.227 137.801 46.2256C137.802 46.2272 137.804 46.2289 137.804 46.2303C137.804 46.2303 137.805 46.2303 137.805 46.2304C137.805 46.2305 137.805 46.2306 137.805 46.2308C137.807 46.2369 137.804 46.2395 137.798 46.2389ZM142.763 46.3356C142.743 46.3262 142.72 46.3152 142.692 46.3015C142.716 46.313 142.74 46.3235 142.764 46.3341C142.764 46.3346 142.763 46.3351 142.763 46.3356ZM161.092 37.76C161.075 37.7526 161.079 37.7543 161.092 37.76V37.76Z" fill="white"/>
<path d="M156.614 6.13121C156.619 6.13157 156.624 6.13001 156.63 6.12738C156.625 6.12882 156.618 6.13157 156.614 6.13121Z" fill="white"/>
<path d="M161.357 3.3666C161.357 3.36672 161.357 3.36683 161.356 3.36694C161.372 3.36402 161.388 3.35919 161.401 3.35425C161.386 3.35852 161.371 3.36402 161.357 3.3666Z" fill="white"/>
<path d="M192.369 36.4557C192.378 36.4507 192.385 36.4463 192.393 36.4418C192.403 36.4317 192.413 36.422 192.423 36.4123C192.407 36.4161 192.383 36.4393 192.369 36.4557Z" fill="white"/>
<path d="M167.585 1.6724C167.584 1.6724 167.584 1.67254 167.583 1.67269C167.584 1.67254 167.586 1.67239 167.587 1.67224C167.586 1.67224 167.586 1.6724 167.585 1.6724Z" fill="white"/>
<path d="M192.467 36.3688C192.474 36.3612 192.483 36.3506 192.492 36.3404C192.496 36.3331 192.501 36.3239 192.507 36.3135C192.49 36.3225 192.474 36.3512 192.467 36.3688Z" fill="white"/>
<path d="M192.574 35.938C192.569 35.9138 192.564 35.8826 192.566 35.863C192.565 35.8613 192.565 35.8594 192.565 35.8577C192.554 35.8853 192.566 35.9268 192.574 35.938Z" fill="white"/>
<path d="M190.282 36.2291C190.283 36.2294 190.283 36.2295 190.284 36.2297C190.279 36.2275 190.275 36.2253 190.271 36.2233C190.274 36.2253 190.278 36.2271 190.282 36.2291Z" fill="white"/>
<path d="M137.819 46.1853C137.816 46.1937 137.812 46.2017 137.808 46.21C137.808 46.2097 137.807 46.2094 137.806 46.2089C137.806 46.2093 137.806 46.2097 137.806 46.21C137.806 46.2103 137.807 46.2105 137.808 46.2108C137.808 46.2113 137.808 46.2116 137.808 46.2119C137.809 46.2121 137.811 46.2122 137.813 46.2123C137.814 46.2125 137.814 46.2128 137.815 46.213C137.815 46.2128 137.814 46.2126 137.814 46.2123C137.815 46.2124 137.816 46.2125 137.817 46.2125C137.837 46.1818 137.832 46.169 137.819 46.1853Z" fill="white"/>
<path d="M142.835 46.3665C142.838 46.3664 142.841 46.3663 142.844 46.3661C142.84 46.3642 142.836 46.3622 142.831 46.3601C142.829 46.3605 142.826 46.3606 142.823 46.3609C142.821 46.3598 142.819 46.3588 142.816 46.3577C142.815 46.3578 142.814 46.358 142.812 46.3581C142.815 46.3592 142.817 46.3603 142.819 46.3611C142.805 46.3626 142.792 46.3631 142.777 46.3642C142.773 46.3651 142.768 46.3661 142.764 46.367C142.792 46.3673 142.815 46.3671 142.832 46.3665C142.842 46.3708 142.849 46.3737 142.854 46.3752C142.85 46.3733 142.846 46.3713 142.842 46.3694C142.84 46.3685 142.838 46.3675 142.835 46.3665Z" fill="white"/>
<path d="M137.761 46.1934C137.76 46.193 137.759 46.1927 137.758 46.1924C137.756 46.1912 137.754 46.19 137.751 46.1887C137.751 46.1892 137.751 46.1896 137.751 46.1904C137.747 46.1895 137.742 46.1887 137.738 46.1879C137.74 46.1893 137.742 46.1905 137.744 46.1919C137.746 46.1926 137.748 46.1929 137.751 46.1936C137.751 46.1945 137.751 46.196 137.752 46.197C137.758 46.2014 137.765 46.2062 137.771 46.2099C137.768 46.2044 137.766 46.2004 137.764 46.1969C137.765 46.1972 137.766 46.1974 137.767 46.1978C137.766 46.1969 137.764 46.196 137.762 46.195C137.762 46.1946 137.761 46.1938 137.761 46.1934Z" fill="white"/>
<path d="M137.805 46.2304C137.803 46.2303 137.801 46.2301 137.799 46.2299C137.799 46.2312 137.798 46.2328 137.797 46.234C137.797 46.2357 137.796 46.2367 137.796 46.2384C137.796 46.2386 137.796 46.2387 137.796 46.2389C137.797 46.2392 137.797 46.2389 137.798 46.2389C137.8 46.2364 137.803 46.2333 137.805 46.2309C137.805 46.2307 137.805 46.2304 137.805 46.2304Z" fill="white"/>
<path d="M192.541 12.5715C191.745 10.8196 190.686 9.19749 189.422 7.74791C188.191 6.33638 186.752 5.10772 185.193 4.07311C183.626 3.03324 181.924 2.20452 180.158 1.56327C178.364 0.912157 176.505 0.48524 174.616 0.234399C172.773 -0.0103033 170.905 -0.0641352 169.051 0.0763053C167.147 0.220583 165.252 0.553541 163.421 1.09952C161.609 1.6399 159.847 2.3841 158.209 3.33144C156.574 4.27692 155.05 5.4353 153.716 6.77437C152.308 8.18864 151.115 9.81308 150.168 11.5694C149.029 13.6814 148.191 15.9765 147.839 18.3554C147.515 20.5437 147.568 22.7582 148.044 24.9213C148.489 26.9413 149.307 28.8887 150.404 30.6398C151.525 32.4275 152.934 34.0376 154.543 35.3999C156.213 36.8144 158.077 37.9898 160.076 38.8802C162.163 39.8099 164.361 40.4601 166.623 40.7843C169.058 41.1333 171.503 41.1349 173.939 40.7985C175.164 40.6293 176.376 40.3726 177.564 40.0312C178.871 39.6558 180.145 39.1681 181.418 38.6912C182.463 38.2994 183.506 37.8886 184.504 37.3858C184.96 37.1562 185.405 36.9066 185.841 36.6397C186.073 36.4973 186.303 36.3502 186.53 36.1996C186.643 36.1247 186.755 36.0489 186.867 35.9724C186.923 35.9337 186.989 35.8988 187.04 35.853C187.068 35.8279 187.144 35.8013 186.99 35.867C186.915 35.8989 186.796 35.925 186.74 35.925C186.739 35.925 186.49 35.8871 186.633 35.9168C186.798 35.9511 186.453 35.8267 186.598 35.9004C186.704 35.9547 186.811 36.0085 186.915 36.0668C187.218 36.2359 187.516 36.4146 187.817 36.5871C188.617 37.0455 189.442 37.4812 190.318 37.778C191.17 38.0668 192.15 38.2094 192.98 37.7758C193.462 37.5234 193.859 37.0389 193.97 36.501C194.09 35.9169 193.961 35.33 193.737 34.7876C193.215 33.5259 192.391 32.4209 191.761 31.2151C191.761 31.458 191.761 31.7009 191.761 31.9438C192.966 29.6384 193.816 27.1429 194.192 24.5655C194.569 21.9762 194.507 19.3502 193.952 16.7898C193.637 15.3349 193.153 13.9275 192.541 12.5715C192.385 12.2261 191.858 12.1165 191.554 12.3125C191.198 12.5425 191.129 12.9307 191.296 13.3002C191.336 13.3893 191.376 13.4787 191.415 13.5684C191.434 13.6131 191.454 13.6579 191.473 13.7029C191.432 13.6061 191.48 13.7188 191.485 13.7326C191.564 13.9235 191.641 14.1153 191.714 14.3084C191.855 14.6809 191.985 15.0576 192.104 15.4378C192.339 16.1911 192.53 16.9583 192.675 17.734C192.708 17.9093 192.738 18.085 192.767 18.2612C192.782 18.3551 192.796 18.449 192.81 18.543C192.817 18.59 192.823 18.637 192.83 18.684C192.841 18.7639 192.821 18.6058 192.837 18.7391C192.884 19.1275 192.924 19.5164 192.95 19.9068C193.003 20.6863 193.012 21.4689 192.978 22.2494C192.96 22.64 192.932 23.0302 192.893 23.4193C192.875 23.5963 192.855 23.7733 192.833 23.9498C192.831 23.9675 192.812 24.1142 192.823 24.0305C192.834 23.9467 192.814 24.0933 192.812 24.111C192.797 24.2169 192.781 24.3227 192.764 24.4283C192.642 25.206 192.477 25.9767 192.272 26.7365C192.065 27.5028 191.816 28.2577 191.53 28.9977C191.271 29.6673 190.971 30.3324 190.601 31.0522C190.529 31.1921 190.452 31.3246 190.431 31.4835C190.403 31.6926 190.47 31.8577 190.565 32.0372C190.66 32.2153 190.758 32.3912 190.858 32.566C191.053 32.9061 191.257 33.2411 191.46 33.577C191.653 33.8975 191.846 34.2185 192.026 34.5465C192.102 34.685 192.176 34.8248 192.246 34.9665C192.282 35.0385 192.316 35.1109 192.349 35.184C192.359 35.205 192.41 35.3198 192.371 35.2312C192.33 35.1374 192.392 35.2837 192.399 35.3026C192.45 35.4349 192.496 35.5696 192.531 35.707C192.548 35.771 192.56 35.8357 192.574 35.9C192.596 35.9999 192.54 35.8914 192.568 35.8486C192.557 35.866 192.576 35.9423 192.577 35.9628C192.58 36.0222 192.578 36.0804 192.576 36.1397C192.57 36.311 192.617 35.9971 192.57 36.1584C192.562 36.1857 192.496 36.367 192.548 36.2511C192.598 36.141 192.503 36.3204 192.485 36.3518C192.434 36.4417 192.483 36.3017 192.519 36.3113C192.517 36.3108 192.453 36.3836 192.458 36.3788C192.436 36.4014 192.412 36.4216 192.39 36.4441C192.309 36.5274 192.408 36.3914 192.434 36.4144C192.439 36.4182 192.209 36.5461 192.193 36.5583C192.126 36.6067 192.354 36.5051 192.273 36.5241C192.252 36.5291 192.232 36.54 192.211 36.5464C192.173 36.558 192.136 36.5697 192.098 36.5793C192.054 36.5905 192.009 36.5973 191.965 36.6073C191.858 36.6314 192.047 36.5938 192.053 36.5961C192.036 36.5894 191.967 36.6042 191.948 36.6054C191.851 36.6116 191.754 36.6111 191.657 36.6059C191.613 36.6035 191.569 36.5987 191.525 36.5956C191.374 36.5844 191.692 36.6271 191.505 36.5934C191.281 36.553 191.062 36.5006 190.845 36.4327C190.734 36.3981 190.625 36.3604 190.516 36.3203C190.461 36.2999 190.406 36.2788 190.351 36.2572C190.324 36.2464 190.296 36.2351 190.269 36.2242C190.166 36.1832 190.241 36.2065 190.297 36.2369C190.082 36.119 189.843 36.034 189.623 35.9242C188.892 35.5584 188.205 35.1139 187.482 34.7327C187.131 34.5473 186.734 34.3668 186.348 34.584C186.11 34.7178 185.89 34.8966 185.661 35.0461C185.415 35.207 185.165 35.3637 184.913 35.5146C184.443 35.795 183.961 36.0544 183.468 36.2914C183.219 36.4109 182.968 36.525 182.715 36.6346C182.651 36.662 182.588 36.6891 182.525 36.716C182.676 36.6518 182.51 36.7218 182.454 36.745C182.32 36.8004 182.185 36.8547 182.05 36.9083C179.442 37.9461 176.789 38.9074 174.006 39.3405C173.926 39.353 173.846 39.365 173.766 39.3768C173.726 39.3826 173.686 39.3884 173.646 39.394C173.623 39.3972 173.494 39.415 173.592 39.4017C173.682 39.3893 173.581 39.4031 173.567 39.4048C173.527 39.41 173.487 39.4151 173.447 39.4202C173.348 39.4327 173.248 39.4446 173.148 39.4559C172.83 39.4919 172.512 39.5219 172.193 39.5458C171.544 39.5944 170.894 39.6179 170.243 39.6158C169.603 39.6138 168.964 39.5871 168.326 39.5357C168.02 39.511 167.715 39.4807 167.41 39.4446C167.335 39.4356 167.259 39.4263 167.183 39.4167C167.145 39.4118 167.108 39.4068 167.07 39.4019C167.233 39.423 167.127 39.4095 167.092 39.4045C166.922 39.3802 166.753 39.3554 166.585 39.3282C165.385 39.1348 164.199 38.8518 163.042 38.4807C162.465 38.2958 161.895 38.089 161.334 37.8607C161.267 37.8332 161.199 37.8053 161.132 37.7773C161.01 37.7267 161.133 37.7774 161.153 37.7864C161.12 37.772 161.087 37.7578 161.053 37.7434C160.911 37.6822 160.77 37.6198 160.63 37.5557C160.359 37.4322 160.09 37.3035 159.823 37.1696C158.78 36.6457 157.777 36.0427 156.827 35.3642C156.713 35.2824 156.599 35.1994 156.486 35.1153C156.437 35.0786 156.387 35.0417 156.338 35.0046C156.31 34.9834 156.283 34.962 156.255 34.9408C156.111 34.8316 156.376 35.0365 156.234 34.925C156.014 34.7523 155.797 34.5767 155.583 34.3962C155.146 34.0267 154.723 33.6397 154.318 33.2357C153.916 32.8356 153.531 32.4187 153.164 31.9862C152.987 31.7778 152.816 31.5654 152.647 31.3501C152.568 31.2495 152.654 31.3589 152.666 31.3749C152.646 31.3477 152.625 31.3208 152.604 31.2937C152.563 31.2394 152.522 31.1849 152.482 31.1302C152.391 31.0073 152.301 30.8833 152.213 30.7583C151.576 29.8534 151.017 28.8926 150.553 27.8876C150.5 27.7729 150.448 27.6576 150.397 27.5417C150.371 27.4808 150.302 27.334 150.37 27.4817C150.335 27.4054 150.306 27.3258 150.274 27.2479C150.174 26.9976 150.079 26.745 149.99 26.4903C149.806 25.9635 149.647 25.4276 149.516 24.8853C149.45 24.6126 149.39 24.3383 149.338 24.0628C149.287 23.7952 149.205 23.5008 149.201 23.2279C149.203 23.3924 149.202 23.2379 149.193 23.1646C149.186 23.1048 149.179 23.0451 149.172 22.9852C149.155 22.8395 149.141 22.6937 149.128 22.5477C149.104 22.2624 149.087 21.9764 149.077 21.6902C149.056 21.1088 149.066 20.5265 149.105 19.9461C149.125 19.6504 149.152 19.3551 149.187 19.0609C149.196 18.9893 149.202 18.9162 149.214 18.8451C149.188 18.9906 149.211 18.8688 149.222 18.7937C149.244 18.6398 149.269 18.4861 149.295 18.3327C149.508 17.0914 149.851 15.8741 150.301 14.6986C150.355 14.5587 150.41 14.4194 150.467 14.2808C150.482 14.2435 150.497 14.2063 150.512 14.1693C150.521 14.1492 150.571 14.0312 150.535 14.116C150.498 14.2009 150.549 14.0825 150.558 14.0626C150.578 14.016 150.598 13.9694 150.619 13.9229C150.756 13.6119 150.9 13.304 151.051 12.9996C151.338 12.421 151.648 11.8534 151.983 11.3018C152.252 10.8613 152.537 10.4312 152.839 10.0132C152.913 9.9112 152.987 9.8099 153.063 9.70937C153.098 9.66321 153.133 9.59633 153.177 9.5595C153.166 9.56871 153.073 9.69292 153.151 9.59403C153.175 9.56322 153.199 9.53242 153.223 9.50172C153.382 9.29967 153.546 9.10068 153.713 8.90499C154.369 8.13635 155.085 7.41879 155.851 6.75847C156.042 6.59325 156.237 6.43154 156.434 6.27356C156.482 6.2353 156.53 6.19726 156.578 6.15943C156.602 6.14058 156.626 6.12172 156.65 6.10286C156.73 6.04004 156.643 6.13509 156.613 6.13148C156.669 6.13816 156.874 5.93403 156.925 5.89675C157.324 5.60151 157.734 5.32052 158.153 5.054C159.005 4.51241 159.894 4.03079 160.811 3.60925C160.923 3.55805 161.034 3.50772 161.146 3.45839C161.196 3.43679 161.245 3.41531 161.294 3.39404C161.322 3.38187 161.35 3.36981 161.378 3.35775C161.482 3.31302 161.416 3.35698 161.354 3.36773C161.465 3.34832 161.589 3.27015 161.695 3.22794C161.816 3.17937 161.937 3.13179 162.059 3.0852C162.532 2.90397 163.012 2.73788 163.496 2.58659C164.46 2.28531 165.442 2.04335 166.435 1.85939C166.686 1.8129 166.938 1.77015 167.19 1.73112C167.305 1.71336 167.419 1.69637 167.534 1.68003C167.565 1.67575 167.596 1.67148 167.626 1.6672C167.752 1.64944 167.587 1.67367 167.573 1.67433C167.649 1.6706 167.727 1.65426 167.803 1.64483C168.303 1.58311 168.804 1.53564 169.306 1.50253C170.319 1.43555 171.336 1.42622 172.35 1.47435C172.861 1.49858 173.371 1.53739 173.879 1.59079C174.002 1.60372 174.125 1.61754 174.248 1.63223C174.309 1.63957 174.371 1.64703 174.432 1.65481C174.468 1.65941 174.684 1.68606 174.566 1.67203C174.438 1.65679 174.652 1.6843 174.677 1.68781C174.738 1.69658 174.799 1.70557 174.861 1.71478C174.991 1.73429 175.12 1.7548 175.25 1.77629C176.245 1.94118 177.231 2.1634 178.2 2.44362C178.679 2.58209 179.154 2.7347 179.623 2.90167C179.868 2.98872 180.112 3.07972 180.354 3.17466C180.46 3.21643 180.567 3.25908 180.673 3.30238C180.729 3.32552 180.786 3.34887 180.842 3.37233C180.868 3.38296 180.964 3.41936 180.861 3.38033C180.75 3.33834 180.877 3.38746 180.901 3.39776C181.823 3.79431 182.719 4.2494 183.581 4.76347C184.004 5.01563 184.418 5.28193 184.822 5.56237C185.028 5.70457 185.23 5.85038 185.43 5.99981C185.479 6.03599 185.527 6.07249 185.575 6.10911C185.599 6.12742 185.623 6.14584 185.648 6.16426C185.698 6.20296 185.687 6.233 185.609 6.13465C185.678 6.22126 185.807 6.29023 185.894 6.36006C186.673 6.98826 187.406 7.67369 188.082 8.41152C188.423 8.78307 188.749 9.16789 189.059 9.56509C189.068 9.57671 189.108 9.6369 189.116 9.63777C189.116 9.63777 189.027 9.52069 189.073 9.58296C189.11 9.63218 189.148 9.68075 189.184 9.72998C189.263 9.83468 189.34 9.94015 189.417 10.0465C189.565 10.2537 189.71 10.464 189.85 10.677C190.4 11.5122 190.882 12.3906 191.296 13.3008C191.453 13.6456 191.978 13.7563 192.282 13.5598C192.638 13.3296 192.709 12.9404 192.541 12.5715Z" fill="#1E3050"/>
<path d="M147.757 16.2764C145.773 16.9849 143.939 18.0263 142.343 19.4044C140.874 20.672 139.638 22.2251 138.708 23.9274C137.759 25.6658 137.096 27.5685 136.812 29.5307C136.491 31.7493 136.549 33.985 136.893 36.1974C137.222 38.316 137.836 40.3961 138.764 42.3305C138.872 42.5556 138.986 42.7783 139.103 42.9987C139.141 42.707 139.178 42.4154 139.216 42.1239C138.628 42.8579 138.039 43.5919 137.451 44.3259C137.057 44.8169 136.556 45.2588 136.395 45.8904C136.189 46.6935 136.687 47.4812 137.508 47.6215C137.912 47.6906 138.319 47.6319 138.72 47.5606C139.104 47.4923 139.482 47.3909 139.856 47.2799C140.611 47.0557 141.349 46.7802 142.1 46.5458C142.241 46.5017 142.383 46.4592 142.526 46.4221C142.588 46.4062 142.649 46.3911 142.711 46.3777C142.739 46.3716 142.767 46.3658 142.795 46.3606C142.878 46.3451 142.966 46.3718 142.731 46.3663C142.772 46.3673 142.819 46.3602 142.861 46.3572C143.026 46.3452 142.67 46.315 142.787 46.3437C142.848 46.3589 142.954 46.429 142.692 46.3013C142.741 46.3253 142.792 46.346 142.842 46.3692C143.536 46.6937 144.222 47.0557 144.867 47.4681C145.272 47.7269 145.656 48.017 146.061 48.2772C146.509 48.5655 146.969 48.8373 147.437 49.0921C148.407 49.6199 149.419 50.0744 150.453 50.4618C152.468 51.2166 154.585 51.6752 156.727 51.8662C158.843 52.0547 161.007 51.9736 163.092 51.5549C165.058 51.16 166.97 50.4425 168.727 49.4774C171.918 47.7252 174.932 44.9417 175.974 41.3461C176.082 40.9721 176.164 40.5912 176.22 40.2059C176.274 39.8339 176.128 39.4118 175.716 39.3178C175.375 39.24 174.887 39.4224 174.829 39.822C174.771 40.2235 174.684 40.6201 174.569 41.0092C174.518 41.1818 174.462 41.353 174.4 41.5222C174.367 41.6152 174.331 41.7075 174.295 41.7994C174.276 41.845 174.26 41.893 174.238 41.9372C174.331 41.7489 174.229 41.9549 174.212 41.9932C173.869 42.7589 173.426 43.47 172.926 44.1421C172.849 44.2457 172.93 44.1387 172.942 44.1215C172.911 44.164 172.877 44.205 172.844 44.2463C172.778 44.3295 172.711 44.4118 172.643 44.4935C172.494 44.6721 172.34 44.8469 172.182 45.0178C171.884 45.3395 171.572 45.6475 171.247 45.9421C171.082 46.092 170.914 46.2385 170.743 46.3813C170.656 46.4533 170.569 46.5246 170.482 46.5949C170.452 46.6183 170.423 46.6418 170.393 46.6651C170.364 46.6885 170.334 46.7117 170.305 46.7349C170.376 46.6798 170.38 46.6768 170.316 46.7258C169.936 47.0135 169.547 47.2889 169.146 47.5474C168.361 48.0538 167.538 48.5009 166.688 48.8874C166.581 48.9362 166.473 48.984 166.365 49.0309C166.341 49.0412 166.158 49.1181 166.32 49.0507C166.265 49.0734 166.211 49.096 166.156 49.1184C165.937 49.2078 165.717 49.2933 165.494 49.3746C165.031 49.5443 164.562 49.6966 164.087 49.8303C163.632 49.9584 163.172 50.0696 162.708 50.1627C162.477 50.209 162.245 50.2509 162.013 50.2882C161.916 50.3037 161.819 50.3179 161.722 50.3322C161.526 50.3613 161.879 50.3135 161.681 50.338C161.604 50.3476 161.526 50.3575 161.449 50.3664C160.412 50.4858 159.367 50.5317 158.324 50.51C157.812 50.4992 157.301 50.4719 156.791 50.4279C156.536 50.4058 156.282 50.3797 156.028 50.3494C155.964 50.3418 155.901 50.3335 155.837 50.3259C155.633 50.3013 155.932 50.3398 155.807 50.3223C155.67 50.303 155.533 50.2835 155.397 50.2622C154.366 50.102 153.347 49.8731 152.348 49.5764C151.859 49.4311 151.374 49.2695 150.896 49.0919C150.657 49.0031 150.419 48.9102 150.183 48.8133C150.124 48.7891 150.065 48.7647 150.006 48.7398C150.155 48.8028 149.96 48.7197 149.944 48.7124C149.827 48.6617 149.71 48.6099 149.594 48.5571C148.643 48.1255 147.723 47.6272 146.843 47.0651C146.104 46.5928 145.405 46.0802 144.632 45.6621C144.31 45.4879 143.984 45.3197 143.653 45.1618C143.408 45.045 143.176 44.9235 142.898 44.9143C142.312 44.8947 141.689 45.1576 141.143 45.3409C140.405 45.5892 139.669 45.8514 138.912 46.0424C138.736 46.0869 138.558 46.1275 138.379 46.1605C138.317 46.172 138.024 46.2018 138.279 46.1811C138.2 46.1875 138.122 46.1995 138.043 46.205C137.97 46.2101 137.897 46.2143 137.824 46.2125C137.8 46.2119 137.773 46.2075 137.75 46.209C137.637 46.2161 137.952 46.252 137.842 46.2207C137.795 46.2074 137.741 46.1865 137.694 46.179C137.87 46.2069 137.844 46.2531 137.772 46.2102C137.745 46.1942 137.713 46.1686 137.685 46.1572C137.858 46.2257 137.809 46.2701 137.762 46.2143C137.749 46.1991 137.732 46.1824 137.717 46.1693C137.633 46.0943 137.829 46.3298 137.769 46.2336C137.717 46.1509 137.787 46.176 137.796 46.3126C137.795 46.2921 137.78 46.2541 137.773 46.2346C137.732 46.1267 137.769 46.4303 137.784 46.312C137.786 46.2938 137.793 46.2345 137.787 46.2182C137.766 46.3548 137.763 46.3851 137.777 46.3093C137.783 46.2854 137.789 46.2617 137.796 46.2382C137.825 46.1377 137.864 46.174 137.78 46.2593C137.805 46.2338 137.823 46.1695 137.841 46.1375C137.887 46.0527 137.942 45.9748 137.997 45.8954C138.061 45.8029 137.881 46.0206 138.016 45.8749C138.062 45.8255 138.105 45.7733 138.151 45.7242C138.188 45.6852 138.227 45.6484 138.261 45.6082C138.885 44.8919 139.454 44.1209 140.048 43.3801C140.11 43.3017 140.173 43.2233 140.236 43.1449C140.447 42.8824 140.513 42.5775 140.349 42.2702C140.12 41.8418 139.909 41.4042 139.717 40.9583C139.692 40.9018 139.651 40.8026 139.7 40.9201C139.674 40.8581 139.648 40.7962 139.623 40.7341C139.576 40.618 139.53 40.5013 139.485 40.3843C139.395 40.1478 139.308 39.9094 139.226 39.6697C138.89 38.6851 138.627 37.676 138.43 36.6544C138.38 36.3951 138.334 36.135 138.293 35.8741C138.273 35.7436 138.253 35.6128 138.235 35.4818C138.23 35.4515 138.226 35.4212 138.222 35.3911C138.223 35.3993 138.238 35.5167 138.228 35.4317C138.218 35.3509 138.207 35.2702 138.197 35.1894C138.135 34.6651 138.089 34.1386 138.063 33.6113C138.011 32.5757 138.029 31.5356 138.133 30.5036C138.145 30.3872 138.158 30.271 138.171 30.1548C138.18 30.0874 138.187 30.0197 138.197 29.9526C138.174 30.1017 138.198 29.946 138.207 29.8862C138.243 29.64 138.284 29.3947 138.332 29.1503C138.423 28.6732 138.537 28.2001 138.675 27.7344C138.806 27.2921 138.957 26.8554 139.124 26.4255C139.166 26.3186 139.209 26.2122 139.252 26.106C139.305 25.9766 139.206 26.2115 139.262 26.0832C139.286 26.0265 139.311 25.9698 139.335 25.9133C139.428 25.7035 139.525 25.4957 139.626 25.2899C140.03 24.4665 140.503 23.6771 141.041 22.9342C141.108 22.8411 141.177 22.7487 141.246 22.6572C141.262 22.636 141.278 22.6149 141.295 22.5938C141.345 22.5278 141.263 22.6335 141.263 22.6348C141.261 22.6056 141.358 22.5134 141.378 22.4888C141.528 22.3015 141.681 22.1178 141.839 21.9376C142.145 21.5886 142.467 21.2532 142.803 20.9332C143.143 20.6095 143.498 20.3012 143.865 20.0098C143.917 19.969 143.991 19.9128 143.892 19.9883C143.935 19.9551 143.979 19.9218 144.022 19.8889C144.125 19.8118 144.228 19.7362 144.332 19.6616C144.527 19.5224 144.725 19.3877 144.926 19.2575C145.335 18.9932 145.756 18.748 146.187 18.5223C146.406 18.4074 146.629 18.2977 146.853 18.1931C146.958 18.1443 147.063 18.0966 147.169 18.0501C147.204 18.0346 147.24 18.0193 147.275 18.0038C147.287 17.9983 147.377 17.9595 147.296 17.9944C147.214 18.0295 147.304 17.9908 147.317 17.9857C147.353 17.9709 147.389 17.956 147.425 17.9413C147.662 17.8449 147.9 17.7546 148.141 17.6686C148.495 17.542 148.77 17.1707 148.644 16.7806C148.531 16.431 148.137 16.1405 147.757 16.2764Z" fill="#1E3050"/>
<path d="M165.167 21.6299C165.542 20.0403 164.558 18.4473 162.971 18.0719C161.383 17.6966 159.792 18.6809 159.417 20.2706C159.042 21.8603 160.025 23.4532 161.613 23.8286C163.201 24.2039 164.792 23.2196 165.167 21.6299Z" fill="#1E3050"/>
<path d="M171.422 24.0518C173.053 24.0518 174.376 22.7277 174.376 21.0942C174.376 19.4608 173.053 18.1367 171.422 18.1367C169.79 18.1367 168.468 19.4608 168.468 21.0942C168.468 22.7277 169.79 24.0518 171.422 24.0518Z" fill="#1E3050"/>
<path d="M180.554 24.0518C182.185 24.0518 183.508 22.7277 183.508 21.0942C183.508 19.4608 182.185 18.1367 180.554 18.1367C178.922 18.1367 177.599 19.4608 177.599 21.0942C177.599 22.7277 178.922 24.0518 180.554 24.0518Z" fill="#1E3050"/>
<path d="M162.123 332.83C162.199 332.77 162.233 332.735 162.123 332.83V332.83Z" fill="white"/>
<path d="M128.698 311.23C130.032 314.494 131.744 317.583 133.74 320.487C135.687 323.32 137.879 325.993 140.278 328.455C142.414 330.646 144.723 332.681 147.223 334.448C149.141 335.803 151.23 337.052 153.489 337.741C154.31 337.992 155.185 338.161 156.046 338.145C157.57 338.103 159.052 337.33 160.337 336.576C162.303 335.423 164.113 333.987 165.811 332.473C167.888 330.621 169.807 328.59 171.565 326.433C173.559 323.987 175.366 321.385 176.897 318.624C178.484 315.762 179.793 312.721 180.67 309.565C181.623 306.135 182.065 302.548 181.723 298.995C181.367 295.298 180.288 291.727 178.634 288.406C177.092 285.309 175.044 282.445 172.643 279.957C170.225 277.451 167.418 275.348 164.212 273.967C160.831 272.51 157.17 271.748 153.484 271.822C150.011 271.891 146.632 272.729 143.468 274.142C140.751 275.356 138.247 277.041 136.064 279.062C133.931 281.037 132.102 283.362 130.655 285.883C129.208 288.405 128.121 291.155 127.46 293.988C126.801 296.814 126.538 299.748 126.737 302.644C126.939 305.589 127.582 308.496 128.698 311.23ZM128.984 304.202C128.99 304.243 128.993 304.267 128.995 304.281C128.991 304.255 128.988 304.228 128.984 304.202Z" fill="white"/>
<path d="M163.19 303.196C163.191 303.189 163.192 303.182 163.193 303.174C163.195 303.16 163.197 303.146 163.199 303.135C163.199 303.134 163.199 303.133 163.199 303.132C163.167 303.327 163.179 303.268 163.19 303.196Z" fill="white"/>
<path d="M156.625 309.714C156.626 309.714 156.627 309.714 156.628 309.713C156.7 309.705 156.88 309.672 156.625 309.714Z" fill="white"/>
<path d="M163.199 301.161C163.199 301.16 163.199 301.159 163.199 301.158C163.19 301.086 163.157 300.906 163.199 301.161Z" fill="white"/>
<path d="M156.628 294.58C156.627 294.58 156.626 294.58 156.625 294.58C156.88 294.622 156.7 294.588 156.628 294.58Z" fill="white"/>
<path d="M156.046 338.145C157.57 338.103 159.052 337.33 160.337 336.576C162.303 335.423 164.113 333.987 165.811 332.473C167.888 330.621 169.807 328.59 171.565 326.433C173.559 323.987 175.366 321.385 176.897 318.624C178.484 315.762 179.793 312.721 180.67 309.565C181.623 306.135 182.065 302.548 181.723 298.995C181.367 295.298 180.288 291.727 178.634 288.406C177.092 285.309 175.044 282.445 172.643 279.957C170.225 277.451 167.418 275.348 164.212 273.967C160.831 272.51 157.17 271.748 153.484 271.822C150.011 271.891 146.632 272.729 143.468 274.142C140.751 275.356 138.247 277.041 136.064 279.062C133.931 281.037 132.102 283.362 130.655 285.883C129.208 288.405 128.121 291.155 127.46 293.988C126.801 296.814 126.538 299.748 126.737 302.644C126.939 305.589 127.582 308.497 128.698 311.23C130.032 314.494 131.743 317.584 133.739 320.487C135.687 323.32 137.879 325.994 140.278 328.455C142.413 330.646 144.723 332.682 147.223 334.448C149.141 335.803 151.23 337.053 153.489 337.742C154.31 337.992 155.185 338.161 156.046 338.145C156.594 338.135 157.12 337.67 157.094 337.096C157.069 336.536 156.633 336.036 156.046 336.047C155.866 336.05 155.686 336.045 155.507 336.031C155.412 336.023 155.318 336.01 155.224 336.002C155.156 335.996 155.515 336.047 155.325 336.015C155.272 336.006 155.219 335.999 155.166 335.989C154.745 335.917 154.329 335.809 153.921 335.679C153.697 335.608 153.476 335.53 153.256 335.447C153.142 335.404 153.027 335.359 152.914 335.312C152.875 335.297 152.685 335.218 152.852 335.287C153.026 335.36 152.771 335.251 152.734 335.235C152.24 335.017 151.755 334.775 151.28 334.517C150.197 333.931 149.159 333.262 148.156 332.548C147.883 332.353 147.612 332.154 147.343 331.952C147.206 331.848 147.069 331.744 146.933 331.639C147.077 331.75 146.965 331.664 146.892 331.606C146.817 331.548 146.743 331.49 146.669 331.431C146.104 330.982 145.55 330.52 145.006 330.046C142.609 327.958 140.4 325.652 138.383 323.196C138.119 322.875 137.858 322.55 137.601 322.223C137.541 322.147 137.482 322.072 137.422 321.995C137.393 321.957 137.363 321.919 137.333 321.881C137.231 321.75 137.421 321.996 137.32 321.864C137.193 321.697 137.066 321.53 136.94 321.363C136.434 320.688 135.942 320.003 135.466 319.307C134.502 317.897 133.602 316.443 132.781 314.946C132.377 314.209 131.991 313.461 131.628 312.703C131.447 312.327 131.272 311.948 131.102 311.567C131.024 311.391 130.947 311.216 130.872 311.039C130.853 310.995 130.834 310.951 130.815 310.907C130.888 311.078 130.823 310.925 130.81 310.893C130.767 310.79 130.725 310.687 130.683 310.583C130.151 309.273 129.725 307.92 129.41 306.541C129.254 305.859 129.125 305.172 129.023 304.48C129.009 304.388 128.997 304.295 128.984 304.202C129.01 304.387 128.993 304.269 128.979 304.162C128.956 303.976 128.935 303.79 128.915 303.603C128.879 303.257 128.85 302.911 128.827 302.564C128.736 301.179 128.75 299.788 128.865 298.406C128.894 298.061 128.929 297.716 128.97 297.372C128.98 297.293 128.99 297.214 129 297.134C129.026 296.926 128.975 297.305 129.005 297.097C129.032 296.912 129.059 296.728 129.088 296.544C129.197 295.86 129.331 295.18 129.49 294.506C129.809 293.145 130.227 291.808 130.738 290.507C130.797 290.358 130.857 290.21 130.917 290.062C130.933 290.025 130.948 289.988 130.963 289.951C130.961 289.958 130.887 290.128 130.935 290.018C130.978 289.92 131.019 289.822 131.062 289.725C131.201 289.407 131.345 289.093 131.496 288.781C131.797 288.156 132.119 287.543 132.464 286.942C132.81 286.34 133.176 285.751 133.564 285.176C133.759 284.888 133.958 284.604 134.163 284.324C134.265 284.184 134.369 284.044 134.474 283.906C134.53 283.831 134.617 283.721 134.505 283.864C134.563 283.79 134.62 283.716 134.678 283.643C135.554 282.539 136.512 281.502 137.545 280.545C138.061 280.069 138.595 279.612 139.145 279.176C139.216 279.121 139.334 279.03 139.19 279.14C139.254 279.091 139.319 279.041 139.384 278.992C139.536 278.878 139.689 278.765 139.843 278.653C140.13 278.446 140.421 278.244 140.717 278.048C141.914 277.254 143.176 276.559 144.487 275.971C144.563 275.937 144.64 275.902 144.717 275.869C144.767 275.847 145.009 275.744 144.902 275.789C144.786 275.837 145.013 275.743 145.049 275.728C145.141 275.691 145.232 275.654 145.324 275.618C145.667 275.482 146.013 275.354 146.361 275.232C147.085 274.98 147.819 274.758 148.562 274.571C148.999 274.461 149.44 274.365 149.883 274.281C150.08 274.244 150.277 274.21 150.475 274.178C150.574 274.162 150.673 274.146 150.772 274.132C150.821 274.124 150.871 274.117 150.92 274.11C151.236 274.065 150.806 274.121 150.989 274.101C151.853 274.005 152.715 273.931 153.584 273.918C154.452 273.904 155.321 273.938 156.186 274.017C156.385 274.035 156.585 274.056 156.784 274.079C156.9 274.093 157.016 274.107 157.132 274.122C156.946 274.098 157.243 274.139 157.3 274.147C157.729 274.211 158.157 274.287 158.583 274.374C159.434 274.547 160.276 274.766 161.105 275.028C161.519 275.159 161.929 275.301 162.336 275.453C162.539 275.53 162.741 275.609 162.942 275.691C162.988 275.709 163.214 275.803 163.062 275.739C163.17 275.785 163.277 275.831 163.384 275.879C164.986 276.589 166.511 277.473 167.917 278.521C167.997 278.581 168.077 278.642 168.156 278.703C168.031 278.606 168.224 278.757 168.26 278.786C168.437 278.926 168.61 279.069 168.783 279.214C169.074 279.459 169.36 279.71 169.642 279.966C170.221 280.492 170.78 281.039 171.319 281.605C171.873 282.188 172.407 282.791 172.918 283.412C173.047 283.57 173.176 283.729 173.302 283.889C173.361 283.963 173.42 284.038 173.478 284.112C173.551 284.207 173.47 284.102 173.459 284.088C173.497 284.138 173.536 284.188 173.574 284.239C173.824 284.569 174.069 284.903 174.306 285.242C175.287 286.638 176.161 288.109 176.912 289.641C177.101 290.027 177.282 290.416 177.455 290.809C177.495 290.9 177.534 290.991 177.573 291.082C177.621 291.194 177.573 291.08 177.565 291.061C177.584 291.107 177.603 291.153 177.622 291.199C177.711 291.414 177.798 291.63 177.881 291.847C178.195 292.659 178.474 293.484 178.714 294.32C178.958 295.165 179.162 296.021 179.324 296.885C179.365 297.103 179.404 297.321 179.439 297.539C179.456 297.641 179.472 297.742 179.487 297.843C179.495 297.894 179.502 297.945 179.51 297.995C179.512 298.014 179.541 298.214 179.526 298.11C179.511 297.999 179.534 298.167 179.535 298.174C179.543 298.243 179.552 298.311 179.56 298.379C179.572 298.481 179.584 298.583 179.595 298.686C179.619 298.909 179.64 299.132 179.659 299.355C179.735 300.275 179.762 301.2 179.739 302.123C179.728 302.584 179.704 303.044 179.668 303.503C179.651 303.717 179.631 303.931 179.609 304.144C179.598 304.251 179.586 304.358 179.573 304.465C179.566 304.525 179.516 304.909 179.544 304.706C179.33 306.263 178.996 307.802 178.562 309.312C178.345 310.066 178.103 310.812 177.839 311.551C177.706 311.92 177.569 312.286 177.425 312.651C177.354 312.833 177.281 313.015 177.207 313.196C177.172 313.28 177.137 313.363 177.103 313.447C177.057 313.559 177.115 313.418 177.121 313.404C177.098 313.46 177.074 313.515 177.05 313.571C175.825 316.426 174.282 319.142 172.519 321.698C172.093 322.316 171.654 322.925 171.202 323.524C171.09 323.672 170.978 323.82 170.865 323.967C170.976 323.822 170.869 323.961 170.82 324.024C170.759 324.102 170.698 324.18 170.637 324.258C170.41 324.544 170.181 324.829 169.949 325.111C169.046 326.211 168.101 327.275 167.115 328.301C166.212 329.24 165.275 330.146 164.302 331.013C163.853 331.412 163.396 331.804 162.931 332.185C162.709 332.366 162.486 332.545 162.26 332.722C162.209 332.762 162.156 332.799 162.107 332.842C162.253 332.716 162.191 332.777 162.091 332.853C161.983 332.936 161.874 333.018 161.764 333.099C160.964 333.695 160.139 334.259 159.279 334.764C158.917 334.976 158.549 335.178 158.173 335.364C158.003 335.448 157.831 335.528 157.657 335.605C157.619 335.622 157.58 335.637 157.542 335.655C157.479 335.683 157.811 335.546 157.642 335.612C157.555 335.646 157.47 335.681 157.384 335.713C157.106 335.818 156.823 335.909 156.534 335.977C156.409 336.006 156.279 336.019 156.154 336.05C156.175 336.045 156.48 336.016 156.318 336.027C156.29 336.029 156.262 336.033 156.234 336.036C156.171 336.041 156.108 336.045 156.046 336.047C155.498 336.062 154.972 336.518 154.998 337.096C155.023 337.652 155.459 338.162 156.046 338.145Z" fill="#1E3050"/>
<path d="M163.255 302.147C163.254 302.368 163.247 302.588 163.23 302.809C163.222 302.917 163.212 303.026 163.2 303.135C163.191 303.213 163.153 303.415 163.21 303.071C163.198 303.142 163.189 303.214 163.178 303.285C163.106 303.723 163 304.156 162.861 304.578C162.801 304.762 162.732 304.942 162.662 305.122C162.588 305.312 162.769 304.879 162.687 305.064C162.666 305.112 162.645 305.16 162.623 305.208C162.573 305.319 162.52 305.429 162.465 305.537C162.269 305.923 162.045 306.294 161.794 306.646C161.743 306.718 161.507 307.012 161.742 306.724C161.676 306.804 161.613 306.886 161.547 306.965C161.415 307.124 161.277 307.277 161.134 307.426C160.99 307.574 160.842 307.718 160.688 307.856C160.612 307.925 160.534 307.993 160.455 308.059C160.381 308.12 160.037 308.366 160.344 308.152C159.988 308.401 159.64 308.648 159.258 308.856C159.091 308.948 158.92 309.034 158.747 309.114C158.664 309.152 158.31 309.284 158.662 309.155C158.547 309.197 158.434 309.246 158.319 309.288C157.904 309.439 157.477 309.558 157.043 309.643C156.937 309.664 156.831 309.683 156.725 309.7C156.672 309.708 156.618 309.715 156.565 309.724C156.908 309.666 156.706 309.704 156.628 309.713C156.411 309.738 156.192 309.754 155.974 309.763C155.514 309.78 155.057 309.756 154.6 309.707C154.391 309.684 154.872 309.748 154.664 309.716C154.611 309.708 154.558 309.7 154.504 309.691C154.398 309.674 154.293 309.654 154.187 309.633C153.97 309.589 153.754 309.536 153.541 309.475C153.346 309.42 153.154 309.357 152.963 309.288C152.865 309.252 152.767 309.213 152.669 309.175C152.48 309.101 152.913 309.282 152.727 309.2C152.663 309.171 152.599 309.143 152.536 309.114C152.143 308.932 151.764 308.72 151.403 308.481C151.245 308.377 151.095 308.261 150.939 308.152C151.242 308.363 150.937 308.149 150.868 308.092C150.775 308.015 150.684 307.936 150.594 307.856C150.275 307.568 149.977 307.257 149.703 306.925C149.646 306.856 149.431 306.551 149.642 306.854C149.583 306.769 149.519 306.688 149.459 306.604C149.34 306.434 149.227 306.261 149.12 306.083C149.013 305.905 148.912 305.723 148.818 305.537C148.771 305.444 148.726 305.35 148.682 305.255C148.66 305.208 148.638 305.16 148.617 305.112C148.506 304.86 148.687 305.292 148.621 305.122C148.46 304.711 148.322 304.293 148.221 303.863C148.176 303.672 148.137 303.479 148.105 303.285C148.097 303.231 148.089 303.178 148.08 303.125C148.048 302.917 148.112 303.398 148.09 303.188C148.076 303.062 148.062 302.935 148.052 302.808C148.018 302.35 148.019 301.888 148.057 301.43C148.066 301.321 148.078 301.213 148.09 301.104C148.112 300.895 148.048 301.376 148.08 301.168C148.089 301.115 148.097 301.061 148.105 301.008C148.14 300.796 148.183 300.586 148.233 300.378C148.337 299.946 148.489 299.538 148.641 299.122C148.512 299.474 148.643 299.12 148.682 299.037C148.726 298.943 148.771 298.849 148.818 298.756C148.92 298.555 149.03 298.358 149.147 298.165C149.246 298.003 149.35 297.844 149.459 297.689C149.519 297.604 149.583 297.523 149.642 297.438C149.428 297.745 149.675 297.401 149.736 297.327C150.011 296.997 150.312 296.688 150.633 296.402C150.71 296.334 150.788 296.267 150.868 296.201C150.908 296.167 151.163 295.966 151.004 296.09C150.845 296.213 151.105 296.017 151.147 295.987C151.246 295.917 151.345 295.849 151.446 295.783C151.809 295.546 152.189 295.336 152.584 295.157C152.631 295.135 152.679 295.114 152.727 295.093C152.913 295.01 152.48 295.192 152.669 295.118C152.767 295.079 152.865 295.041 152.963 295.005C153.162 294.932 153.363 294.868 153.566 294.81C153.771 294.752 153.979 294.702 154.187 294.66C154.293 294.638 154.398 294.619 154.504 294.601C154.558 294.593 154.611 294.585 154.664 294.577C154.85 294.548 154.371 294.611 154.654 294.579C155.11 294.527 155.57 294.512 156.029 294.532C156.229 294.541 156.429 294.557 156.628 294.579C156.706 294.588 156.908 294.626 156.565 294.569C156.618 294.578 156.672 294.584 156.725 294.593C156.849 294.612 156.972 294.635 157.095 294.66C157.528 294.747 157.954 294.869 158.369 295.022C158.467 295.059 158.563 295.101 158.662 295.137C158.31 295.008 158.664 295.14 158.747 295.178C158.936 295.266 159.122 295.36 159.304 295.461C159.485 295.562 159.663 295.669 159.837 295.783C159.923 295.839 160.009 295.897 160.094 295.957C160.17 296.011 160.506 296.277 160.214 296.039C160.548 296.311 160.871 296.591 161.169 296.904C161.3 297.041 161.426 297.182 161.547 297.327C161.613 297.407 161.676 297.488 161.741 297.568C161.503 297.276 161.77 297.612 161.823 297.689C162.072 298.042 162.295 298.415 162.488 298.802C162.535 298.895 162.58 298.99 162.623 299.085C162.644 299.132 162.665 299.18 162.686 299.228C162.769 299.414 162.588 298.981 162.662 299.171C162.738 299.367 162.812 299.564 162.877 299.764C163.013 300.188 163.117 300.622 163.186 301.061C163.194 301.114 163.201 301.168 163.21 301.221C163.152 300.878 163.19 301.08 163.199 301.158C163.211 301.266 163.222 301.375 163.23 301.484C163.247 301.705 163.254 301.926 163.255 302.147C163.257 302.695 163.736 303.221 164.303 303.196C164.869 303.17 165.353 302.735 165.351 302.147C165.345 300.178 164.748 298.195 163.603 296.588C162.429 294.939 160.824 293.703 158.926 293C157.054 292.306 154.927 292.246 153.009 292.787C151.153 293.311 149.43 294.41 148.204 295.904C146.898 297.496 146.12 299.401 145.959 301.457C145.803 303.432 146.299 305.471 147.324 307.164C148.314 308.8 149.804 310.169 151.549 310.959C153.464 311.825 155.562 312.074 157.626 311.662C159.517 311.283 161.3 310.282 162.634 308.891C163.978 307.489 164.924 305.664 165.216 303.736C165.295 303.208 165.35 302.681 165.351 302.147C165.353 301.598 164.868 301.072 164.303 301.097C163.734 301.123 163.257 301.558 163.255 302.147Z" fill="#1E3050"/>
</g>
</svg>
