<svg width="300" height="273" viewBox="0 0 300 273" fill="none" xmlns="http://www.w3.org/2000/svg">
<g clip-path="url(#clip0_1772_1565)">
<path d="M329.216 233.476H-27.0784V233.654H329.216V233.476Z" fill="#EBEBEB"/>
<path d="M33.9057 244.954H10.3033V245.132H33.9057V244.954Z" fill="#EBEBEB"/>
<path d="M101.069 246.89H69.3584V247.068H101.069V246.89Z" fill="#EBEBEB"/>
<path d="M84.7981 238.332H34.619V238.51H84.7981V238.332Z" fill="#EBEBEB"/>
<path d="M293.516 239.53H284.471V239.709H293.516V239.53Z" fill="#EBEBEB"/>
<path d="M278.126 239.53H251.88V239.709H278.126V239.53Z" fill="#EBEBEB"/>
<path d="M192.636 242.542H170.461V242.72H192.636V242.542Z" fill="#EBEBEB"/>
<path d="M141.815 201.672H4.21492C1.9724 201.672 0.147461 199.846 0.147461 197.601V4.03634C0.147461 1.79213 1.9724 -0.0341797 4.21492 -0.0341797H141.815C144.057 -0.0341797 145.882 1.79213 145.882 4.03634V197.601C145.882 199.846 144.057 201.672 141.815 201.672ZM4.21492 0.144814C2.07003 0.144814 0.325608 1.89054 0.325608 4.03705V197.602C0.325608 199.749 2.07003 201.494 4.21492 201.494H141.815C143.959 201.494 145.704 199.749 145.704 197.602V4.03634C145.704 1.89054 143.959 0.144102 141.815 0.144102L4.21492 0.144814Z" fill="#EBEBEB"/>
<path d="M295.945 201.672H158.346C156.103 201.672 154.279 199.846 154.279 197.601V4.03634C154.279 1.79213 156.104 -0.0341797 158.346 -0.0341797H295.945C298.189 -0.0341797 300.013 1.79213 300.013 4.03634V197.601C300.013 199.846 298.189 201.672 295.945 201.672ZM158.346 0.144814C156.202 0.144814 154.457 1.89054 154.457 4.03705V197.602C154.457 199.749 156.202 201.494 158.346 201.494H295.945C298.09 201.494 299.835 199.749 299.835 197.602V4.03634C299.835 1.89054 298.09 0.144102 295.945 0.144102L158.346 0.144814Z" fill="#EBEBEB"/>
<path d="M199.207 162.6L199.207 9.7771L11.4801 9.7771L11.4801 162.6L199.207 162.6Z" fill="#EBEBEB"/>
<path d="M200.338 162.6L200.338 9.7771H199.207L199.207 162.6H200.338Z" fill="#E0E0E0"/>
<path d="M20.736 153.337L189.952 153.337L189.952 19.0388L20.736 19.0388L20.736 153.337Z" fill="#F5F5F5"/>
<path d="M97.8064 153.338H120.527L82.6803 19.0391H59.9608L97.8064 153.338Z" fill="white"/>
<path d="M79.5691 153.338H92.7064L54.8601 19.0391H41.7228L79.5691 153.338Z" fill="white"/>
<path d="M152.391 153.338H157.83L119.984 19.0391H114.545L152.391 153.338Z" fill="white"/>
<path d="M276.402 227.618H78.2744C75.3905 227.618 73.1088 225.257 73.2043 222.371L77.8924 80.618C77.9879 77.732 80.4257 75.3708 83.3095 75.3708H281.437C284.321 75.3708 286.603 77.732 286.507 80.618L281.819 222.371C281.724 225.257 279.286 227.618 276.402 227.618Z" fill="#E0E0E0"/>
<g opacity="0.6">
<path d="M274.784 227.618H76.6568C73.773 227.618 71.4913 225.257 71.5868 222.371L76.2749 80.618C76.3704 77.732 78.8081 75.3708 81.692 75.3708H279.82C282.703 75.3708 284.985 77.732 284.89 80.618L280.201 222.371C280.106 225.257 277.668 227.618 274.784 227.618Z" fill="#FAFAFA"/>
</g>
<path d="M272.233 227.359H32.9473C30.4547 227.359 28.2905 228.812 27.2936 230.896C26.72 232.095 27.5972 233.476 28.9483 233.476H276.232C277.582 233.476 278.459 232.094 277.886 230.896C276.889 228.812 274.725 227.359 272.233 227.359Z" fill="#E0E0E0"/>
<path opacity="0.6" d="M32.9474 227.359H223.895C226.387 227.359 228.552 228.812 229.549 230.896C230.122 232.095 229.245 233.476 227.894 233.476H28.9483C27.598 233.476 26.72 232.094 27.2937 230.896C28.2906 228.812 30.4547 227.359 32.9474 227.359Z" fill="#FAFAFA"/>
<path opacity="0.3" d="M147.087 231.249H97.4095C96.186 231.249 95.1848 232.251 95.1848 233.476H149.312C149.312 232.251 148.31 231.249 147.087 231.249Z" fill="#E0E0E0"/>
<path opacity="0.9" d="M76.3205 217.244L80.6701 85.744C80.7072 84.6201 81.657 83.7002 82.7801 83.7002H278.181C279.304 83.7002 280.193 84.6201 280.156 85.744L275.806 217.244C275.769 218.368 274.82 219.288 273.696 219.288H78.295C77.172 219.288 76.2834 218.369 76.3205 217.244Z" fill="white"/>
<path d="M81.4968 211.648L85.4816 91.171C85.5272 89.7889 86.6602 88.6921 88.0419 88.6921H272.419C273.867 88.6921 275.027 89.8923 274.98 91.3407L270.995 211.817C270.949 213.2 269.816 214.296 268.435 214.296H84.0571C82.6091 214.296 81.449 213.096 81.4968 211.648Z" fill="#F0F0F0"/>
<path d="M231.907 219.294H264.299L226.97 83.7002H194.577L231.907 219.294Z" fill="white"/>
<path d="M211.275 219.294H222.929L185.599 83.7002H173.944L211.275 219.294Z" fill="white"/>
<path d="M144.948 219.294H156.603L119.272 83.7002H107.618L144.948 219.294Z" fill="white"/>
<path opacity="0.4" d="M182.147 161.309C182.119 162.159 181.408 162.847 180.559 162.847C179.711 162.847 179.045 162.159 179.074 161.309C179.101 160.46 179.813 159.772 180.661 159.772C181.51 159.771 182.176 160.46 182.147 161.309Z" fill="white"/>
<path d="M151.069 265.683C227.374 265.683 289.232 262.067 289.232 257.608C289.232 253.148 227.374 249.533 151.069 249.533C74.7634 249.533 12.9056 253.148 12.9056 257.608C12.9056 262.067 74.7634 265.683 151.069 265.683Z" fill="#F5F5F5"/>
<path opacity="0.5" d="M85.5142 165.99C54.3191 134.772 54.3191 84.1643 85.5056 52.9551C116.701 21.7366 167.27 21.7366 198.465 52.9551C229.651 84.1643 229.651 134.773 198.457 165.99C167.27 197.2 116.7 197.2 85.5142 165.99Z" fill="white"/>
<path d="M257.727 210.793C257.402 209.21 256.765 207.939 255.908 206.888C254.064 204.917 252.096 203.069 250.16 201.19C248.209 199.325 246.241 197.478 244.229 195.674C242.242 193.847 240.198 192.074 238.155 190.302C234.038 186.789 229.821 183.374 225.45 180.116C223.454 178.637 221.434 177.183 219.373 175.77C220.33 173.154 219.768 170.105 217.67 168.006L214.667 165.001C214.129 164.462 213.527 164.023 212.886 163.686C239.681 128.678 237.087 78.3638 205.081 46.3345C170.239 11.4663 113.733 11.4663 78.8907 46.3345C44.0486 81.2028 44.0565 137.744 78.8985 172.612C110.907 204.644 161.183 207.246 196.163 180.423C196.5 181.064 196.937 181.666 197.476 182.205L200.478 185.21C202.577 187.31 205.622 187.873 208.238 186.914C209.649 188.977 211.102 190.999 212.58 192.996C215.837 197.371 219.249 201.59 222.759 205.711C224.53 207.755 226.3 209.801 228.127 211.79C229.929 213.803 231.775 215.773 233.638 217.725C235.516 219.663 237.363 221.631 239.332 223.477C240.383 224.334 241.652 224.972 243.234 225.298C244.834 225.605 246.661 225.686 249.181 225.072C253.151 224.095 256.468 220.994 257.502 216.744C258.115 214.222 258.034 212.395 257.727 210.793ZM83.1847 168.322C50.7035 135.817 50.7035 83.1211 83.1755 50.624C115.657 18.1183 168.313 18.1183 200.795 50.624C233.267 83.1211 233.267 135.817 200.785 168.322C168.313 200.82 115.657 200.82 83.1847 168.322Z" fill="url(#paint0_linear_1772_1565)"/>
<path opacity="0.2" d="M257.727 210.793C257.402 209.21 256.765 207.939 255.908 206.888C254.064 204.917 252.096 203.069 250.16 201.19C248.209 199.325 246.241 197.478 244.229 195.674C242.242 193.847 240.198 192.074 238.155 190.302C234.038 186.789 229.821 183.374 225.45 180.116C223.454 178.637 221.434 177.183 219.373 175.77C220.33 173.154 219.768 170.105 217.67 168.006L214.667 165.001C214.129 164.462 213.527 164.023 212.886 163.686C239.681 128.678 237.087 78.3638 205.081 46.3345C170.239 11.4663 113.733 11.4663 78.8907 46.3345C44.0486 81.2028 44.0565 137.744 78.8985 172.612C110.907 204.644 161.183 207.246 196.163 180.423C196.5 181.064 196.937 181.666 197.476 182.205L200.478 185.21C202.577 187.31 205.622 187.873 208.238 186.914C209.649 188.977 211.102 190.999 212.58 192.996C215.837 197.371 219.249 201.59 222.759 205.711C224.53 207.755 226.3 209.801 228.127 211.79C229.929 213.803 231.775 215.773 233.638 217.725C235.516 219.663 237.363 221.631 239.332 223.477C240.383 224.334 241.652 224.972 243.234 225.298C244.834 225.605 246.661 225.686 249.181 225.072C253.151 224.095 256.468 220.994 257.502 216.744C258.115 214.222 258.034 212.395 257.727 210.793ZM83.1847 168.322C50.7035 135.817 50.7035 83.1211 83.1755 50.624C115.657 18.1183 168.313 18.1183 200.795 50.624C233.267 83.1211 233.267 135.817 200.785 168.322C168.313 200.82 115.657 200.82 83.1847 168.322Z" fill="black"/>
<path opacity="0.3" d="M208.237 186.914L219.372 175.77C219.372 175.77 216.415 184.255 208.237 186.914Z" fill="black"/>
<path d="M225.366 72.7436C224.302 70.3119 223.12 67.9044 221.853 65.5867L222.52 65.2216C223.798 67.5585 224.989 69.9867 226.062 72.4384L225.366 72.7436ZM218.765 60.3609C215.235 54.8221 211.084 49.6498 206.426 44.9874L206.964 44.449C211.661 49.1499 215.848 54.3657 219.407 59.9516L218.765 60.3609Z" fill="url(#paint1_linear_1772_1565)"/>
<path opacity="0.2" d="M225.366 72.7436C224.302 70.3119 223.12 67.9044 221.853 65.5867L222.52 65.2216C223.798 67.5585 224.989 69.9867 226.062 72.4384L225.366 72.7436ZM218.765 60.3609C215.235 54.8221 211.084 49.6498 206.426 44.9874L206.964 44.449C211.661 49.1499 215.848 54.3657 219.407 59.9516L218.765 60.3609Z" fill="black"/>
<path d="M176.27 136.007C175.168 136.007 174.161 135.807 173.249 135.408C172.356 135.009 171.577 134.457 170.912 133.754C170.247 133.031 169.734 132.185 169.373 131.215C169.031 130.245 168.859 129.199 168.859 128.077V127.421C168.859 126.299 169.021 125.253 169.344 124.283C169.686 123.313 170.171 122.467 170.798 121.745C171.444 121.003 172.213 120.432 173.107 120.033C174 119.615 174.997 119.406 176.099 119.406C177.354 119.406 178.437 119.681 179.349 120.233C180.261 120.765 180.974 121.564 181.487 122.629C182 123.675 182.285 124.968 182.342 126.508L181.145 125.396V114.67H185.734V135.494H182.114V129.018H182.741C182.684 130.502 182.37 131.766 181.8 132.812C181.249 133.858 180.498 134.657 179.548 135.208C178.598 135.741 177.506 136.007 176.27 136.007ZM177.411 132.185C178.114 132.185 178.75 132.033 179.32 131.728C179.909 131.405 180.375 130.939 180.717 130.331C181.078 129.722 181.259 128.99 181.259 128.134V127.079C181.259 126.242 181.078 125.538 180.717 124.968C180.356 124.397 179.881 123.96 179.292 123.656C178.703 123.352 178.066 123.199 177.382 123.199C176.622 123.199 175.938 123.399 175.33 123.798C174.741 124.179 174.275 124.711 173.933 125.396C173.591 126.061 173.42 126.841 173.42 127.735C173.42 128.648 173.591 129.437 173.933 130.102C174.275 130.768 174.75 131.281 175.358 131.643C175.966 132.004 176.65 132.185 177.411 132.185Z" fill="#E0E0E0"/>
<path d="M151.234 135.494V119.862H154.854V126.565H154.598C154.598 124.968 154.797 123.637 155.196 122.572C155.615 121.507 156.242 120.708 157.078 120.176C157.914 119.643 158.93 119.377 160.128 119.377H160.327C162.151 119.377 163.539 119.976 164.489 121.174C165.458 122.353 165.942 124.15 165.942 126.565V135.494H161.382V126.309C161.382 125.472 161.135 124.787 160.641 124.255C160.147 123.723 159.482 123.456 158.645 123.456C157.79 123.456 157.097 123.732 156.565 124.283C156.052 124.816 155.795 125.52 155.795 126.394V135.494H151.234Z" fill="#E0E0E0"/>
<path d="M138.136 135.979C136.331 135.979 134.944 135.399 133.975 134.239C133.006 133.06 132.521 131.291 132.521 128.933V119.862H137.082V129.161C137.082 129.998 137.319 130.664 137.794 131.158C138.269 131.652 138.906 131.9 139.704 131.9C140.521 131.9 141.186 131.643 141.699 131.129C142.212 130.616 142.469 129.922 142.469 129.047V119.862H147.029V135.494H143.409V128.904H143.723C143.723 130.483 143.514 131.805 143.096 132.869C142.697 133.915 142.098 134.695 141.3 135.209C140.502 135.722 139.514 135.979 138.336 135.979H138.136Z" fill="#E0E0E0"/>
<path d="M121.072 136.036C119.704 136.036 118.488 135.827 117.424 135.408C116.36 134.971 115.457 134.381 114.716 133.64C113.994 132.898 113.443 132.052 113.063 131.101C112.683 130.131 112.493 129.114 112.493 128.049V127.393C112.493 126.309 112.683 125.282 113.063 124.312C113.462 123.323 114.032 122.458 114.773 121.716C115.533 120.975 116.445 120.395 117.509 119.976C118.573 119.539 119.761 119.32 121.072 119.32C122.421 119.32 123.618 119.539 124.664 119.976C125.728 120.395 126.63 120.975 127.371 121.716C128.113 122.458 128.683 123.323 129.082 124.312C129.481 125.282 129.68 126.309 129.68 127.393V128.049C129.68 129.114 129.49 130.131 129.11 131.101C128.73 132.052 128.17 132.898 127.428 133.64C126.706 134.381 125.813 134.971 124.749 135.408C123.685 135.827 122.459 136.036 121.072 136.036ZM121.072 132.185C121.965 132.185 122.706 131.995 123.295 131.614C123.884 131.234 124.331 130.702 124.635 130.017C124.958 129.332 125.12 128.572 125.12 127.735C125.12 126.841 124.958 126.061 124.635 125.396C124.312 124.711 123.846 124.169 123.238 123.77C122.649 123.371 121.927 123.171 121.072 123.171C120.236 123.171 119.514 123.371 118.906 123.77C118.298 124.169 117.832 124.711 117.509 125.396C117.205 126.061 117.053 126.841 117.053 127.735C117.053 128.572 117.205 129.332 117.509 130.017C117.813 130.702 118.269 131.234 118.877 131.614C119.485 131.995 120.217 132.185 121.072 132.185Z" fill="#E0E0E0"/>
<path d="M98.1582 135.494V114.67H102.833V135.494H98.1582ZM102.263 127.107V123.228H110.301V127.107H102.263ZM102.263 118.55V114.67H110.643V118.55H102.263Z" fill="#E0E0E0"/>
<path d="M166.989 103.603C165.412 103.603 164.138 103.412 163.169 103.032C162.2 102.633 161.488 101.977 161.032 101.064C160.594 100.132 160.376 98.877 160.376 97.2986V83.5496H164.623V97.4698C164.623 98.2114 164.813 98.7819 165.193 99.1813C165.592 99.5616 166.153 99.7518 166.875 99.7518H169.184V103.603H166.989ZM158.01 91.1087V87.7713H169.184V91.1087H158.01Z" fill="#E0E0E0"/>
<path d="M148.1 103.945C146.732 103.945 145.516 103.736 144.452 103.318C143.388 102.88 142.485 102.291 141.744 101.549C141.022 100.807 140.471 99.9612 140.091 99.0103C139.711 98.0405 139.521 97.0231 139.521 95.9581V95.3021C139.521 94.2181 139.711 93.1912 140.091 92.2214C140.49 91.2325 141.06 90.3672 141.801 89.6256C142.561 88.8839 143.473 88.3039 144.537 87.8856C145.602 87.4482 146.789 87.2295 148.1 87.2295C149.45 87.2295 150.647 87.4482 151.692 87.8856C152.756 88.3039 153.659 88.8839 154.4 89.6256C155.141 90.3672 155.711 91.2325 156.11 92.2214C156.509 93.1912 156.709 94.2181 156.709 95.3021V95.9581C156.709 97.0231 156.518 98.0405 156.138 99.0103C155.758 99.9612 155.198 100.807 154.457 101.549C153.735 102.291 152.842 102.88 151.777 103.318C150.713 103.736 149.488 103.945 148.1 103.945ZM148.1 100.094C148.994 100.094 149.735 99.9041 150.324 99.5238C150.913 99.1434 151.359 98.611 151.663 97.9264C151.986 97.2418 152.148 96.4811 152.148 95.6444C152.148 94.7506 151.986 93.9709 151.663 93.3053C151.34 92.6207 150.875 92.0787 150.267 91.6794C149.678 91.28 148.956 91.0804 148.1 91.0804C147.264 91.0804 146.542 91.28 145.934 91.6794C145.326 92.0787 144.861 92.6207 144.537 93.3053C144.233 93.9709 144.081 94.7506 144.081 95.6444C144.081 96.4811 144.233 97.2418 144.537 97.9264C144.842 98.611 145.298 99.1434 145.906 99.5238C146.514 99.9041 147.245 100.094 148.1 100.094Z" fill="#E0E0E0"/>
<path d="M115.778 103.403V82.5798H123.446L131.284 99.6093H132.253L131.683 100.123V82.5798H136.073V103.403H128.348L120.51 86.3737H119.541L120.111 85.8602V103.403H115.778Z" fill="#E0E0E0"/>
</g>
<defs>
<linearGradient id="paint0_linear_1772_1565" x1="257.962" y1="20.1834" x2="20.3752" y2="195.177" gradientUnits="userSpaceOnUse">
<stop stop-color="#4E77A8"/>
<stop offset="1" stop-color="#019C89"/>
</linearGradient>
<linearGradient id="paint1_linear_1772_1565" x1="226.062" y1="44.449" x2="198.266" y2="58.6684" gradientUnits="userSpaceOnUse">
<stop stop-color="#4E77A8"/>
<stop offset="1" stop-color="#019C89"/>
</linearGradient>
<clipPath id="clip0_1772_1565">
<rect width="300" height="272.414" fill="white"/>
</clipPath>
</defs>
</svg>
